<?xml version="1.0" encoding="UTF-8"?>
<svg width="248px" height="137px" viewBox="0 0 248 137" version="1.1" xmlns="http://www.w3.org/2000/svg" xmlns:xlink="http://www.w3.org/1999/xlink">
    <!-- Generator: sketchtool 57.1 (101010) - https://sketch.com -->
    <title>8AE90F51-4FA9-401D-91A7-ECBFA5009A08</title>
    <desc>Created with sketchtool.</desc>
    <g id="Desktop" stroke="none" stroke-width="1" fill="none" fill-rule="evenodd">
        <g id="Inicio-Copy-4" transform="translate(-72.000000, -35.000000)" fill="#3B3C39">
            <g id="Group-72-Copy" transform="translate(36.000000, 0.000000)">
                <polygon id="Fill-2" points="61 67 37 67 37 36 60.6110933 36 60.6110933 42.2193114 46.6019983 42.2193114 46.6019983 47.9004491 59.9677833 47.9004491 59.9677833 54.1399701 46.6019983 54.1399701 46.6019983 60.7582335 61 60.7582335"></polygon>
                <g id="Group-71" transform="translate(36.000000, 35.000000)">
                    <path d="M52.4390997,16.3187082 C52.4390997,13.8163895 51.959549,11.8675824 51.0056602,10.4693152 C50.0450695,9.07253398 48.896084,8.1378793 47.553491,7.66015039 C46.213132,7.18539336 44.8452211,6.9513582 43.4505031,6.9513582 L39.4882529,6.9513582 L39.4882529,25.1771246 L43.4505031,25.1771246 C45.8810208,25.1771246 47.990597,24.5998379 49.7673173,23.4452645 C51.5499948,22.292177 52.4390997,19.913934 52.4390997,16.3187082 M61.8938433,16.7184254 C61.8938433,19.8715848 61.3182336,22.4021363 60.1685034,24.312309 C59.0224964,26.2202527 57.6650106,27.7656277 56.1109388,28.9506629 C53.9008357,30.682523 50.8060956,31.5488246 46.8319311,31.5488246 L46.36355,31.5488246 L30.1883951,31.5488246 L30.1883951,0.778030859 L43.005206,0.778030859 C44.9330891,0.778030859 46.58322,0.881303516 47.9548541,1.07819023 C49.3287221,1.27730586 50.5611077,1.56037695 51.6616914,1.9229457 C52.7570626,2.28179961 53.69308,2.6934043 54.4608079,3.1451293 C55.2352375,3.5968543 55.9240332,4.08201289 56.5331519,4.5976332 C57.586823,5.45650508 58.5086921,6.46694258 59.3032272,7.63711836 C60.0977622,8.81026602 60.7262417,10.1632121 61.1953674,11.7019004 C61.6637484,13.2428176 61.8938433,14.9152402 61.8938433,16.7184254" id="Fill-3"></path>
                    <path d="M99.5363374,17.7618507 C99.5363374,20.3956749 99.0448725,22.6401835 98.0544961,24.4998343 C97.0700768,26.3579991 95.7662053,27.8261054 94.1413923,28.9034101 C92.5165793,29.9896304 90.7681554,30.7630609 88.8894189,31.2370749 C87.0129162,31.7088601 85.1401368,31.947353 83.2733145,31.947353 C80.6603591,31.947353 78.1226126,31.5045437 75.6511395,30.6144671 C73.1819003,29.7281054 71.1147688,28.2183929 69.4542129,26.0860726 C67.7906784,23.9552382 66.9648683,21.178021 66.9648683,17.7618507 L66.9648683,0.778328047 L76.2364296,0.778328047 L76.2364296,15.3665195 C76.2364296,17.3911093 76.5335425,19.0687327 77.1210666,20.392703 C77.7063567,21.7159304 78.5202525,22.6869905 79.5664772,23.3021687 C80.6112126,23.9158609 81.8503,24.221964 83.2733145,24.221964 C84.6352682,24.221964 85.8445699,23.9203187 86.8960071,23.3103413 C87.9511675,22.7025929 88.7710205,21.7411913 89.3570552,20.4246507 C89.9393668,19.1081101 90.237969,17.4356874 90.237969,15.4088687 L90.237969,0.778328047 L99.5363374,0.778328047 L99.5363374,17.7618507 Z" id="Fill-5"></path>
                    <path d="M124.340873,19.9617069 L119.823863,8.72579047 L115.26143,19.9617069 L124.340873,19.9617069 Z M138.512191,31.5490475 L128.990429,31.5490475 L126.473533,25.3110819 L113.080368,25.3110819 L110.52475,31.5490475 L101.000754,31.5490475 L114.638163,0.77825375 L124.915738,0.77825375 L138.512191,31.5490475 Z" id="Fill-7"></path>
                    <path d="M159.600208,10.5011886 C159.600208,9.08137531 159.131827,8.09248391 158.198044,7.52782766 C157.268728,6.96317141 155.741464,6.68158625 153.640079,6.68158625 L151.679431,6.68158625 L151.679431,14.0979003 L153.682523,14.0979003 C155.949964,14.0979003 157.50627,13.8482628 158.343994,13.3549316 C159.181719,12.8563995 159.600208,11.9106003 159.600208,10.5011886 L159.600208,10.5011886 Z M172.23756,31.5487503 L162.248162,31.5487503 L159.824346,26.0864441 C158.933752,24.0878581 158.13326,22.6256956 157.419891,21.7044144 C156.708012,20.7771894 156.016982,20.1850433 155.338611,19.9257472 C154.665453,19.667937 153.793475,19.5379175 152.723422,19.5379175 L151.679431,19.5379175 L151.679431,31.5487503 L142.378829,31.5487503 L142.378829,0.778699531 L158.198044,0.778699531 C160.751428,0.778699531 162.842388,1.29580578 164.472414,2.33150422 C166.105418,3.36794562 167.280466,4.62727766 168.000536,6.10875734 C168.720607,7.58726516 169.078036,8.99444797 169.078036,10.325848 C169.078036,11.8771667 168.782412,13.1929644 168.177017,14.2643253 C167.576834,15.3379152 166.945376,16.1202613 166.274452,16.6061628 C165.60874,17.0965222 164.858884,17.5638495 164.028606,18.00443 C165.024195,18.5839456 165.83958,19.2711917 166.48742,20.0609675 C167.136005,20.8514863 168.008727,22.4548128 169.124204,24.8672323 L172.23756,31.5487503 Z" id="Fill-9"></path>
                    <path d="M198.48529,16.3187082 C198.48529,13.8163895 198.010952,11.8675824 197.051106,10.4693152 C196.094983,9.07253398 194.948976,8.1378793 193.60266,7.66015039 C192.260811,7.18539336 190.892901,6.9513582 189.498927,6.9513582 L185.5404,6.9513582 L185.5404,25.1771246 L189.498927,25.1771246 C191.932423,25.1771246 194.039766,24.5998379 195.815741,23.4452645 C197.59544,22.292177 198.48529,19.913934 198.48529,16.3187082 M207.943757,16.7184254 C207.943757,19.8715848 207.368147,22.4021363 206.219161,24.312309 C205.070921,26.2202527 203.718647,27.7656277 202.161597,28.9506629 C199.94777,30.682523 196.858243,31.5488246 192.884078,31.5488246 L192.414208,31.5488246 L176.238308,31.5488246 L176.238308,0.778030859 L189.054375,0.778030859 C190.983002,0.778030859 192.633878,0.881303516 194.004767,1.07819023 C195.375657,1.27730586 196.610276,1.56037695 197.707137,1.9229457 C198.80921,2.28179961 199.738526,2.6934043 200.512955,3.1451293 C201.282172,3.5968543 201.974691,4.08201289 202.580831,4.5976332 C203.634502,5.45650508 204.557861,6.46694258 205.350162,7.63711836 C206.146186,8.81026602 206.779134,10.1632121 207.245281,11.7019004 C207.708449,13.2428176 207.943757,14.9152402 207.943757,16.7184254" id="Fill-11"></path>
                    <path d="M236.975561,16.1402471 C236.975561,14.9849307 236.804293,13.9336299 236.462501,12.9781721 C236.119965,12.0227143 235.60765,11.196533 234.918855,10.4907127 C234.227825,9.78935023 233.383399,9.2410393 232.391533,8.84949477 C231.398178,8.45720727 230.247703,8.26106352 228.941598,8.26106352 C226.453743,8.26106352 224.495329,8.98694398 223.07157,10.4342471 C221.645577,11.8845221 220.935187,13.7872651 220.935187,16.1402471 C220.935187,18.4947151 221.650045,20.4004299 223.081995,21.8596205 C224.511711,23.3165823 226.468635,24.0469205 228.941598,24.0469205 C230.650556,24.0469205 232.101867,23.7081268 233.3067,23.0349971 C234.506322,22.3588955 235.419255,21.4294416 236.042522,20.2392057 C236.6643,19.043026 236.975561,17.6804213 236.975561,16.1402471 M246.454133,16.1402471 C246.454133,19.0110784 245.790656,21.6545612 244.4637,24.0654948 C243.139723,26.4801432 241.158226,28.3932877 238.536335,29.8168159 C235.908486,31.2366291 232.710241,31.9469073 228.941598,31.9469073 C225.131255,31.9469073 221.905458,31.2076534 219.264206,29.7284026 C216.625932,28.2484088 214.663051,26.3025737 213.382263,23.8908971 C212.097753,21.4755057 211.458104,18.8959182 211.458104,16.1402471 C211.458104,13.3741745 212.094774,10.7871573 213.36886,8.38439633 C214.642946,5.97717758 216.605082,4.03802914 219.257504,2.56397914 C221.902479,1.09290102 225.131255,0.358847891 228.941598,0.358847891 C231.792095,0.358847891 234.33133,0.778625234 236.564518,1.62263773 C238.797705,2.4673932 240.633252,3.61156508 242.070415,5.05069555 C243.513534,6.49651273 244.602949,8.17562211 245.34238,10.0932245 C246.083301,12.0100838 246.454133,14.0235291 246.454133,16.1402471" id="Fill-13"></path>
                    <path d="M2.87589915,87.1902744 L2.87589915,99.9448189 L9.38483154,99.9448189 C12.0692728,99.9448189 14.1125757,99.371247 15.5080384,98.2211314 C16.9027564,97.0673009 17.6012324,95.5278697 17.6012324,93.6013517 C17.6012324,89.3225947 14.5079816,87.1902744 8.32296933,87.1902744 L2.87589915,87.1902744 Z M2.87589915,72.6570627 L2.87589915,85.1471103 L6.25360391,85.1471103 C11.9732138,85.1471103 14.8326464,83.0712556 14.8326464,78.9158314 C14.8326464,74.7440619 11.9419387,72.6570627 6.16573593,72.6570627 L2.87589915,72.6570627 Z M0.446126089,70.6391595 L6.99899246,70.6391595 C10.4340348,70.6391595 13.0373099,71.3576103 14.810307,72.790797 C16.5803256,74.2299275 17.4657072,76.2084533 17.4657072,78.736033 C17.4657072,81.754715 15.9600372,84.0794642 12.9412508,85.7058228 C17.788138,86.7526658 20.2141879,89.4035783 20.2141879,93.6474158 C20.2141879,96.185397 19.260299,98.2085009 17.3644356,99.7100408 C15.464849,101.212324 12.8950829,101.963465 9.65290334,101.963465 L0.446126089,101.963465 L0.446126089,70.6391595 Z" id="Fill-15"></path>
                    <path d="M44.0640152,89.1165695 L37.2892449,74.361953 L30.5316015,89.1165695 L44.0640152,89.1165695 Z M37.9772959,70.4130741 L52.5194467,101.963242 L49.9668074,101.963242 L44.9933308,91.1352155 L29.6112216,91.1352155 L24.6518932,101.963242 L22.0999985,101.963242 L36.642894,70.4130741 L37.9772959,70.4130741 Z" id="Fill-17"></path>
                    <polygon id="Fill-19" points="84.4006309 70.6388623 84.4006309 101.963168 82.3982835 101.963168 58.4803212 74.5840264 58.4803212 101.963168 56.0483142 101.963168 56.0483142 70.6388623 58.1109778 70.6388623 81.96639 98.0180037 81.96639 70.6388623"></polygon>
                    <path d="M106.630113,100.12328 C110.513431,100.12328 113.8405,98.7740487 116.608341,96.0793011 C119.375438,93.3808386 120.758987,90.1251495 120.758987,86.3122339 C120.758987,82.4391378 119.406713,79.1678464 116.695465,76.490187 C113.989429,73.8177284 110.681721,72.4766698 106.764149,72.4766698 C102.880086,72.4766698 99.5723782,73.827387 96.8410243,76.5243636 C94.114883,79.225055 92.7447382,82.4859448 92.7447382,86.3122339 C92.7447382,90.1251495 94.0977562,93.3808386 96.797835,96.0793011 C99.4979138,98.7740487 102.773602,100.12328 106.630113,100.12328 L106.630113,100.12328 Z M122.019669,105.370125 L119.297995,108.533686 C113.823373,107.862785 109.059142,105.806248 105.009023,102.368532 C100.536692,101.963614 96.9363388,100.191633 94.2064742,97.0548191 C91.4780989,93.9165191 90.1161452,90.3495261 90.1161452,86.358298 C90.1161452,81.7979558 91.7067046,77.9738956 94.8952698,74.8779448 C98.0808565,71.784223 102.023746,70.2343902 106.71947,70.2343902 C111.442002,70.2343902 115.405742,71.7701066 118.598775,74.8452542 C121.798509,77.9137152 123.393537,81.7251448 123.393537,86.2698847 C123.393537,90.0070175 122.158917,93.4410191 119.691167,96.580062 C117.223417,99.719848 113.512112,101.647852 108.566932,102.368532 C112.174732,104.816614 115.462335,106.046227 118.420805,106.046227 C119.436499,106.046227 120.466342,105.661369 121.499163,104.903541 L122.019669,105.370125 Z" id="Fill-21"></path>
                    <path d="M151.64689,70.6388623 L154.075919,70.6388623 L154.075919,87.7256577 C154.075919,92.4056178 152.854703,96.0119881 150.408547,98.5544272 C147.965371,101.098352 144.793188,102.368829 140.905402,102.368829 C137.031764,102.368829 133.87373,101.111726 131.42534,98.6012342 C128.977696,96.0877709 127.75648,92.6522834 127.75648,88.2865991 L127.75648,70.6388623 L130.207848,70.6388623 L130.207848,88.1974428 C130.207848,91.9338327 131.204181,94.8551858 133.195359,96.965217 C135.183558,99.0730194 137.753324,100.123577 140.905402,100.123577 C144.090989,100.123577 146.672669,99.05816 148.665336,96.9310405 C150.650557,94.7972342 151.64689,91.7770663 151.64689,87.8616209 L151.64689,70.6388623 Z" id="Fill-23"></path>
                    <polygon id="Fill-25" points="177.626548 70.6388623 177.626548 72.6575084 162.897492 72.6575084 162.897492 85.1958491 177.240823 85.1958491 177.240823 87.2338123 162.897492 87.2338123 162.897492 99.9445217 177.985466 99.9445217 177.985466 101.963168 160.467719 101.963168 160.467719 70.6388623"></polygon>
                    <polygon id="Fill-27" points="205.384862 70.6388623 205.384862 72.6575084 193.586724 72.6575084 193.586724 101.963168 191.130889 101.963168 191.130889 72.6575084 179.33424 72.6575084 179.33424 70.6388623"></polygon>
                    <polygon id="Fill-29" points="226.203617 70.6388623 226.203617 72.6575084 211.479773 72.6575084 211.479773 85.1958491 225.824593 85.1958491 225.824593 87.2338123 211.479773 87.2338123 211.479773 99.9445217 226.567748 99.9445217 226.567748 101.963168 209.047766 101.963168 209.047766 70.6388623"></polygon>
                    <path d="M246.172286,72.2068236 L246.172286,74.8777962 C243.439442,73.2781845 241.092325,72.4765212 239.124976,72.4765212 C237.231346,72.4765212 235.651956,73.052322 234.383828,74.195008 C233.118678,75.3376939 232.482752,76.7530494 232.482752,78.4418173 C232.482752,79.6543423 232.858053,80.7450205 233.60642,81.7153377 C234.357765,82.6856548 235.924496,83.6203095 238.312569,84.5200447 C240.698408,85.416065 242.44013,86.1642345 243.540714,86.7623244 C244.633107,87.3581853 245.566145,88.2259728 246.330895,89.363458 C247.097878,90.4979712 247.476902,91.9742502 247.476902,93.7804072 C247.476902,96.185397 246.592265,98.2211314 244.820012,99.8786947 C243.047015,101.537744 240.888292,102.369126 238.333419,102.369126 C235.724187,102.369126 233.036022,101.454531 230.276372,99.634258 L230.276372,96.7820009 C233.323455,99.0109072 235.965452,100.123131 238.199383,100.123131 C240.060993,100.123131 241.63517,99.5220697 242.916702,98.3206892 C244.201958,97.1178228 244.844585,95.639315 244.844585,93.8918525 C244.844585,92.5589666 244.446201,91.359815 243.650921,90.2929119 C242.852663,89.2252658 241.244977,88.2259728 238.811481,87.29429 C236.379474,86.3648361 234.639985,85.6174095 233.599718,85.0482955 C232.554238,84.4814103 231.670345,83.6715744 230.940594,82.6180447 C230.209354,81.5682298 229.847457,80.2063681 229.847457,78.5517767 C229.847457,76.2508025 230.734328,74.289365 232.502857,72.6682072 C234.276599,71.0463064 236.40777,70.2349845 238.899349,70.2349845 C241.346993,70.2349845 243.76783,70.8947408 246.172286,72.2068236" id="Fill-31"></path>
                    <polygon id="Fill-33" points="18.1556942 35.6133838 23.8283915 35.6133838 10.0770525 50.7536009 27.2083302 67.514233 21.0114036 67.514233 4.8124201 51.7573517 4.8124201 67.514233 0.272326202 67.514233 0.272326202 35.6133838 4.8124201 35.6133838 4.8124201 50.2090048"></polygon>
                    <path d="M39.6965298,39.4980702 C36.0663907,39.4980702 33.0840919,40.6392702 30.7496332,42.9201842 C28.4159192,45.2048131 27.2475729,48.1179936 27.2475729,51.6686413 C27.2475729,55.1078436 28.4181532,57.9667873 30.7645261,60.2506733 C33.1071758,62.5375311 36.0351157,63.6787311 39.5587706,63.6787311 C43.0950845,63.6787311 46.0446191,62.5137561 48.4110974,60.1838061 C50.7760864,57.8545991 51.9600702,54.956278 51.9600702,51.485128 C51.9600702,48.1031342 50.7760864,45.2597928 48.4110974,42.9543608 C46.0446191,40.6496717 43.1405078,39.4980702 39.6965298,39.4980702 M39.514092,35.1576467 C44.4101257,35.1576467 48.4885404,36.7178811 51.7441235,39.8398358 C55.0064085,42.9573327 56.6379233,46.8705491 56.6379233,51.5742842 C56.6379233,56.2802483 54.9892817,60.1734045 51.7016788,63.2567248 C48.4148206,66.3378163 44.2656648,67.8787334 39.2638917,67.8787334 C34.4855117,67.8787334 30.5061347,66.3378163 27.3235266,63.2567248 C24.1401739,60.1734045 22.5511038,56.3092241 22.5511038,51.6686413 C22.5511038,46.8980389 24.1513436,42.9573327 27.3600142,39.8398358 C30.561983,36.7178811 34.616569,35.1576467 39.514092,35.1576467" id="Fill-35"></path>
                    <polygon id="Fill-37" points="83.4043719 35.6133838 87.9414872 35.6133838 87.9414872 67.514233 83.4043719 67.514233 83.4043719 53.6318619 65.591745 53.6318619 65.591745 67.514233 61.0546297 67.514233 61.0546297 35.6133838 65.591745 35.6133838 65.591745 49.4043697 83.4043719 49.4043697"></polygon>
                    <polygon id="Fill-39" points="93.7712298 35.6133838 98.3076005 35.6133838 98.3076005 63.3580658 112.58019 63.3580658 112.58019 67.514233 93.7712298 67.514233"></polygon>
                    <polygon id="Fill-41" points="140.599428 35.6133838 144.843153 35.6133838 144.843153 67.514233 140.279976 67.514233 140.279976 42.693133 130.537799 55.0226994 129.696352 55.0226994 119.837266 42.693133 119.837266 67.514233 115.300896 67.514233 115.300896 35.6133838 119.596746 35.6133838 130.129734 48.7156377"></polygon>
                    <path d="M167.299678,53.9931676 L162.184719,42.4377746 L157.441337,53.9931676 L167.299678,53.9931676 Z M160.632136,35.4300934 L163.824424,35.4300934 L178.035953,67.5137129 L173.39012,67.5137129 L169.16501,58.0586926 L155.642277,58.0586926 L151.679282,67.5137129 L147.018556,67.5137129 L160.632136,35.4300934 Z" id="Fill-43"></path>
                    <polygon id="Fill-45" points="205.53327 35.6133838 209.844758 35.6133838 209.844758 67.514233 205.939845 67.514233 184.748769 42.9464853 184.748769 67.514233 180.478981 67.514233 180.478981 35.6133838 184.158267 35.6133838 205.53327 60.3913916"></polygon>
                    <polygon id="Fill-47" points="240.653655 35.6133838 244.965888 35.6133838 244.965888 67.514233 241.059486 67.514233 219.869899 42.9464853 219.869899 67.514233 215.603834 67.514233 215.603834 35.6133838 219.28312 35.6133838 240.653655 60.3913916"></polygon>
                    <polygon id="Fill-49" points="1.62549311 127.726278 1.62549311 135.551225 3.35157768 135.551225 3.35157768 136.010379 1.15636745 136.010379 1.15636745 127.267123 3.35157768 127.267123 3.35157768 127.726278"></polygon>
                    <path d="M13.4289181,127.692919 L13.4289181,130.360919 L14.6620484,130.360919 C15.2153189,130.360919 15.6345534,130.244273 15.9234752,130.011724 C16.2109078,129.778432 16.354624,129.448554 16.354624,129.02209 C16.354624,128.615686 16.2138863,128.293237 15.9324109,128.052515 C15.6509355,127.812537 15.2480832,127.692919 14.7231092,127.692919 L13.4289181,127.692919 Z M12.9173478,127.267198 L14.74247,127.267198 C15.4402013,127.267198 15.9763449,127.423221 16.3471776,127.735268 C16.7187549,128.048058 16.9041712,128.473779 16.9041712,129.013174 C16.9041712,129.558513 16.7180103,129.990921 16.3427097,130.308912 C15.9681538,130.627645 15.4193513,130.787383 14.6948128,130.787383 L13.4289181,130.787383 L13.4289181,133.875905 L12.9173478,133.875905 L12.9173478,127.267198 Z" id="Fill-51"></path>
                    <path d="M29.6401883,131.165406 L28.2127059,128.05311 L26.790436,131.165406 L29.6401883,131.165406 Z M28.3586561,127.219499 L31.4206319,133.875756 L30.882999,133.875756 L29.835285,131.591127 L26.596084,131.591127 L25.5513486,133.875756 L25.0144603,133.875756 L28.0764361,127.219499 L28.3586561,127.219499 Z" id="Fill-53"></path>
                    <path d="M44.0763763,127.598636 L44.0763763,128.161806 C43.5015112,127.824498 43.006323,127.655101 42.592301,127.655101 C42.1939165,127.655101 41.860316,127.776205 41.5944781,128.016184 C41.3278956,128.258392 41.1938597,128.557809 41.1938597,128.913691 C41.1938597,129.169272 41.272792,129.399592 41.4306565,129.604651 C41.5877764,129.809711 41.9191429,130.006598 42.4210329,130.195312 C42.9244122,130.385512 43.2900323,130.543021 43.5216166,130.669326 C43.7524562,130.79563 43.9482975,130.977658 44.1098853,131.217637 C44.2707283,131.457616 44.3511499,131.768176 44.3511499,132.149319 C44.3511499,132.65751 44.1657336,133.086203 43.7919223,133.436141 C43.4188557,133.786823 42.9631336,133.96142 42.4262454,133.96142 C41.8759535,133.96142 41.3107688,133.769734 40.7284573,133.384134 L40.7284573,132.783815 C41.3703403,133.253371 41.927334,133.488892 42.3979489,133.488892 C42.7896316,133.488892 43.1209982,133.362587 43.3913039,133.107749 C43.6616096,132.852911 43.7971348,132.54235 43.7971348,132.173094 C43.7971348,131.891509 43.7122454,131.6389 43.5454452,131.41378 C43.3786449,131.187918 43.037598,130.977658 42.5260277,130.780771 C42.0137127,130.58537 41.6488372,130.427861 41.4284226,130.3075 C41.208008,130.187139 41.0225916,130.016999 40.8684503,129.794851 C40.7157983,129.571961 40.6383554,129.285918 40.6383554,128.93598 C40.6383554,128.450821 40.8245163,128.03773 41.1983276,127.695222 C41.5713942,127.353456 42.0196698,127.182573 42.5446438,127.182573 C43.060682,127.182573 43.5700184,127.320023 44.0763763,127.598636" id="Fill-55"></path>
                    <polygon id="Fill-57" points="54.2488078 133.876053 54.7611228 133.876053 54.7611228 127.266603 54.2488078 127.266603"></polygon>
                    <path d="M69.9077011,125.20427 L68.4333061,126.713983 L68.1101307,126.713983 L69.1198678,125.20427 L69.9077011,125.20427 Z M68.2598041,133.488372 C69.0841249,133.488372 69.7788777,133.206787 70.347041,132.645102 C70.9144596,132.081932 71.1966797,131.390971 71.1966797,130.575192 C71.1966797,129.754954 70.9144596,129.062507 70.347041,128.50008 C69.7788777,127.93691 69.0841249,127.655324 68.2598041,127.655324 C67.4325047,127.655324 66.7317948,127.93691 66.1576743,128.50008 C65.5850432,129.062507 65.2990999,129.754954 65.2990999,130.575192 C65.2990999,131.390971 65.5850432,132.081932 66.1576743,132.645102 C66.7317948,133.206787 67.4325047,133.488372 68.2598041,133.488372 L68.2598041,133.488372 Z M68.2404434,127.182796 C69.2196501,127.182796 70.0491834,127.511188 70.7312772,128.168716 C71.4118817,128.826243 71.752184,129.628649 71.752184,130.575192 C71.752184,131.516533 71.4118817,132.317453 70.7312772,132.974981 C70.0491834,133.633251 69.2196501,133.961643 68.2404434,133.961643 C67.2642152,133.961643 66.4376605,133.633251 65.7600345,132.974981 C65.0831532,132.317453 64.7435956,131.516533 64.7435956,130.575192 C64.7435956,129.628649 65.0831532,128.826243 65.7600345,128.168716 C66.4376605,127.511188 67.2642152,127.182796 68.2404434,127.182796 L68.2404434,127.182796 Z" id="Fill-59"></path>
                    <polygon id="Fill-60" points="87.7137006 127.267049 87.7137006 133.876499 87.2929768 133.876499 82.2562054 128.099917 82.2562054 133.876499 81.7438904 133.876499 81.7438904 127.267049 82.1772732 127.267049 87.2021302 133.043631 87.2021302 127.267049"></polygon>
                    <path d="M109.921365,127.692919 L109.921365,130.360919 L111.15375,130.360919 C111.707021,130.360919 112.127,130.244273 112.415922,130.011724 C112.703354,129.778432 112.847071,129.448554 112.847071,129.02209 C112.847071,128.615686 112.705588,128.293237 112.424858,128.052515 C112.144127,127.812537 111.741274,127.692919 111.215556,127.692919 L109.921365,127.692919 Z M109.409794,127.267198 L111.234917,127.267198 C111.933393,127.267198 112.468792,127.423221 112.839624,127.735268 C113.211202,128.048058 113.397362,128.473779 113.397362,129.013174 C113.397362,129.558513 113.209712,129.990921 112.835156,130.308912 C112.459856,130.627645 111.911798,130.787383 111.187259,130.787383 L109.921365,130.787383 L109.921365,133.875905 L109.409794,133.875905 L109.409794,127.267198 Z" id="Fill-61"></path>
                    <path d="M126.350071,133.488669 C127.173647,133.488669 127.869889,133.207084 128.438797,132.644657 C129.003982,132.081486 129.287691,131.391268 129.287691,130.574746 C129.287691,129.755251 129.003982,129.062804 128.438797,128.499634 C127.869889,127.936464 127.173647,127.654879 126.350071,127.654879 C125.522772,127.654879 124.822062,127.936464 124.24943,128.499634 C123.676055,129.062804 123.388622,129.755251 123.388622,130.574746 C123.388622,131.391268 123.676055,132.081486 124.24943,132.644657 C124.822062,133.207084 125.522772,133.488669 126.350071,133.488669 M126.332199,127.183093 C127.310662,127.183093 128.140195,127.511486 128.822289,128.169013 C129.502893,128.82654 129.842451,129.628947 129.842451,130.574746 C129.842451,131.51683 129.502893,132.31775 128.822289,132.975278 C128.140195,133.632805 127.310662,133.96194 126.332199,133.96194 C125.354482,133.96194 124.527927,133.632805 123.851046,132.975278 C123.172675,132.31775 122.833862,131.51683 122.833862,130.574746 C122.833862,129.628947 123.172675,128.82654 123.851046,128.169013 C124.527927,127.511486 125.354482,127.183093 126.332199,127.183093" id="Fill-62"></path>
                    <path d="M140.356525,127.692919 L140.356525,130.280679 L141.456364,130.280679 C142.016336,130.280679 142.445251,130.16849 142.738641,129.942628 C143.035009,129.716765 143.183193,129.397289 143.183193,128.984198 C143.183193,128.577051 143.032775,128.26129 142.731194,128.033198 C142.431847,127.80585 142.000699,127.692919 141.437748,127.692919 L140.356525,127.692919 Z M139.844955,127.267198 L141.541998,127.267198 C142.253133,127.267198 142.797468,127.420992 143.173513,127.727838 C143.549558,128.03617 143.737953,128.45149 143.737953,128.975283 C143.737953,129.738312 143.317229,130.274735 142.476526,130.58381 C142.695451,130.687083 142.988096,131.022905 143.35744,131.591276 L144.857153,133.875905 L144.250268,133.875905 L143.096814,132.064547 C142.711089,131.459027 142.410997,131.082342 142.19654,130.930776 C141.980593,130.780697 141.666354,130.707143 141.252332,130.707143 L140.356525,130.707143 L140.356525,133.875905 L139.844955,133.875905 L139.844955,127.267198 Z" id="Fill-63"></path>
                    <path d="M168.706086,127.598636 L168.706086,128.161806 C168.131221,127.824498 167.635289,127.655101 167.221267,127.655101 C166.822882,127.655101 166.490026,127.776205 166.223444,128.016184 C165.956117,128.258392 165.822081,128.557809 165.822081,128.913691 C165.822081,129.169272 165.902502,129.399592 166.059622,129.604651 C166.217487,129.809711 166.548108,130.006598 167.049998,130.195312 C167.552633,130.385512 167.918998,130.543021 168.151327,130.669326 C168.381422,130.79563 168.577263,130.977658 168.738851,131.217637 C168.899694,131.457616 168.98086,131.768176 168.98086,132.149319 C168.98086,132.65751 168.794699,133.086203 168.420888,133.436141 C168.047821,133.786823 167.592099,133.96142 167.055211,133.96142 C166.505664,133.96142 165.939734,133.769734 165.358167,133.384134 L165.358167,132.783815 C165.999306,133.253371 166.556299,133.488892 167.026914,133.488892 C167.418597,133.488892 167.750708,133.362587 168.020269,133.107749 C168.290575,132.852911 168.4261,132.54235 168.4261,132.173094 C168.4261,131.891509 168.341956,131.6389 168.174411,131.41378 C168.00761,131.187918 167.666564,130.977658 167.155738,130.780771 C166.642678,130.58537 166.277058,130.427861 166.056643,130.3075 C165.836973,130.187139 165.652302,130.016999 165.497416,129.794851 C165.344019,129.571961 165.26881,129.285918 165.26881,128.93598 C165.26881,128.450821 165.453482,128.03773 165.827293,127.695222 C166.201104,127.353456 166.648635,127.182573 167.173609,127.182573 C167.690392,127.182573 168.198984,127.320023 168.706086,127.598636" id="Fill-64"></path>
                    <polygon id="Fill-65" points="182.509625 127.267049 182.509625 127.69277 179.407438 127.69277 179.407438 130.337739 182.428459 130.337739 182.428459 130.768661 179.407438 130.768661 179.407438 133.450778 182.584834 133.450778 182.584834 133.876499 178.895123 133.876499 178.895123 127.267049"></polygon>
                    <path d="M192.899716,127.692919 L192.899716,130.280679 L194.0003,130.280679 C194.558783,130.280679 194.986953,130.16849 195.282576,129.942628 C195.5782,129.716765 195.724895,129.397289 195.724895,128.984198 C195.724895,128.577051 195.575221,128.26129 195.27513,128.033198 C194.975783,127.80585 194.54389,127.692919 193.980939,127.692919 L192.899716,127.692919 Z M192.387401,127.267198 L194.085189,127.267198 C194.796324,127.267198 195.339914,127.420992 195.715959,127.727838 C196.09126,128.03617 196.280399,128.45149 196.280399,128.975283 C196.280399,129.738312 195.86042,130.274735 195.018972,130.58381 C195.237153,130.687083 195.531287,131.022905 195.901375,131.591276 L197.399599,133.875905 L196.793459,133.875905 L195.639261,132.064547 C195.253535,131.459027 194.954188,131.082342 194.738986,130.930776 C194.523784,130.780697 194.209545,130.707143 193.795523,130.707143 L192.899716,130.707143 L192.899716,133.875905 L192.387401,133.875905 L192.387401,127.267198 Z" id="Fill-66"></path>
                    <polygon id="Fill-67" points="211.379842 127.267049 208.603064 133.942623 208.452646 133.942623 205.665444 127.267049 206.184461 127.267049 208.532323 132.859375 210.863059 127.267049"></polygon>
                    <polygon id="Fill-68" points="220.90756 133.876053 221.419131 133.876053 221.419131 127.266603 220.90756 127.266603"></polygon>
                    <path d="M232.188469,127.692919 L232.188469,130.280679 L233.289797,130.280679 C233.84828,130.280679 234.277195,130.16849 234.572074,129.942628 C234.866953,129.716765 235.015137,129.397289 235.015137,128.984198 C235.015137,128.577051 234.864719,128.26129 234.564627,128.033198 C234.265281,127.80585 233.832642,127.692919 233.269692,127.692919 L232.188469,127.692919 Z M231.676898,127.267198 L233.374686,127.267198 C234.086566,127.267198 234.629411,127.420992 235.005457,127.727838 C235.381502,128.03617 235.569897,128.45149 235.569897,128.975283 C235.569897,129.738312 235.149173,130.274735 234.30847,130.58381 C234.527395,130.687083 234.82153,131.022905 235.190873,131.591276 L236.689096,133.875905 L236.082956,133.875905 L234.928758,132.064547 C234.543033,131.459027 234.243686,131.082342 234.028484,130.930776 C233.814026,130.780697 233.499787,130.707143 233.08502,130.707143 L232.188469,130.707143 L232.188469,133.875905 L231.676898,133.875905 L231.676898,127.267198 Z" id="Fill-69"></path>
                    <polygon id="Fill-70" points="247.012244 135.551448 247.012244 127.726501 245.280947 127.726501 245.280947 127.267346 247.476902 127.267346 247.476902 136.010602 245.280947 136.010602 245.280947 135.551448"></polygon>
                </g>
            </g>
        </g>
    </g>
</svg>