<?xml version="1.0" encoding="utf-8"?>
<!-- Generator: Adobe Illustrator 16.0.0, SVG Export Plug-In . SVG Version: 6.00 Build 0)  -->
<!DOCTYPE svg PUBLIC "-//W3C//DTD SVG 1.1//EN" "http://www.w3.org/Graphics/SVG/1.1/DTD/svg11.dtd">
<svg version="1.1" id="Layer_1" xmlns="http://www.w3.org/2000/svg" xmlns:xlink="http://www.w3.org/1999/xlink" x="0px" y="0px"
	 width="498px" height="168px" viewBox="0 0 498 168" enable-background="new 0 0 498 168" xml:space="preserve">
<path fill="#050505" d="M462.799,100.893c-0.173,0.012-0.345,0.027-0.518,0.036c-9.926,0.524-10.068,0.57-13-8.735
	c-1.132-3.596-2.642-5.161-6.764-4.961c-8.616,0.417-17.271,0.291-25.9,0.03c-3.218-0.098-4.668,0.963-5.306,3.992
	c-0.494,2.344-1.43,4.596-2.184,6.884c-0.464,1.41-0.588,3.583-2.796,2.726c-1.932-0.751-0.451-2.361-0.08-3.509
	c5.801-17.847,11.64-35.682,17.479-53.516c1.5-4.579,3.177-9.106,4.491-13.738c0.71-2.503,1.653-3.71,4.56-3.705
	c2.868,0.005,4.233,0.787,5.191,3.579c7.48,21.82,15.117,43.586,22.745,65.354c0.546,1.558,0.531,3.412,2.08,4.523V100.893z
	 M429.449,35.907c-5.218,15.983-9.877,30.499-14.733,44.949c-1.124,3.344,0.785,2.934,2.779,2.929
	c7.947-0.012,15.896-0.105,23.838,0.058c3.561,0.073,4.518-0.702,3.166-4.395c-4.083-11.158-7.799-22.451-11.658-33.691
	C431.867,42.924,430.891,40.093,429.449,35.907"/>
<path fill="#050505" d="M21.464,99.854c5.353-12.677,8.791-26.004,13.264-38.98c3.591-10.418,7.045-20.887,10.291-31.415
	c0.825-2.675,2.324-2.968,4.576-2.976c2.193-0.009,3.799,0.124,4.704,2.762C62.3,52.569,70.461,75.839,78.551,99.132
	c0.156,0.45,0.019,1,0.019,1.691c-0.639,0.089-1.307,0.156-1.964,0.277c-5.806,1.067-9.53-0.869-10.284-7.105
	c-0.658-5.449-3.515-7.22-9.082-6.785c-7.568,0.592-15.229,0.417-22.824,0.046c-3.953-0.191-6.104,0.776-6.761,4.839
	c-0.354,2.186-1.491,4.235-1.953,6.414c-0.548,2.588-2.166,2.769-4.238,2.384V99.854z M46.078,35.804
	c-5.117,15.671-9.785,30.092-14.564,44.475c-0.724,2.177-1.222,3.591,1.984,3.553c8.647-0.103,17.296-0.107,25.942-0.004
	c2.667,0.032,2.815-0.983,2.072-3.128C56.497,66.234,51.549,51.745,46.078,35.804"/>
<path fill="#050505" d="M327.802,4.318c-5.04,7.414-11.265,13.719-17.781,19.767c2.501-7.264,8.153-12.589,10.513-19.767H327.802z"
	/>
<path fill="#050505" d="M364.973,29.099c-6.499,1.017-9.156,3.523-9.24,9.633c-0.168,12.247-0.05,24.498-0.05,37.938
	c5.015-4.936,9.372-9.166,13.664-13.463c8.183-8.191,16.352-16.394,24.465-24.652c1.769-1.799,4.271-3.491,3.486-6.504
	c-0.855-3.279-4.112-2.468-6.465-3.688h23.94c-10.127,1.633-15.445,9.938-22.143,16.261c-8.542,8.066-16.732,16.506-25.249,24.599
	c-2.355,2.238-2.627,3.537-0.267,6.09c7.48,8.091,14.63,16.491,22.461,25.402c-7.035,0.39-13.079,1.951-17.857-4.876
	c-4.386-6.267-10.066-11.628-16.076-18.403c0,7.404-0.346,13.557,0.106,19.647c0.382,5.147-2.921,3.78-5.618,4.024
	c-3.132,0.284-4.956,0.009-4.896-4.168c0.262-17.802-0.135-35.616,0.224-53.415c0.14-6.977-1.199-12.424-8.201-15.198
	c3.627-0.041,7.269-0.305,10.879-0.072C353.747,28.617,359.454,27.082,364.973,29.099"/>
<path fill="#050505" d="M165.928,101.062c-4.118,0-7.049-0.206-9.937,0.06c-2.755,0.254-4.427-0.922-6.164-2.877
	C134.235,80.696,118.55,63.23,102.92,45.771c-1.921,0.751-1.084,2.173-1.089,3.191c-0.081,16.084-0.065,32.168-0.173,48.251
	c-0.009,1.292,1.196,3.67-1.263,3.719c-2.513,0.049-1.344-2.357-1.351-3.641C98.949,80.86,98.966,64.43,98.937,48
	c-0.013-7.529-5.142-14.992-12.21-17.795c-1.369-0.542-2.774-0.994-4.089-2.271c5.581,0,11.162,0.024,16.743-0.016
	c1.417-0.01,2.152,0.898,2.955,1.798C123.246,53.178,144.157,76.638,165.928,101.062"/>
<path fill="#050505" d="M197.084,46.208V22.499c5.7,6.834,12.973,5.337,19.848,5.371c16.422,0.08,32.845,0.034,49.267,0.02
	c6.475-0.005,13.167,0.928,18.845-5.334v23.757c-0.184-0.035-0.692-0.044-0.714-0.152c-2.255-10.992-5.567-14.002-16.647-14.516
	c-5.693-0.264-11.413,0.068-17.106-0.195c-3.32-0.153-4.399,0.704-4.366,4.273c0.19,20.224-0.101,40.453,0.211,60.674
	c0.072,4.781-2.114,4.562-5.525,4.808c-4.062,0.294-4.791-1.188-4.758-4.911c0.179-20.051,0.002-40.105,0.165-60.157
	c0.028-3.53-0.758-4.966-4.529-4.699c-4.646,0.329-9.33,0.056-13.997,0.133C204.523,31.789,201.76,33.817,197.084,46.208"/>
<path fill="#050505" d="M322.489,29.149c-6.493,2.125-8.329,4.509-8.353,11.2c-0.066,18.483-0.219,36.968-0.014,55.449
	c0.048,4.296-1.141,5.432-5.411,5.459c-4.219,0.027-5.032-1.317-4.991-5.226c0.194-18.654,0.123-37.312,0.058-55.968
	c-0.024-7.162-2.045-9.489-8.999-10.972c5.507-1.916,11.191-0.724,16.779-0.774C315.178,28.284,318.996,27.085,322.489,29.149"/>
<path fill="#050505" d="M167.02,28.016h22.45c-9.638,1.702-9.985,8.864-9.972,16.312c0.028,16.948,0.069,33.896-0.083,50.843
	c-0.018,1.932,1.558,5.559-1.273,5.636c-3.163,0.087-1.53-3.58-1.555-5.476c-0.242-18.154-0.189-36.312-0.423-54.466
	C176.065,33.159,174.179,30.961,167.02,28.016"/>
<g>
	<path fill="#050505" d="M89.193,120.455h-6.588v-2.378h16.036v2.378h-6.62v19.281h-2.828V120.455z"/>
	<path fill="#050505" d="M103.849,118.077v12.822c0,4.853,2.153,6.909,5.045,6.909c3.213,0,5.27-2.121,5.27-6.909v-12.822h2.828
		v12.629c0,6.652-3.503,9.384-8.194,9.384c-4.435,0-7.777-2.539-7.777-9.255v-12.758H103.849z"/>
	<path fill="#050505" d="M139.877,129.582h-8.419v7.809h9.384v2.346h-12.179v-21.659h11.697v2.346h-8.902v6.845h8.419V129.582z"/>
	<path fill="#050505" d="M149.231,139.736l-7.07-21.659h3.021l3.374,10.669c0.932,2.925,1.735,5.56,2.313,8.098h0.064
		c0.611-2.506,1.51-5.237,2.475-8.065l3.663-10.701h2.989l-7.745,21.659H149.231z"/>
	<path fill="#050505" d="M173.625,129.582h-8.419v7.809h9.384v2.346H162.41v-21.659h11.697v2.346h-8.901v6.845h8.419V129.582z"/>
	<path fill="#050505" d="M178.223,139.736v-21.659h3.053l6.941,10.958c1.607,2.539,2.86,4.82,3.889,7.038l0.064-0.032
		c-0.257-2.893-0.321-5.527-0.321-8.901v-9.062h2.635v21.659h-2.828l-6.876-10.99c-1.511-2.41-2.957-4.885-4.049-7.23l-0.096,0.032
		c0.161,2.731,0.225,5.335,0.225,8.934v9.255H178.223z"/>
	<path fill="#050505" d="M203.484,120.455h-6.588v-2.378h16.036v2.378h-6.62v19.281h-2.828V120.455z"/>
	<path fill="#050505" d="M232.633,128.682c0,7.455-4.531,11.408-10.059,11.408c-5.72,0-9.737-4.435-9.737-10.99
		c0-6.877,4.274-11.376,10.059-11.376C228.809,117.724,232.633,122.255,232.633,128.682z M215.826,129.035
		c0,4.628,2.506,8.773,6.909,8.773c4.435,0,6.941-4.081,6.941-8.998c0-4.307-2.25-8.805-6.909-8.805
		C218.14,120.006,215.826,124.279,215.826,129.035z"/>
	<path fill="#050505" d="M258.217,139.029c-1.028,0.515-3.085,1.028-5.72,1.028c-6.105,0-10.701-3.856-10.701-10.958
		c0-6.78,4.596-11.376,11.312-11.376c2.699,0,4.402,0.579,5.142,0.964l-0.675,2.282c-1.061-0.515-2.57-0.9-4.37-0.9
		c-5.077,0-8.452,3.246-8.452,8.934c0,5.303,3.054,8.709,8.323,8.709c1.703,0,3.438-0.354,4.563-0.899L258.217,139.029z"/>
	<path fill="#050505" d="M279.59,128.682c0,7.455-4.531,11.408-10.059,11.408c-5.72,0-9.736-4.435-9.736-10.99
		c0-6.877,4.273-11.376,10.058-11.376C275.766,117.724,279.59,122.255,279.59,128.682z M262.783,129.035
		c0,4.628,2.507,8.773,6.909,8.773c4.435,0,6.94-4.081,6.94-8.998c0-4.307-2.249-8.805-6.908-8.805
		C265.097,120.006,262.783,124.279,262.783,129.035z"/>
	<path fill="#050505" d="M283.225,139.736v-21.659h3.053l6.941,10.958c1.606,2.539,2.859,4.82,3.888,7.038l0.064-0.032
		c-0.257-2.893-0.321-5.527-0.321-8.901v-9.062h2.635v21.659h-2.827l-6.877-10.99c-1.511-2.41-2.957-4.885-4.049-7.23l-0.097,0.032
		c0.16,2.731,0.225,5.335,0.225,8.934v9.255H283.225z"/>
	<path fill="#050505" d="M322.401,129.582h-8.419v7.809h9.383v2.346h-12.179v-21.659h11.697v2.346h-8.901v6.845h8.419V129.582z"/>
	<path fill="#050505" d="M326.614,136.33c1.253,0.771,3.085,1.414,5.013,1.414c2.86,0,4.531-1.511,4.531-3.695
		c0-2.025-1.156-3.182-4.081-4.307c-3.535-1.253-5.72-3.085-5.72-6.138c0-3.374,2.796-5.881,7.005-5.881
		c2.218,0,3.824,0.515,4.788,1.061l-0.771,2.281c-0.707-0.385-2.153-1.028-4.113-1.028c-2.957,0-4.081,1.768-4.081,3.246
		c0,2.024,1.317,3.021,4.306,4.178c3.663,1.414,5.527,3.182,5.527,6.362c0,3.343-2.475,6.234-7.584,6.234
		c-2.089,0-4.37-0.61-5.527-1.382L326.614,136.33z"/>
	<path fill="#050505" d="M346.958,120.455h-6.588v-2.378h16.035v2.378h-6.619v19.281h-2.828V120.455z"/>
	<path fill="#050505" d="M361.614,118.077v21.659h-2.796v-21.659H361.614z"/>
	<path fill="#050505" d="M366.5,118.077h2.796v19.313h9.255v2.346H366.5V118.077z"/>
	<path fill="#050505" d="M399.248,128.682c0,7.455-4.531,11.408-10.059,11.408c-5.72,0-9.736-4.435-9.736-10.99
		c0-6.877,4.273-11.376,10.058-11.376C395.424,117.724,399.248,122.255,399.248,128.682z M382.441,129.035
		c0,4.628,2.507,8.773,6.909,8.773c4.435,0,6.94-4.081,6.94-8.998c0-4.307-2.249-8.805-6.908-8.805
		C384.755,120.006,382.441,124.279,382.441,129.035z"/>
</g>
</svg>
