<svg id="Salon_condado_logo_menu_gris" xmlns="http://www.w3.org/2000/svg" xmlns:xlink="http://www.w3.org/1999/xlink" width="94" height="88.592" viewBox="0 0 94 88.592">
  <defs>
    <clipPath id="clip-path">
      <rect id="Rectángulo_1" data-name="Rectángulo 1" width="94" height="88.592" fill="none"/>
    </clipPath>
  </defs>
  <g id="Grupo_1" data-name="Grupo 1" clip-path="url(#clip-path)">
    <path id="Trazado_1" data-name="Trazado 1" d="M95.5,193c-.959-.01-1.919-.026-2.878-.029q-8.3-.025-16.6-.045-7.889-.014-15.777-.011c-15.644,0-31.288-.026-46.932.039-1.449.006-2.9-.007-4.348.033-.116,0-.244-.02-.3.127a.419.419,0,0,0,.039.419.666.666,0,0,0,.437.264,3.894,3.894,0,0,0,.774.042l18.781-.01h.272a4.743,4.743,0,0,0-.336.723c-.095.281-.1.277-.4.231a3.682,3.682,0,0,0-1.764.109,2.81,2.81,0,0,0-1.458.973,2.043,2.043,0,0,0,.232,2.619,3.892,3.892,0,0,0,1.682,1.107,12.742,12.742,0,0,0,4.909.565c1.07-.054,2.132-.188,3.2-.31,1.265-.145,2.529-.3,3.794-.444.994-.116,1.986-.244,2.982-.338a3,3,0,0,1,1.572.244h0l.02.01.026.013.207.1-.006.011s.239.113.6.266l.294.131.105.032a6,6,0,0,0,2.949.621l.023-.009a.6.6,0,0,0,.07-.03l-.007,0a.485.485,0,0,0,.246-.283.5.5,0,0,0-.191-.576,1.453,1.453,0,0,0-.194-.125,7.24,7.24,0,0,0-3.972-.916,5.2,5.2,0,0,1-2.5-.861.216.216,0,0,1,.176-.065c.676-.066,1.351-.14,2.027-.193a14.3,14.3,0,0,1,4.077.148,7.408,7.408,0,0,1,4.913,3.154c.094.142.143.241.008.389a1.149,1.149,0,0,0-.216.473,6.083,6.083,0,0,0-.1,2.785,2.252,2.252,0,0,0,.321.88.549.549,0,0,0,.99,0,1.72,1.72,0,0,0,.221-.5,6.027,6.027,0,0,0,.1-2.765,1.866,1.866,0,0,0-.422-1.01c-.1-.1-.086-.158-.02-.258a7.035,7.035,0,0,1,2.131-2.084,8.855,8.855,0,0,1,4.486-1.271,23.434,23.434,0,0,1,3.082.133c.477.042.955.086,1.43.129.005.061-.035.069-.062.085a12.557,12.557,0,0,1-1.365.69,1.589,1.589,0,0,1-.656.118,10.356,10.356,0,0,0-2.091.148,5.62,5.62,0,0,0-2.347.9c-.2.144-.4.306-.3.585s.345.3.588.316a5.007,5.007,0,0,0,1.612-.229,17.742,17.742,0,0,0,2.521-.967,2.522,2.522,0,0,1,1.308-.226c.938.11,1.875.226,2.813.336,2.2.257,4.391.52,6.593.716a15.4,15.4,0,0,0,4.349-.178,5.484,5.484,0,0,0,2.649-1.181,2.121,2.121,0,0,0,.784-2.245,2.468,2.468,0,0,0-2.139-1.7,11.112,11.112,0,0,0-1.531-.024c-.09,0-.175.015-.225-.1-.12-.274-.252-.542-.395-.845h.276l17.92,0a3.751,3.751,0,0,0,.774-.044.589.589,0,0,0,.469-.345c.113-.277,0-.448-.293-.451m-48.111,7a7.954,7.954,0,0,1-3.344-.919,5.829,5.829,0,0,1,3.344.919m10.614-.016a5.858,5.858,0,0,1,3.282-.908,7.417,7.417,0,0,1-3.282.908M28.973,195.57a2.227,2.227,0,0,1,.977,1.388.324.324,0,0,1-.59.267,2.342,2.342,0,0,1-.385-1.2c-.011-.137,0-.275,0-.451m24.14,7.051a5.442,5.442,0,0,1-.156,1.975c-.039.137-.076.357-.2.36s-.163-.217-.2-.351a4.538,4.538,0,0,1-.181-1.419,4.852,4.852,0,0,1,.158-1.359.867.867,0,0,1,.036-.12c.053-.117.066-.312.194-.314.1,0,.132.19.174.306a3.59,3.59,0,0,1,.179.923m23.761-7.077c.016-.147.056-.238.226-.267a3.378,3.378,0,0,1,2.11.242,1.624,1.624,0,0,1,.416,2.781,4.639,4.639,0,0,1-2.057,1.038,13.5,13.5,0,0,1-4.211.318c-2.048-.125-4.075-.439-6.11-.683-1.188-.143-2.376-.285-3.578-.389.02-.067.076-.076.119-.1.389-.191.78-.378,1.166-.573a1.227,1.227,0,0,1,.649-.13q2.1.139,4.191.272a7.292,7.292,0,0,0,2.524-.1,3.823,3.823,0,0,0,1.6-.878.878.878,0,0,0-.121-1.473,3.465,3.465,0,0,0-2.175-.477,12.643,12.643,0,0,0-4.349,1.166c-.589.256-1.169.534-1.752.8a1.247,1.247,0,0,1-.646.126c-1.589-.131-3.17-.384-4.771-.359a10.379,10.379,0,0,0-4.405.983,7.288,7.288,0,0,0-2.813,2.366l-.206.288c-.2-.284-.386-.553-.6-.8a8.18,8.18,0,0,0-4.46-2.584,13.082,13.082,0,0,0-3.615-.19c-1.042.044-2.079.157-3.117.255a2.935,2.935,0,0,1-1.545-.31,21.113,21.113,0,0,0-3.278-1.327,9.232,9.232,0,0,0-3.021-.406,3.316,3.316,0,0,0-1.31.339.956.956,0,0,0-.314,1.6,3.288,3.288,0,0,0,1.78.916,5.417,5.417,0,0,0,1.523.119c1.223-.057,2.448-.094,3.669-.2a11.527,11.527,0,0,1,1.3-.084,2.635,2.635,0,0,1,1.372.4c.175.11.359.207.594.342-.443.054-.827.1-1.211.148-1.25.149-2.5.308-3.751.443a56.822,56.822,0,0,1-5.66.536,11.117,11.117,0,0,1-4-.6,3.818,3.818,0,0,1-1.342-.841,1.575,1.575,0,0,1,.156-2.547,2.635,2.635,0,0,1,2.053-.455c.626.088.542-.057.61.672a2.841,2.841,0,0,0,.524,1.651.734.734,0,0,0,.847.3.756.756,0,0,0,.551-.737,2.387,2.387,0,0,0-.841-1.7,1.973,1.973,0,0,0-.459-.329.171.171,0,0,1-.094-.239,3.756,3.756,0,0,1,.384-.835.384.384,0,0,1,.374-.2q6.607.008,13.214.006l14.979,0q8.792,0,17.584,0a.381.381,0,0,1,.373.2,3.8,3.8,0,0,1,.355.757.256.256,0,0,1-.133.356,2.6,2.6,0,0,0-1.207,1.623.837.837,0,0,0,.475,1.079.733.733,0,0,0,.839-.2,1.767,1.767,0,0,0,.466-1.033c.046-.354.094-.707.132-1.062M66.133,197.35c.7-.329,1.35-.62,2.015-.886a11.089,11.089,0,0,1,2.63-.759,5.73,5.73,0,0,1,2.431.142c.047.014.094.028.139.046.48.192.563.569.184.925a2.809,2.809,0,0,1-1.579.715,10.454,10.454,0,0,1-1.762.032,37.151,37.151,0,0,1-4.058-.216m-34.188-1.433a3.151,3.151,0,0,1,1.548-.3,10.636,10.636,0,0,1,3.894.911c.605.252,1.208.511,1.847.822a28.9,28.9,0,0,1-4.472.21l-.113,0c-.262,0-.5-.011-.725-.033-.053,0-.105-.006-.158-.006a2.926,2.926,0,0,1-1.217-.3,2.484,2.484,0,0,1-.764-.424h0a.529.529,0,0,1,.16-.883m44.465-.329a3.2,3.2,0,0,1-.3,1.479.5.5,0,0,1-.3.266.266.266,0,0,1-.378-.264,1.955,1.955,0,0,1,.976-1.481" transform="translate(-5.234 -116.972)" fill="#505257"/>
    <path id="Trazado_2" data-name="Trazado 2" d="M97.581,80.949,97.436,81a1.774,1.774,0,0,1-.827.171c-.446,0-.531-.12-.374-.528a1.217,1.217,0,0,1,.466-.515c.046-.034.114-.111.162-.03.339.575.619.143.909-.051.054-.036.091-.1.183-.076.163.433-.1.709-.374.98" transform="translate(-58.309 -48.487)" fill="#505257"/>
    <path id="Trazado_3" data-name="Trazado 3" d="M113.291,86.9c-.247.341-.483.691-.744,1.021a1.306,1.306,0,0,1-1.525.566,4.77,4.77,0,0,1,.717-1.091,5.4,5.4,0,0,0,1.1-3.445c.015-.721-.522-1.27-.761-1.917-.2-.532-.174-.891.361-1.135a4.2,4.2,0,0,1,1.569-.252,2.776,2.776,0,0,0,1.3-.29c-.179-.385-1-.35-.663-1.075a4.092,4.092,0,0,1-2.081.3c-.137-.032-.4.026-.4-.192,0-.184.194-.311.392-.325a5.053,5.053,0,0,0,2.682-1.4,4.368,4.368,0,0,1,2-.9,2.148,2.148,0,0,0-1.958.309c-.966.638-1.975,1.2-3,1.743a1.862,1.862,0,0,1-1.312.215,1.541,1.541,0,0,0-1.708.5,6.85,6.85,0,0,1-1.174.9c-.108.087-.321.1-.29.32l.016-.01c-.222-.087-.274.084-.346.227l.007-.013a1.517,1.517,0,0,0-.77.819,1.245,1.245,0,0,1-.821.675,8.775,8.775,0,0,0-2.926,1.6c-.435.32-.9.6-1.351.908.17.22.259.041.349-.006,1.025-.538,2.035-1.1,3.01-1.729a.871.871,0,0,1,1.2.035c.355.348.3.737-.167.889-.7.224-1.407.4-2.083.688-.178.076-.3.125-.321.366a1.144,1.144,0,0,1-1.179,1.191c-.237.029-.478.028-.716.048-.211.018-.434-.073-.67.078.265.24.567.095.829.151s.751-.212.658.418c-.015.1.1.085.163.092.833.088,1.69.328,2.413-.336.183-.168.309-.02.437.044.77.389,1.54.777,2.294,1.2a1.192,1.192,0,0,0,.946.14,2.361,2.361,0,0,1,.656-.058c1.238.028,1.291.024,1.117,1.465a1.976,1.976,0,0,1-.522,1.022,1.806,1.806,0,0,0-.444,1.47A9.886,9.886,0,0,0,110.7,96.4a3.64,3.64,0,0,0,2.411,1.7c.627.135.824.622,1.232,1.138a5.1,5.1,0,0,1-3.566-1.056.591.591,0,0,0-.489-.186c-.2.018-.364-.027-.389-.279a.374.374,0,0,0-.112-.242,7.96,7.96,0,0,1-1.821-2.732c-.307-.611.073-.913.1-1.354.009-.153.163-.42-.011-.433-.625-.047-.248-.377-.194-.593a4.323,4.323,0,0,0,.188-.912c.012-.365.011-.679-.581-.5.193-.435.37-.788.509-1.156a.565.565,0,0,0-.407-.84,15.414,15.414,0,0,0-3.1-.456,5.982,5.982,0,0,1-1.769-.374,2.873,2.873,0,0,0-1.436-.3.585.585,0,0,1-.632-.246,1.667,1.667,0,0,0-.955-.777.588.588,0,0,1-.33-.859,2.4,2.4,0,0,1,.872-1.046,24.612,24.612,0,0,1,3.683-2.6,5.706,5.706,0,0,0,1.86-1.626,1.073,1.073,0,0,1,.626-.4,4.555,4.555,0,0,0,2.333-1.485c.473-.548.366-1.127-.328-1.24a5.2,5.2,0,0,1-2.983-1.936,3.99,3.99,0,0,1-1.038-2.887c.362.1.456.383.611.624a6.823,6.823,0,0,0,3.076,2.594,1.852,1.852,0,0,0,2.178-.449,9.651,9.651,0,0,0,2.346-2.8,1.691,1.691,0,0,0,.213-.829,8.5,8.5,0,0,1,.225-3.172,3.073,3.073,0,0,1,1.87-2.174,18.338,18.338,0,0,1-.466,2.225,5.662,5.662,0,0,0-.1,1.04c.007.816.379,1.055,1.18.83a4.7,4.7,0,0,0,2.456-1.76c.083-.107.1-.168.017-.272a1.827,1.827,0,0,1-.2-.329c-.118-.255-.253-.57.02-.753s.467.1.638.287c.4.439.518.427.769-.124a4.287,4.287,0,0,0,.325-1.609c.027-.589.043-1.177.116-1.764a3.386,3.386,0,0,1,1.552-1.9c.325-.093.42.115.47.381a3.16,3.16,0,0,1-.27,1.392c-.144.569-.046.7.532.63a3.937,3.937,0,0,0,1.995-.994,4.721,4.721,0,0,1,1.743-1.02c.376-.1.4.06.408.346a1.038,1.038,0,0,1-.439.792,6.509,6.509,0,0,0-.687.635.532.532,0,0,0,.385.915c.4.036.811,0,1.216.018.267.01.293-.15.3-.352q.047-1.131.1-2.261c.007-.141-.038-.322.128-.393s.281.057.393.145a2.018,2.018,0,0,1,.69,1.283c.125.648.222,1.3.337,1.991a2.158,2.158,0,0,0,1.087-.89,5.524,5.524,0,0,1,1.26-1.521c.2-.13.422-.352.642-.228.193.109.2.4.218.642a4.228,4.228,0,0,1-1.177,3.273c-.122.135-.248.266-.371.4a1.01,1.01,0,0,0,1.5-.012,2.735,2.735,0,0,0,.928-1.343c.158-.544.577-.289.87-.289s.253.311.239.522a1.873,1.873,0,0,1-.52,1.133,20.558,20.558,0,0,1-3.022,2.907c-.118.089-.376.131-.3.329.047.12.253.208.4.252a1.887,1.887,0,0,0,.985.02c.514-.132.637.19.671.544a.571.571,0,0,1-.6.692,3.384,3.384,0,0,1-.5-.017,1.512,1.512,0,0,0-1.878,1.374,6.63,6.63,0,0,0-.124,1.316.469.469,0,0,1-.481.537c-.331.031-.464-.13-.516-.429-.1-.559-.191-1.12-.316-1.673a1.286,1.286,0,0,0-2.107-.912c-.7.4-.8.637-.671,1.452.112.679.015.763-.641.6a4.987,4.987,0,0,1-1.195-.555,2.731,2.731,0,0,0-2.123-.281,2.687,2.687,0,0,1-1.035.139,2.315,2.315,0,0,0-1.414.363,4.318,4.318,0,0,1-1.658.545,4.151,4.151,0,0,0-1.264.355,21.366,21.366,0,0,0-3.15,1.632,1.378,1.378,0,0,0-.641,1.593,1.455,1.455,0,0,1,.879-.739c.9-.408,1.769-.884,2.671-1.289a5.3,5.3,0,0,1,2.756-.346c.241.025.49.12.482.361-.015.412.244.4.511.459a10.923,10.923,0,0,1,1.16.327c.611.212.813.607.358,1.03-1.088,1.01-1.9,2.382-3.461,2.819-.669.187-1.323.428-1.985.64-.291.093-.487.189-.29.568a2.668,2.668,0,0,1,.2.849,5.976,5.976,0,0,0,.547,2.006,2.5,2.5,0,0,1,.3.882,5.149,5.149,0,0,0,1.23,2.659,2.481,2.481,0,0,0,1.374.953,2.617,2.617,0,0,1,.656.277,3.609,3.609,0,0,0,1.725.574,2.882,2.882,0,0,1-2.41.369,2.657,2.657,0,0,1-2.064-1.3.731.731,0,0,0-.444-.4,2.448,2.448,0,0,1-1.5-1.443c-.1-.194-.167-.445-.524-.269-.326.162-.3-.2-.39-.373.06-.1.107-.2.01-.309l-.1.227m3.68-16.247a4.694,4.694,0,0,1-2.5.714.726.726,0,0,0-.711.392,25.819,25.819,0,0,0-1.261,2.462c.341-.092.6-.158.862-.232,1.092-.311,2.239-.387,3.312-.775a2.652,2.652,0,0,0,1.809-1.636c.051-.154.146-.341.016-.453-.1-.084-.272.009-.411.06a9.9,9.9,0,0,0-1.792,1.066,2.651,2.651,0,0,1-2.543.436l3.314-1.939c.341-.169.679-.344,1.023-.506.587-.275.589-.271.262-.89a11.555,11.555,0,0,1-1.382,1.3m2.916,1.694c.666-.2,1.267-.37,1.854-.574a6.609,6.609,0,0,0,2.734-1.7c.143-.154.321-.293-.07-.4-1.137-.3-1.216-.455-.86-1.562.133-.414-.423-.433-.422-.775,0-.076-.023-.229-.191-.213-.134.013-.265.024-.3.187-.1.517-.544.452-.86.433-.4-.023-.332-.408-.337-.7a1.57,1.57,0,0,0-.033-.438c-.06-.19-.043-.285.158-.381a17.248,17.248,0,0,1,1.8-.812c.4-.14.582.006.7.361a5.611,5.611,0,0,1,.136,1.3,6.569,6.569,0,0,1,2.329-.822c.129,0,.185-.115.17-.239s-.137-.093-.216-.1a3.608,3.608,0,0,0-1.091.1c-.862.157-.892.128-1.085-.74s-.352-.955-1.163-.55a10.486,10.486,0,0,0-1.022.649c-.307.2-.6.418-.919.607-.118.071-.261.209-.4.122-.17-.1-.073-.3-.069-.453a11,11,0,0,0,.136-1.425c-.018-.166-.05-.353-.213-.4-.142-.039-.181.156-.245.257A3.007,3.007,0,0,0,119.9,66.4a2.257,2.257,0,0,1-.538,1.931.72.72,0,0,0-.118.75c.194.67.453,1.178,1.257,1.135a.363.363,0,0,1,.161.035c.289.127.7.29.639.593-.06.324-.479.159-.755.174-.15.008-.431-.164-.442.13a10.728,10.728,0,0,0-.218,1.2m11.11-7.5c-.668.9-1.305,1.773-1.954,2.635a1.516,1.516,0,0,1-.638.592c-.222.083-.4.041-.311-.238a6.413,6.413,0,0,0,.124-1.15,2.819,2.819,0,0,0-.611-2.29c-.037.25-.072.485-.108.719a13.9,13.9,0,0,1-1.107,3.951,6.191,6.191,0,0,1-4.611,3.628,24.54,24.54,0,0,0-3.073.61,2.565,2.565,0,0,0,.905-.018,9.99,9.99,0,0,1,2.912-.144,1.8,1.8,0,0,0,1.337-.3c1.423-.916,2.829-1.808,3.288-3.6.063-.246.225-.538.494-.526.226.01.379.292.435.523.12.5.331.533.671.186.033-.033.1-.036.155-.055.046.149.091.289.133.429.176.579.342.629.778.257a4.353,4.353,0,0,1,.538-.383,1.444,1.444,0,0,0,.651-.649c.159-.392.018-.559-.4-.5-.311.044-.5.272-.738.432-.392.26-.517-.311-.831-.393-.106-.028-.339-.1-.252-.331.017-.045.079-.075.12-.111a11.337,11.337,0,0,0,1.91-2.415.842.842,0,0,0,.177-.862M118.133,79.254a1.137,1.137,0,0,0-.624-.039c-.221,0-.458.107-.582-.228-.185-.5.283-.614.487-.866.225-.278.245.108.355.181a.313.313,0,0,0,.4.012c.234-.156.472-.307.72-.466.294.531-.187.7-.5,1.076a1.569,1.569,0,0,0,1.048-.788c.145-.21.128-.307-.163-.415a6,6,0,0,0-2.3-.055.378.378,0,0,0-.274.157,13.5,13.5,0,0,0-.922,1.5.542.542,0,0,0,.1.689.549.549,0,0,0,.7.1c.494-.273.99-.544,1.555-.853m5.932-10.583c-.22.358.127.463.378.5s.535.368.766.01a11.179,11.179,0,0,0,1.047-1.988c.051-.131.122-.265-.14-.3a1.988,1.988,0,0,0-2.052,1.775M101.523,85.1l.037.069c.011-.012.034-.026.032-.036a.337.337,0,0,0-.033-.072l-.036.039" transform="translate(-60.196 -37.821)" fill="#505257"/>
    <path id="Trazado_4" data-name="Trazado 4" d="M68.182,76.517a3.531,3.531,0,0,1-3-1.052,7.065,7.065,0,0,1-1.871-2.393c.016-.27.171-.161.288-.1a6.591,6.591,0,0,1,1.537,1.243c.113.117.192.276.372.313a12.7,12.7,0,0,1,2.309,1,.623.623,0,0,1,.366.981" transform="translate(-38.388 -44.202)" fill="#505257"/>
    <path id="Trazado_5" data-name="Trazado 5" d="M60.555,58.807c-1.016,1.356-2.749,1.658-3.975,2.7-.139.119-.3.215-.447.321l-.281.193-.433.238a.532.532,0,0,0-.428.454l.519-.325a.863.863,0,0,0,.422-.247.593.593,0,0,0,.359-.193c.808-.433,1.629-.844,2.419-1.308a.732.732,0,0,1,.973.181c.261.248.318.526-.106.732a17.016,17.016,0,0,1-1.975.668c-.294.1-.486.175-.509.572a1.186,1.186,0,0,1-1.173,1.1,8.231,8.231,0,0,1-1.556.006c.364.371.71.191,1.018.232.278.037.688-.106.593.437-.022.126.08.093.134.093.5,0,.978.176,1.481.137a.812.812,0,0,0,.6-.228.8.8,0,0,1,1.133-.107c.316.188.616.4.931.593a4.3,4.3,0,0,0,2.8.633c.949-.108,1.2.295,1,1.262a3.567,3.567,0,0,1-.813,1.545,1,1,0,0,0-.218.808,14.681,14.681,0,0,0,.626,3.51,3.981,3.981,0,0,0,3.1,2.812,3.256,3.256,0,0,1,1.631,2.614,2.146,2.146,0,0,0,.492,1.688,3.069,3.069,0,0,1,.594,1.11,6.805,6.805,0,0,0,.984,2.135,1.614,1.614,0,0,1,.273.756,2.764,2.764,0,0,1-1.126-.865,14.553,14.553,0,0,0-1.365-1.443.89.89,0,0,1-.255-.534c-.078-.3-.162-.6-.215-.906a4.908,4.908,0,0,0-2.58-3.85c-.539-.274-.875-.927-1.607-.849-.137.015-.151-.141-.193-.237A2.382,2.382,0,0,0,63.307,75c-.792.112-.618-.677-.915-1.013a5.281,5.281,0,0,1-1.009-1.856,1.388,1.388,0,0,1,.061-.923c.06-.31.4-.681-.2-.862-.128-.039,0-.226.043-.341a4.845,4.845,0,0,0,.279-1.608c-.189-.165-.431.192-.543-.042-.093-.194.128-.364.211-.544a3.737,3.737,0,0,0,.21-.447c.168-.557.063-.747-.5-.936a13.9,13.9,0,0,0-2.882-.425c-.767-.089-1.5-.343-2.245-.48a5.75,5.75,0,0,1-2.56-1.163c-.513-.394-.638-.446-.341-1.025a4.175,4.175,0,0,1,1.432-1.506c1.092-.748,2.2-1.477,3.3-2.213.015-.01.033-.017.047-.028a11.675,11.675,0,0,1,3.543-2.462c.21-.067.368-.3.549-.451.093-.085.192-.164.276-.257.651-.732.524-1.263-.422-1.461a4.267,4.267,0,0,1-2.165-1.222,6.948,6.948,0,0,1-1.522-2.13c-.051-.438-.1-.876-.156-1.35.412-.008.489.31.629.539A6.41,6.41,0,0,0,61.4,53.4a1.794,1.794,0,0,0,2.491-.584,5.065,5.065,0,0,1,1.277-1.2,1.324,1.324,0,0,0,.464-.6,4.008,4.008,0,0,0,.61-2.624,4.858,4.858,0,0,1,.492-2.841,2.686,2.686,0,0,1,1.573-1.458,13.494,13.494,0,0,1-.387,2.038,3.151,3.151,0,0,0-.072,1.576c.2.535.593.757,1.066.468.76-.465,1.676-.681,2.236-1.483.176-.253.358-.383.111-.667a.7.7,0,0,1-.166-.343c-.03-.213-.112-.492.093-.621.235-.147.4.1.522.264.305.422.509.289.705-.088a3.383,3.383,0,0,0,.316-1.44c.02-.442,0-.885.01-1.327a2.52,2.52,0,0,1,1.247-2.256c.145-.087.346-.124.409-.322h.332a1.393,1.393,0,0,1,.01,1.358c-.106.325-.355.749-.111.987.283.276.745.069,1.1-.059a5.429,5.429,0,0,0,1.443-.9,4.8,4.8,0,0,1,1.764-.986c.272-.068.313.01.337.246a1.156,1.156,0,0,1-.557,1.013c-.335.291-.86.512-.665,1.078s.751.377,1.153.348c.347-.026.783.3,1.005-.035a2.172,2.172,0,0,0,.117-1.026c.022-.533.023-1.068.036-1.6a1.888,1.888,0,0,1,.036-.235,1.374,1.374,0,0,1,1.064,1.075,8.925,8.925,0,0,1,.335,2c.037.367.161.34.409.2a3.292,3.292,0,0,0,1.061-1.175,3.157,3.157,0,0,1,1.174-1.214c.359-.178.543-.165.623.3A4.353,4.353,0,0,1,83.915,44.8c-.118.15-.427.27-.309.461a.7.7,0,0,0,.709.21A2.1,2.1,0,0,0,85.878,44a.738.738,0,0,1,.574-.519c.527-.135.627.088.605.507a2.431,2.431,0,0,1-.73,1.506,20.643,20.643,0,0,1-2.787,2.593c-.122.093-.345.162-.3.345.053.2.282.211.463.224a10.01,10.01,0,0,0,1.046.047c.415-.013.547.251.573.574.029.366-.176.565-.553.621a3.063,3.063,0,0,1-.712-.024,1.443,1.443,0,0,0-1.687,1.22,11.7,11.7,0,0,0-.221,1.636c-.02.339-.222.39-.459.426-.263.04-.394-.086-.45-.358a18.237,18.237,0,0,0-.434-1.815c-.41-1.3-1.4-1.536-2.378-.6a.958.958,0,0,0-.35,1.168c.232.625.012.793-.64.624a1.65,1.65,0,0,1-.649-.287,3.655,3.655,0,0,0-2.725-.585,5.938,5.938,0,0,0-2.835.775,7.82,7.82,0,0,1-2.323.628,4.217,4.217,0,0,0-1.443.648A15.245,15.245,0,0,0,65.62,54.37c-.464.422-.859.84-.717,1.441,1.662-.734,3.127-1.865,4.979-2.145a4.343,4.343,0,0,1,1.319,0c.334.051.622.124.644.53.007.144.079.178.206.193a10.827,10.827,0,0,1,1.517.466c.495.135.479.42.342.78a1.512,1.512,0,0,1-.407.583c-.587.531-1.175,1.061-1.747,1.608a4.707,4.707,0,0,1-2.016,1.08c-.193.055-.393.089-.588.14-1.17.307-1.133.3-.928,1.471a20.681,20.681,0,0,0,1.19,4.112,6.405,6.405,0,0,0,1.064,1.794,1.7,1.7,0,0,0,.815.64c.959.215,1.686,1,2.772,1a2.041,2.041,0,0,1-1.643.465,3.143,3.143,0,0,1-2.782-1.374.723.723,0,0,0-.44-.4,2.271,2.271,0,0,1-1.418-1.293c-.168-.287-.295-.571-.751-.435-.363.108-.231-.268-.306-.46-.7.613-.922,1.889-2.272,1.617a5.53,5.53,0,0,1,.885-1.439,4.619,4.619,0,0,0,.842-3.286,3.039,3.039,0,0,0-.8-1.828.5.5,0,0,1,.055-.779,1.413,1.413,0,0,1,1.147-.433,4.267,4.267,0,0,0,2.107-.455c-.363-.277-.887-.4-.711-1.008a4.289,4.289,0,0,1-2.043.3c-.139-.025-.384.1-.381-.175a.389.389,0,0,1,.367-.359,3.321,3.321,0,0,0,.915-.177,5.52,5.52,0,0,0,1.249-.8,4.744,4.744,0,0,1,2.477-1.263,1.68,1.68,0,0,0-1.713.169c-.677.407-1.332.851-2.009,1.258a4.93,4.93,0,0,1-3.22.683.752.752,0,0,0-.765.294,6.879,6.879,0,0,1-1.425,1.125,2.476,2.476,0,0,0-.889.791Zm13.421-15.16a3.341,3.341,0,0,1,.051-1.041,2.147,2.147,0,0,0,.018-1.093c-.048-.159-.158-.347-.325-.074a3.26,3.26,0,0,0-.6,2.452,1.374,1.374,0,0,1-.14,1.209,1.96,1.96,0,0,0-.057,2.308c.191.392.316.771.83.83a.932.932,0,0,1,.424.238c.107.088.236.211.16.372a.28.28,0,0,1-.346.106c-.566-.148-.591.273-.686.628-.065.244.044.294.257.244A8.808,8.808,0,0,0,77.385,48.1c.127-.107.322-.188.3-.414-1.257-.251-1.367-.425-1.081-1.658.018-.079.129-.268-.028-.259-.357.019-.257-.3-.379-.441-.089-.105-.1-.283-.31-.25-.17.027-.206.112-.265.274-.137.372-.524.355-.832.341s-.273-.325-.324-.553a1.033,1.033,0,0,1,.848-1.343c.349-.108.679-.276,1.023-.4.511-.186.749-.039.813.513.032.273,0,.554.028.828.028.253.106.409.407.179a2.892,2.892,0,0,1,2-.648c.413.028.411-.3.452-.55.05-.31-.2-.292-.4-.3a4.606,4.606,0,0,0-.875.067c-1.133.148-.929.244-1.246-.812a.588.588,0,0,1-.013-.165c0-.37-.211-.454-.544-.429a2.58,2.58,0,0,0-1.337.6,5.085,5.085,0,0,1-1.64.968m-1.308,6.938a1.825,1.825,0,0,0,.306.051,10.285,10.285,0,0,1,3.459.031c.159.041.238-.068.335-.144,1.455-1.145,3.2-2.011,3.668-4.072.106-.466.471-.453.736-.02.138.226.235.479.361.743.344-.338.61-.577.746.137.085.452.335.472.719.166a6.1,6.1,0,0,1,.543-.377,1.556,1.556,0,0,0,.633-.6c.194-.395.069-.537-.356-.561-.461-.026-.624.26-.748.639-.359-.269-.671-.494-.97-.733-.1-.078-.214-.122-.017-.31A8.284,8.284,0,0,0,84.151,42.8a.7.7,0,0,0,.059-.557,2.34,2.34,0,0,0-.75,1,21.973,21.973,0,0,1-1.616,2.088.381.381,0,0,1-.485.166c-.182-.088-.03-.257-.019-.391a10.88,10.88,0,0,0,.092-1.208,3.139,3.139,0,0,0-.581-2.143c-.28.979-.382,1.949-.6,2.893-.592,2.591-1.9,4.542-4.661,5.225-.934.231-1.882.412-2.924.708m-6.655.994a1.546,1.546,0,0,0,.941-.076,14.476,14.476,0,0,0,3.507-.879A2.413,2.413,0,0,0,71.9,48.97a2.32,2.32,0,0,0-1.357.442c-.635.368-1.24.79-1.887,1.135a2,2,0,0,1-1.922.056,18.72,18.72,0,0,0,2.223-1.242,9.345,9.345,0,0,1,2.6-1.29c.45-.114.479-.346.387-.694A.588.588,0,0,0,71.764,47c-.187.043-.257.208-.372.321a4.45,4.45,0,0,1-3.306,1.513.975.975,0,0,0-.964.561c-.422.706-.64,1.512-1.109,2.184m5.517,3.683c-.433.066-1.042-.067-1.471.416a6.087,6.087,0,0,0-.837,1.284c-.127.246-.171.467.08.674a.594.594,0,0,0,.8.1c.62-.494,1.363-.785,2-1.244.329-.239.855-.524.706-.938-.123-.342-.7-.29-1.1-.287h-.171M79.641,44.73a4.818,4.818,0,0,1-.9.212,1.656,1.656,0,0,0-1.6,1.387c-.08.247-.319.54.09.681.372.129.757.537,1.168.012a9.3,9.3,0,0,0,1.242-2.292" transform="translate(-31.987 -24.184)" fill="#505257"/>
    <path id="Trazado_6" data-name="Trazado 6" d="M72.064,87.6c.083.163.175.074.256,0a1.5,1.5,0,0,1,1.209-.217.639.639,0,0,1,.548.544.567.567,0,0,1-.266.662,2.656,2.656,0,0,1-1.856.3c-.277-.037-.2-.224-.176-.414.038-.318.449-.506.3-.882l-.011.007" transform="translate(-43.507 -52.968)" fill="#505257"/>
    <path id="Trazado_7" data-name="Trazado 7" d="M120.091,108.863a8.583,8.583,0,0,1,1.02-.124.763.763,0,0,1,.742.617c.095.363-.169.569-.46.723a2.412,2.412,0,0,1-1.338.209c-.434-.03-.62-.192-.43-.668.065-.162.348-.311.144-.553l-.007.013c.218.082.286-.066.346-.226Z" transform="translate(-72.49 -65.933)" fill="#505257"/>
    <path id="Trazado_8" data-name="Trazado 8" d="M104.984,120.048l.036-.039a.338.338,0,0,1,.033.072c0,.009-.021.024-.032.036l-.037-.069" transform="translate(-63.658 -72.768)" fill="#505257"/>
    <path id="Trazado_9" data-name="Trazado 9" d="M5.988,166.961h.4v2.145h-.3a5.3,5.3,0,0,0-.5-.835,3.219,3.219,0,0,0-.564-.6,2.188,2.188,0,0,0-.626-.358,2.05,2.05,0,0,0-.7-.119,1.9,1.9,0,0,0-.924.225,2.058,2.058,0,0,0-.709.644,3.258,3.258,0,0,0-.457,1.019,4.864,4.864,0,0,0-.164,1.283,4.211,4.211,0,0,0,.323,1.695,2.711,2.711,0,0,0,.9,1.155,2.209,2.209,0,0,0,1.317.414,2.642,2.642,0,0,0,.877-.148,2.809,2.809,0,0,0,.809-.45,3.837,3.837,0,0,0,.718-.753l.289.16a3.672,3.672,0,0,1-1.325,1.189,3.817,3.817,0,0,1-1.779.4,3.761,3.761,0,0,1-1.442-.271,3.363,3.363,0,0,1-1.875-1.888A3.648,3.648,0,0,1,0,170.5a3.691,3.691,0,0,1,.279-1.44,3.414,3.414,0,0,1,1.909-1.884,3.668,3.668,0,0,1,1.376-.259,3.018,3.018,0,0,1,.511.041c.158.028.346.07.564.128s.366.1.442.114a1.187,1.187,0,0,0,.266.027.839.839,0,0,0,.64-.271m-3.416.213a4.388,4.388,0,0,0-1.242.683,3.014,3.014,0,0,0-.494.523,3.356,3.356,0,0,0-.364.62,3.449,3.449,0,0,0-.23.709,3.565,3.565,0,0,0-.081.743,3.609,3.609,0,0,0,.362,1.61,3.122,3.122,0,0,0,1.08,1.225,3.746,3.746,0,0,0,1.711.6,4.326,4.326,0,0,1-1.185-.5,3.574,3.574,0,0,1-.909-.789,3.3,3.3,0,0,1-.562-1,3.393,3.393,0,0,1-.188-1.126,3.51,3.51,0,0,1,.161-1.017,3.306,3.306,0,0,1,.45-.944,3.905,3.905,0,0,1,.677-.755,7.833,7.833,0,0,1,.814-.581M5.8,168.181l-.029-.823a1.186,1.186,0,0,1-.484.1,1.285,1.285,0,0,1-.229-.019,3.312,3.312,0,0,1,.415.366q.166.177.328.375" transform="translate(0 -101.214)" fill="#505257"/>
    <path id="Trazado_10" data-name="Trazado 10" d="M18.345,173.161a3.111,3.111,0,0,1,.068-.661,2.815,2.815,0,0,1,.2-.6,2.563,2.563,0,0,1,.334-.529,2.777,2.777,0,0,1,.442-.437,2.574,2.574,0,0,1,.563-.336,2.794,2.794,0,0,1,.653-.191,4.47,4.47,0,0,1,.754-.06,3.34,3.34,0,0,1,1.234.22,2.767,2.767,0,0,1,.95.611,2.71,2.71,0,0,1,.6.9,2.87,2.87,0,0,1-.022,2.2,2.705,2.705,0,0,1-.655.912,3.037,3.037,0,0,1-1,.6,3.46,3.46,0,0,1-1.23.215,3.149,3.149,0,0,1-1.158-.211,2.728,2.728,0,0,1-.926-.589,2.621,2.621,0,0,1-.6-.909,3.036,3.036,0,0,1-.213-1.144m1.491-2.381a2.714,2.714,0,0,0-1.013,1.007,2.76,2.76,0,0,0-.346,1.382,2.94,2.94,0,0,0,.225,1.165,2.441,2.441,0,0,0,.664.9,3.046,3.046,0,0,0,1.085.582,3.2,3.2,0,0,1-1.254-1.063,2.851,2.851,0,0,1-.466-1.658,2.973,2.973,0,0,1,.123-.885,2.629,2.629,0,0,1,.37-.744,4.47,4.47,0,0,1,.613-.69m-.378,1.971a4.978,4.978,0,0,0,.145,1.237,3.173,3.173,0,0,0,.414.972,1.935,1.935,0,0,0,.637.622,1.546,1.546,0,0,0,.794.215,1.62,1.62,0,0,0,.685-.149,1.6,1.6,0,0,0,.569-.446,2.125,2.125,0,0,0,.38-.737,3.477,3.477,0,0,0,.135-1.018,4.241,4.241,0,0,0-.155-1.173,2.891,2.891,0,0,0-.43-.916,2,2,0,0,0-.649-.584,1.636,1.636,0,0,0-.8-.207,1.579,1.579,0,0,0-.691.154,1.547,1.547,0,0,0-.549.443,2.138,2.138,0,0,0-.353.69,2.982,2.982,0,0,0-.127.9m2.476-2.13a2.313,2.313,0,0,1,.774.64,2.8,2.8,0,0,1,.48.976,4.58,4.58,0,0,1,.161,1.249,3.109,3.109,0,0,1-.183,1.119,2.616,2.616,0,0,1-.517.837,2.253,2.253,0,0,0,.545-.543,2.147,2.147,0,0,0,.312-.688,3.441,3.441,0,0,0,.1-.868,3.9,3.9,0,0,0-.2-1.271,2.473,2.473,0,0,0-.579-.961,1.747,1.747,0,0,0-.894-.489" transform="translate(-11.124 -103.293)" fill="#505257"/>
    <path id="Trazado_11" data-name="Trazado 11" d="M38.089,171.018v-.211h2.048v.211a.974.974,0,0,0-.45.115.762.762,0,0,0-.3.312,1.019,1.019,0,0,0-.111.492l.073,4.39h-.237l-3.912-4.57.057,3.074a3,3,0,0,0,.046.484.9.9,0,0,0,.138.343.669.669,0,0,0,.285.229,1.5,1.5,0,0,0,.48.111v.211H34.17V176a.939.939,0,0,0,.591-.215.793.793,0,0,0,.239-.457,3.471,3.471,0,0,0,.031-.687l-.054-3.135a1.991,1.991,0,0,0-.425-.362.818.818,0,0,0-.428-.124h-.046v-.211h1.58l3.449,4.023-.054-2.691a1.9,1.9,0,0,0-.063-.526.736.736,0,0,0-.213-.35.815.815,0,0,0-.308-.178,1.079,1.079,0,0,0-.381-.067m.739,4.382-3.449-4.023a1.351,1.351,0,0,0-.255-.249.678.678,0,0,0-.415-.111h-.172a.981.981,0,0,1,.333.185,4.257,4.257,0,0,1,.333.366l3.931,4.578q0-.111-.009-.216a.586.586,0,0,0-.025-.157.622.622,0,0,0-.073-.128q-.054-.076-.2-.245m-4.188.6h.808a1.017,1.017,0,0,1-.239-.241,1.065,1.065,0,0,1-.12-.31.875.875,0,0,1-.153.312.964.964,0,0,1-.295.239m4.788-4.98h-.838a.835.835,0,0,1,.312.18.919.919,0,0,1,.2.314.8.8,0,0,1,.322-.494" transform="translate(-20.663 -103.57)" fill="#505257"/>
    <path id="Trazado_12" data-name="Trazado 12" d="M54.348,176.209H51.211V176a2.179,2.179,0,0,0,.5-.059.365.365,0,0,0,.235-.178.837.837,0,0,0,.069-.383v-3.851a.392.392,0,0,0-.19-.383,1.635,1.635,0,0,0-.613-.126v-.211h3.268a3.285,3.285,0,0,1,1.173.2,2.693,2.693,0,0,1,.922.572,2.546,2.546,0,0,1,.6.875,2.81,2.81,0,0,1,.21,1.087,2.59,2.59,0,0,1-.216,1.059,2.451,2.451,0,0,1-.619.848,2.869,2.869,0,0,1-.968.559,3.657,3.657,0,0,1-1.229.2m-1.943-.808v-3.537a1.66,1.66,0,0,0-.087-.641c-.058-.124-.208-.187-.451-.19a.442.442,0,0,1,.224.209,1.026,1.026,0,0,1,.054.381v3.683a1.924,1.924,0,0,1-.028.371.479.479,0,0,1-.083.2.44.44,0,0,1-.166.119.527.527,0,0,0,.419-.14.7.7,0,0,0,.119-.457m.605-3.277v3.09a1.761,1.761,0,0,0,.048.484.365.365,0,0,0,.226.226,1.618,1.618,0,0,0,.577.074,3.152,3.152,0,0,0,.772-.086,1.986,1.986,0,0,0,.649-.3,2.259,2.259,0,0,0,.57-.546,1.987,1.987,0,0,0,.3-.666,3.46,3.46,0,0,0,.093-.833,2.5,2.5,0,0,0-.827-2.048,2,2,0,0,0-.728-.387,3.437,3.437,0,0,0-.942-.115.964.964,0,0,0-.524.105.428.428,0,0,0-.182.3,5.511,5.511,0,0,0-.03.7M54.859,176a1.852,1.852,0,0,0,.91-.337,1.944,1.944,0,0,0,.639-.815,3.088,3.088,0,0,0,.235-1.264,3.853,3.853,0,0,0-.113-.964,2.5,2.5,0,0,0-.33-.764,1.746,1.746,0,0,0-.531-.522,1.511,1.511,0,0,0-.379-.18,3.714,3.714,0,0,0-.431-.1,2.433,2.433,0,0,1,1.516,2.558,3.182,3.182,0,0,1-.161,1.053,2.042,2.042,0,0,1-.5.794,2.609,2.609,0,0,1-.855.546" transform="translate(-31.052 -103.57)" fill="#505257"/>
    <path id="Trazado_13" data-name="Trazado 13" d="M71.8,174.982l-.446-1.115H69.466l-.263.663a1.385,1.385,0,0,0-.1.527.689.689,0,0,0,.17.46.619.619,0,0,0,.472.211v.215H67.9v-.215q.618-.09,1-1.041l1.379-3.455a.637.637,0,0,0-.227-.248.965.965,0,0,0-.35-.088V170.7l.955-.32h.366l1.845,4.606a1.44,1.44,0,0,0,.318.529,1.091,1.091,0,0,0,.486.209v.215H71.3v-.215a1.764,1.764,0,0,0,.46-.094.238.238,0,0,0,.154-.242,1.057,1.057,0,0,0-.116-.41m-3.474.745h.765a.58.58,0,0,1-.251-.48.79.79,0,0,1,.008-.129,2.336,2.336,0,0,1-.217.331,1.543,1.543,0,0,1-.305.277m1.239-2.11H71.25l-.848-2.1Zm2.6,1.221-1.423-3.529a1.1,1.1,0,0,0-.215-.376.414.414,0,0,0-.307-.111.919.919,0,0,0-.187.016.63.63,0,0,1,.289.207,1.567,1.567,0,0,1,.185.355l1.41,3.529a1.371,1.371,0,0,1,.131.487.246.246,0,0,1-.044.164,1.187,1.187,0,0,1-.175.148h.088a.4.4,0,0,0,.289-.1.307.307,0,0,0,.1-.23,1.74,1.74,0,0,0-.143-.562" transform="translate(-41.169 -103.313)" fill="#505257"/>
    <path id="Trazado_14" data-name="Trazado 14" d="M87.019,176.243H83.854v-.209a2.246,2.246,0,0,0,.5-.059.368.368,0,0,0,.237-.176.822.822,0,0,0,.07-.38V171.6a.387.387,0,0,0-.192-.38,1.667,1.667,0,0,0-.619-.125v-.209h3.3a3.367,3.367,0,0,1,1.183.2,2.723,2.723,0,0,1,.93.568,2.528,2.528,0,0,1,.6.868,2.749,2.749,0,0,1,.211,1.079,2.537,2.537,0,0,1-.218,1.051,2.434,2.434,0,0,1-.625.842,2.9,2.9,0,0,1-.976.555,3.749,3.749,0,0,1-1.239.2m-1.96-.8v-3.51a1.619,1.619,0,0,0-.088-.637q-.088-.184-.455-.188a.44.44,0,0,1,.226.207,1,1,0,0,1,.054.378v3.655a1.864,1.864,0,0,1-.028.368.469.469,0,0,1-.084.2.442.442,0,0,1-.168.118.538.538,0,0,0,.423-.139.691.691,0,0,0,.12-.454m.611-3.252v3.066a1.738,1.738,0,0,0,.048.481.367.367,0,0,0,.228.224,1.661,1.661,0,0,0,.583.074,3.228,3.228,0,0,0,.778-.085,2.018,2.018,0,0,0,.655-.3,2.267,2.267,0,0,0,.575-.541,1.937,1.937,0,0,0,.3-.661,3.364,3.364,0,0,0,.094-.826,2.462,2.462,0,0,0-.834-2.033,2.027,2.027,0,0,0-.735-.384,3.515,3.515,0,0,0-.95-.114.985.985,0,0,0-.529.1.424.424,0,0,0-.183.3,5.338,5.338,0,0,0-.03.694m1.864,3.845a1.893,1.893,0,0,0,.918-.334,1.933,1.933,0,0,0,.644-.809,3.016,3.016,0,0,0,.238-1.254,3.761,3.761,0,0,0-.114-.958,2.458,2.458,0,0,0-.333-.758,1.743,1.743,0,0,0-.535-.519,1.538,1.538,0,0,0-.383-.179,3.754,3.754,0,0,0-.435-.1,2.411,2.411,0,0,1,1.529,2.538A3.117,3.117,0,0,1,88.9,174.7a2.023,2.023,0,0,1-.505.788,2.63,2.63,0,0,1-.862.542" transform="translate(-50.845 -103.615)" fill="#505257"/>
    <path id="Trazado_15" data-name="Trazado 15" d="M101.489,173.281a3.144,3.144,0,0,1,.067-.662,2.842,2.842,0,0,1,.2-.6,2.571,2.571,0,0,1,.33-.53,2.771,2.771,0,0,1,.438-.437,2.547,2.547,0,0,1,.557-.337,2.76,2.76,0,0,1,.646-.192,4.427,4.427,0,0,1,.746-.06,3.274,3.274,0,0,1,1.221.22,2.7,2.7,0,0,1,1.536,1.511,2.9,2.9,0,0,1-.022,2.205,2.713,2.713,0,0,1-.649.913,3.007,3.007,0,0,1-.985.6,3.393,3.393,0,0,1-1.217.215,3.09,3.09,0,0,1-1.146-.211,2.7,2.7,0,0,1-.917-.59,2.623,2.623,0,0,1-.6-.909,3.069,3.069,0,0,1-.211-1.145m1.476-2.384a2.7,2.7,0,0,0-1,1.008,2.787,2.787,0,0,0-.342,1.383,2.975,2.975,0,0,0,.223,1.167,2.448,2.448,0,0,0,.657.905,3.012,3.012,0,0,0,1.074.582,3.175,3.175,0,0,1-1.241-1.064,2.877,2.877,0,0,1-.462-1.66,3.015,3.015,0,0,1,.121-.886,2.672,2.672,0,0,1,.366-.745,4.477,4.477,0,0,1,.607-.69m-.374,1.973a5.023,5.023,0,0,0,.143,1.238,3.2,3.2,0,0,0,.41.973,1.929,1.929,0,0,0,.631.623,1.522,1.522,0,0,0,.786.215,1.568,1.568,0,0,0,1.242-.6,2.137,2.137,0,0,0,.376-.737,3.527,3.527,0,0,0,.133-1.02,4.278,4.278,0,0,0-.154-1.174,2.9,2.9,0,0,0-.426-.917,2,2,0,0,0-.642-.585,1.607,1.607,0,0,0-.8-.207,1.534,1.534,0,0,0-1.228.6,2.155,2.155,0,0,0-.35.69,3.018,3.018,0,0,0-.125.9m2.451-2.132a2.287,2.287,0,0,1,.766.641,2.81,2.81,0,0,1,.476.977,4.634,4.634,0,0,1,.159,1.249,3.133,3.133,0,0,1-.181,1.12,2.618,2.618,0,0,1-.511.838,2.24,2.24,0,0,0,.539-.544,2.147,2.147,0,0,0,.308-.689,3.464,3.464,0,0,0,.1-.868,3.946,3.946,0,0,0-.2-1.273,2.481,2.481,0,0,0-.573-.962,1.729,1.729,0,0,0-.885-.489" transform="translate(-61.538 -103.364)" fill="#505257"/>
    <path id="Trazado_16" data-name="Trazado 16" d="M127.939,174.159H123.91v-.268a2.852,2.852,0,0,0,.64-.076.47.47,0,0,0,.3-.227,1.061,1.061,0,0,0,.089-.488V168.2a.5.5,0,0,0-.244-.488,2.108,2.108,0,0,0-.788-.161v-.268h4.2a4.252,4.252,0,0,1,1.506.259,3.464,3.464,0,0,1,1.184.729,3.253,3.253,0,0,1,.765,1.114,3.552,3.552,0,0,1,.269,1.385,3.275,3.275,0,0,1-.277,1.348,3.123,3.123,0,0,1-.8,1.08,3.688,3.688,0,0,1-1.242.712,4.736,4.736,0,0,1-1.577.253m-2.495-1.029v-4.506a2.1,2.1,0,0,0-.111-.817q-.112-.236-.579-.241a.562.562,0,0,1,.287.266,1.293,1.293,0,0,1,.069.485v4.691a2.451,2.451,0,0,1-.036.473.608.608,0,0,1-.107.258.559.559,0,0,1-.213.151.68.68,0,0,0,.539-.178.892.892,0,0,0,.152-.583m.777-4.174v3.935a2.241,2.241,0,0,0,.061.617.468.468,0,0,0,.29.288,2.091,2.091,0,0,0,.742.095,4.076,4.076,0,0,0,.991-.11,2.551,2.551,0,0,0,.833-.383,2.888,2.888,0,0,0,.732-.695,2.512,2.512,0,0,0,.383-.848,4.366,4.366,0,0,0,.119-1.061,3.172,3.172,0,0,0-1.062-2.609,2.574,2.574,0,0,0-.935-.492,4.451,4.451,0,0,0-1.209-.146,1.246,1.246,0,0,0-.673.134.545.545,0,0,0-.234.385,6.958,6.958,0,0,0-.038.89m2.373,4.934a2.393,2.393,0,0,0,1.168-.429,2.475,2.475,0,0,0,.821-1.038,3.907,3.907,0,0,0,.3-1.609,4.878,4.878,0,0,0-.145-1.229,3.169,3.169,0,0,0-.424-.973,2.237,2.237,0,0,0-.681-.666,1.951,1.951,0,0,0-.488-.229,4.782,4.782,0,0,0-.554-.131,3.1,3.1,0,0,1,1.946,3.257,4.039,4.039,0,0,1-.205,1.341,2.6,2.6,0,0,1-.643,1.012,3.353,3.353,0,0,1-1.1.695" transform="translate(-75.134 -101.431)" fill="#505257"/>
    <path id="Trazado_17" data-name="Trazado 17" d="M146.976,173.492V175.2a2.258,2.258,0,0,0,.033.441.406.406,0,0,0,.122.233.474.474,0,0,0,.256.1,4.154,4.154,0,0,0,.456.019,1.468,1.468,0,0,0,.628-.13,1.793,1.793,0,0,0,.524-.385,5.388,5.388,0,0,0,.539-.678h.254l-.4,1.406h-3.913v-.214a1.471,1.471,0,0,0,.431-.06.355.355,0,0,0,.21-.175.784.784,0,0,0,.062-.348v-3.841a1.009,1.009,0,0,0-.057-.4.31.31,0,0,0-.194-.169,2.01,2.01,0,0,0-.452-.064v-.213h3.757l.385,1.239h-.229a2.457,2.457,0,0,0-.45-.514,2.226,2.226,0,0,0-.594-.371,1.763,1.763,0,0,0-.695-.14.974.974,0,0,0-.435.076.375.375,0,0,0-.194.211,1.1,1.1,0,0,0-.048.357v1.693h.639q.836,0,.846-.936h.222V174.4h-.2a1.231,1.231,0,0,0-.218-.689.673.673,0,0,0-.548-.215Zm-.69-1.9v3.755a1.182,1.182,0,0,1-.054.416.558.558,0,0,1-.162.221.344.344,0,0,0,.342-.169,1.337,1.337,0,0,0,.078-.534v-3.759a.715.715,0,0,0-.092-.437.436.436,0,0,0-.328-.115.424.424,0,0,1,.167.208,1.254,1.254,0,0,1,.049.413m2.136,2.148v-.761a.761.761,0,0,1-.451.381.9.9,0,0,1,.277.14.649.649,0,0,1,.175.241m.515-2.808h-.576a1.954,1.954,0,0,1,.423.233,4.9,4.9,0,0,1,.391.326Zm.137,5.052.219-.676a2.09,2.09,0,0,1-.34.371q-.152.122-.432.3Z" transform="translate(-88.212 -103.519)" fill="#505257"/>
    <path id="Trazado_18" data-name="Trazado 18" d="M156.139,170.985v-.213h2.454v.213h-.109a1.27,1.27,0,0,0-.422.054.347.347,0,0,0-.207.2,1.131,1.131,0,0,0-.06.414v3.8a.7.7,0,0,0,.069.344.414.414,0,0,0,.249.181,1.724,1.724,0,0,0,.509.058,2.439,2.439,0,0,0,.512-.05,1.687,1.687,0,0,0,.463-.179,2.316,2.316,0,0,0,.473-.365,4.113,4.113,0,0,0,.491-.59h.325l-.47,1.4h-4.276v-.214h.046a1.28,1.28,0,0,0,.47-.064.358.358,0,0,0,.206-.2,1.078,1.078,0,0,0,.055-.386v-3.674a1.515,1.515,0,0,0-.048-.439.35.35,0,0,0-.215-.217,1.409,1.409,0,0,0-.514-.07m.89.6v3.977a.586.586,0,0,1-.062.295.537.537,0,0,1-.189.183.492.492,0,0,1,.06.008.492.492,0,0,0,.06.008q.356,0,.357-.567v-3.728a2.289,2.289,0,0,0-.055-.583q-.055-.191-.316-.19h-.106a.53.53,0,0,1,.2.2,1.011,1.011,0,0,1,.053.4m2.394,4.454h.646l.3-.765a2.6,2.6,0,0,1-.429.448,2.359,2.359,0,0,1-.521.317" transform="translate(-94.676 -103.549)" fill="#505257"/>
    <path id="Trazado_19" data-name="Trazado 19" d="M178.8,167.28h2.4v.274a1.072,1.072,0,0,0-.759.441,4.929,4.929,0,0,0-.7,1.262l-2.152,5.185H177.3l-2.65-6.052a2.035,2.035,0,0,0-.385-.685,1.076,1.076,0,0,0-.613-.152v-.274h3.129v.274h-.089a.994.994,0,0,0-.535.12.371.371,0,0,0-.187.329,1.589,1.589,0,0,1,.034.169,1.313,1.313,0,0,0,.076.279l1.891,4.338,1.362-3.277a3,3,0,0,0,.291-1.111.859.859,0,0,0-.216-.625.806.806,0,0,0-.605-.222Zm-3.991,1.041,2.552,5.853a.965.965,0,0,0,.15-.384,1.229,1.229,0,0,0-.15-.428l-2.178-5a4.242,4.242,0,0,0-.244-.493.668.668,0,0,0-.265-.252,1.191,1.191,0,0,0-.452-.1.612.612,0,0,1,.306.239,3.536,3.536,0,0,1,.281.568m5.545-.767h-1.024a.884.884,0,0,1,.447.787,1.846,1.846,0,0,1,.577-.787" transform="translate(-105.295 -101.431)" fill="#505257"/>
    <path id="Trazado_20" data-name="Trazado 20" d="M192.286,175.582l-.45-1.109h-1.9l-.265.659a1.355,1.355,0,0,0-.1.524.68.68,0,0,0,.171.458.629.629,0,0,0,.476.209v.213h-1.861v-.213q.623-.089,1-1.036l1.391-3.438a.638.638,0,0,0-.229-.246.991.991,0,0,0-.354-.087v-.19l.964-.318h.37l1.861,4.582a1.429,1.429,0,0,0,.321.526,1.106,1.106,0,0,0,.49.207v.213h-2.387v-.213a1.833,1.833,0,0,0,.464-.093.236.236,0,0,0,.155-.24,1.045,1.045,0,0,0-.116-.408m-3.5.741h.772a.575.575,0,0,1-.254-.477.766.766,0,0,1,.008-.128,2.326,2.326,0,0,1-.219.329,1.545,1.545,0,0,1-.307.276m1.249-2.1h1.7l-.856-2.091Zm2.62,1.214-1.434-3.511a1.108,1.108,0,0,0-.217-.374.422.422,0,0,0-.309-.111.931.931,0,0,0-.189.016.637.637,0,0,1,.291.205,1.566,1.566,0,0,1,.187.353l1.423,3.511a1.342,1.342,0,0,1,.133.485.244.244,0,0,1-.044.163,1.207,1.207,0,0,1-.177.148h.088a.407.407,0,0,0,.291-.1.3.3,0,0,0,.1-.229,1.7,1.7,0,0,0-.144-.559" transform="translate(-114.208 -103.692)" fill="#505257"/>
    <path id="Trazado_21" data-name="Trazado 21" d="M204.65,171.464v-.212H206.8v.212h-.1a.986.986,0,0,0-.37.054.323.323,0,0,0-.181.2,1.255,1.255,0,0,0-.052.411V175.9a.786.786,0,0,0,.06.342.372.372,0,0,0,.218.179,1.35,1.35,0,0,0,.446.058,1.888,1.888,0,0,0,.45-.05,1.369,1.369,0,0,0,.406-.178,2.07,2.07,0,0,0,.415-.363,4,4,0,0,0,.431-.586h.285l-.412,1.388H204.65v-.212h.04a1.01,1.01,0,0,0,.412-.063.34.34,0,0,0,.181-.2,1.21,1.21,0,0,0,.048-.384v-3.648a1.7,1.7,0,0,0-.042-.436.333.333,0,0,0-.189-.216,1.107,1.107,0,0,0-.451-.069m.781.594v3.949a.648.648,0,0,1-.054.293.506.506,0,0,1-.166.181.391.391,0,0,1,.053.008.346.346,0,0,0,.052.008q.313,0,.313-.563v-3.7a2.527,2.527,0,0,0-.048-.578.249.249,0,0,0-.277-.189h-.093a.5.5,0,0,1,.174.2,1.133,1.133,0,0,1,.046.393m2.1,4.423h.567l.266-.76a2.454,2.454,0,0,1-.376.446,2.044,2.044,0,0,1-.457.314" transform="translate(-124.091 -103.84)" fill="#505257"/>
    <path id="Trazado_22" data-name="Trazado 22" d="M215.229,171.464v-.212h2.514v.212h-.112a1.343,1.343,0,0,0-.432.054.348.348,0,0,0-.211.2,1.075,1.075,0,0,0-.062.41V175.9a.681.681,0,0,0,.071.341.423.423,0,0,0,.255.179,1.825,1.825,0,0,0,.521.058,2.561,2.561,0,0,0,.525-.05,1.755,1.755,0,0,0,.474-.177,2.354,2.354,0,0,0,.485-.362,4.114,4.114,0,0,0,.5-.585h.333l-.481,1.386h-4.38v-.212h.047a1.362,1.362,0,0,0,.481-.063.364.364,0,0,0,.211-.2,1.041,1.041,0,0,0,.056-.383v-3.642a1.456,1.456,0,0,0-.049-.435.353.353,0,0,0-.22-.215,1.49,1.49,0,0,0-.526-.069m.912.593V176a.565.565,0,0,1-.063.292.538.538,0,0,1-.194.181.521.521,0,0,1,.062.008.474.474,0,0,0,.061.008q.365,0,.365-.562v-3.7a2.187,2.187,0,0,0-.056-.577q-.056-.188-.324-.189h-.109a.532.532,0,0,1,.2.2.973.973,0,0,1,.054.393m2.452,4.416h.662l.311-.758a2.612,2.612,0,0,1-.44.444,2.429,2.429,0,0,1-.533.314" transform="translate(-130.505 -103.84)" fill="#505257"/>
    <path id="Trazado_23" data-name="Trazado 23" d="M229.009,174v1.694a2.116,2.116,0,0,0,.035.437.4.4,0,0,0,.127.231.5.5,0,0,0,.265.094,4.455,4.455,0,0,0,.472.019,1.571,1.571,0,0,0,.65-.129,1.846,1.846,0,0,0,.543-.381,5.382,5.382,0,0,0,.558-.672h.263l-.411,1.394h-4.051v-.212a1.578,1.578,0,0,0,.446-.06.364.364,0,0,0,.217-.173.752.752,0,0,0,.064-.344v-3.808a.956.956,0,0,0-.059-.392.315.315,0,0,0-.2-.168,2.149,2.149,0,0,0-.467-.063v-.212h3.889l.4,1.228h-.237a2.484,2.484,0,0,0-.466-.51,2.317,2.317,0,0,0-.615-.368,1.887,1.887,0,0,0-.719-.139,1.046,1.046,0,0,0-.451.075.378.378,0,0,0-.2.209,1.049,1.049,0,0,0-.05.354v1.679h.661q.866,0,.875-.928h.23v2.041h-.2a1.188,1.188,0,0,0-.226-.683.712.712,0,0,0-.568-.214Zm-.714-1.879v3.723a1.12,1.12,0,0,1-.056.412.554.554,0,0,1-.168.219.361.361,0,0,0,.354-.167,1.282,1.282,0,0,0,.08-.529v-3.727a.683.683,0,0,0-.1-.433.464.464,0,0,0-.339-.113.425.425,0,0,1,.173.206,1.208,1.208,0,0,1,.051.41m2.211,2.129v-.755a.778.778,0,0,1-.467.378.935.935,0,0,1,.287.139.646.646,0,0,1,.181.239m.533-2.783h-.6a2.031,2.031,0,0,1,.437.231,4.85,4.85,0,0,1,.405.323Zm.141,5.009.227-.67a2.1,2.1,0,0,1-.352.368q-.158.122-.448.3Z" transform="translate(-137.921 -103.84)" fill="#505257"/>
    <path id="Trazado_24" data-name="Trazado 24" d="M8.989,65.162a2.665,2.665,0,0,1-.426-.189,2.319,2.319,0,0,1-.594-.448L8,64.456c.054.034.109.065.165.094a1.248,1.248,0,0,0,.923.113,1.089,1.089,0,0,0,.695-.594,1.253,1.253,0,0,0,.113-.943,1.081,1.081,0,0,0-.574-.685,1.046,1.046,0,0,0-.87-.067l-2.118.777a1.368,1.368,0,0,1-1.14-.059,1.473,1.473,0,0,1-.746-.84,1.446,1.446,0,0,1,.115-1.184,3.668,3.668,0,0,1,.413-.621l.153-.3.944.482-.035.069a.811.811,0,0,0-.7-.044,1.064,1.064,0,0,0-.542.531,1.009,1.009,0,0,0-.074.789.987.987,0,0,0,.517.6,1,1,0,0,0,.832.037l2.168-.8a1.4,1.4,0,0,1,1.163.11,1.54,1.54,0,0,1,.809.906,1.576,1.576,0,0,1-.137,1.245,3.069,3.069,0,0,1-.47.664,1.408,1.408,0,0,1-.618.425" transform="translate(-2.653 -36.472)" fill="#505257"/>
    <path id="Trazado_25" data-name="Trazado 25" d="M8.989,65.162a2.665,2.665,0,0,1-.426-.189,2.319,2.319,0,0,1-.594-.448L8,64.456c.054.034.109.065.165.094a1.248,1.248,0,0,0,.923.113,1.089,1.089,0,0,0,.695-.594,1.253,1.253,0,0,0,.113-.943,1.081,1.081,0,0,0-.574-.685,1.046,1.046,0,0,0-.87-.067l-2.118.777a1.368,1.368,0,0,1-1.14-.059,1.473,1.473,0,0,1-.746-.84,1.446,1.446,0,0,1,.115-1.184,3.668,3.668,0,0,1,.413-.621l.153-.3.944.482-.035.069a.811.811,0,0,0-.7-.044,1.064,1.064,0,0,0-.542.531,1.009,1.009,0,0,0-.074.789.987.987,0,0,0,.517.6,1,1,0,0,0,.832.037l2.168-.8a1.4,1.4,0,0,1,1.163.11,1.54,1.54,0,0,1,.809.906,1.576,1.576,0,0,1-.137,1.245,3.069,3.069,0,0,1-.47.664A1.408,1.408,0,0,1,8.989,65.162Z" transform="translate(-2.653 -36.472)" fill="none" stroke="#505257" stroke-miterlimit="10" stroke-width="0.5"/>
    <path id="Trazado_26" data-name="Trazado 26" d="M20.51,48.746l.04-.056.07.05-1.128,1.576-.07-.05.045-.063a.323.323,0,0,0,.063-.289.362.362,0,0,0-.126-.2.65.65,0,0,0-.188-.093l-1.511-.4-1.354,1.891.862,1.327a.636.636,0,0,0,.144.146.361.361,0,0,0,.228.052.323.323,0,0,0,.253-.153l.045-.063.07.05-1.008,1.408-.07-.05.045-.063a.753.753,0,0,0,.134-.424.986.986,0,0,0-.134-.509l-2.635-4.281a3.166,3.166,0,0,0-.536-.775l.045-.063,5.833,1.337a.932.932,0,0,0,.52-.031.763.763,0,0,0,.363-.27M16.2,50.874l1.234-1.723-2.85-.769Z" transform="translate(-8.337 -28.929)" fill="#505257"/>
    <path id="Trazado_27" data-name="Trazado 27" d="M20.51,48.746l.04-.056.07.05-1.128,1.576-.07-.05.045-.063a.323.323,0,0,0,.063-.289.362.362,0,0,0-.126-.2.65.65,0,0,0-.188-.093l-1.511-.4-1.354,1.891.862,1.327a.636.636,0,0,0,.144.146.361.361,0,0,0,.228.052.323.323,0,0,0,.253-.153l.045-.063.07.05-1.008,1.408-.07-.05.045-.063a.753.753,0,0,0,.134-.424.986.986,0,0,0-.134-.509l-2.635-4.281a3.166,3.166,0,0,0-.536-.775l.045-.063,5.833,1.337a.932.932,0,0,0,.52-.031A.763.763,0,0,0,20.51,48.746ZM16.2,50.874l1.234-1.723-2.85-.769Z" transform="translate(-8.337 -28.929)" fill="none" stroke="#505257" stroke-miterlimit="10" stroke-width="0.5"/>
    <path id="Trazado_28" data-name="Trazado 28" d="M26.963,39.3a.523.523,0,0,0,.162-.382.553.553,0,0,0-.149-.391l-3.344-3.4a.556.556,0,0,0-.389-.156.522.522,0,0,0-.385.155l-.08.078-.06-.061,1.345-1.322.061.061-.08.079a.549.549,0,0,0-.013.774l3.6,3.662.879-.863a1.469,1.469,0,0,0,.5-.885,2.1,2.1,0,0,0-.192-.995l.061-.06.622,1.345-2.55,2.505-.06-.061Z" transform="translate(-13.775 -20.507)" fill="#505257"/>
    <path id="Trazado_29" data-name="Trazado 29" d="M26.963,39.3a.523.523,0,0,0,.162-.382.553.553,0,0,0-.149-.391l-3.344-3.4a.556.556,0,0,0-.389-.156.522.522,0,0,0-.385.155l-.08.078-.06-.061,1.345-1.322.061.061-.08.079a.549.549,0,0,0-.013.774l3.6,3.662.879-.863a1.469,1.469,0,0,0,.5-.885,2.1,2.1,0,0,0-.192-.995l.061-.06.622,1.345-2.55,2.505-.06-.061Z" transform="translate(-13.775 -20.507)" fill="none" stroke="#505257" stroke-miterlimit="10" stroke-width="0.5"/>
    <path id="Trazado_30" data-name="Trazado 30" d="M37.475,20.092a3.733,3.733,0,0,1,3.979-2.65,2.97,2.97,0,0,1,2.025,1.378,3.2,3.2,0,0,1,.564,1.6,2.823,2.823,0,0,1-.364,1.567,3.726,3.726,0,0,1-1.223,1.28,3.344,3.344,0,0,1-2.466.6,3.255,3.255,0,0,1-2.517-3.778m2.8,3.364a2.713,2.713,0,0,0,3.19-2.125,2.959,2.959,0,0,0-.55-2.139,2.959,2.959,0,0,0-1.762-1.331,2.713,2.713,0,0,0-3.19,2.125,2.959,2.959,0,0,0,.55,2.139,2.959,2.959,0,0,0,1.761,1.331m-1.53-5.77-.083-.017q.16-.956.285-1.546a1.985,1.985,0,0,1,.547.184q-.282.571-.748,1.378" transform="translate(-22.676 -9.776)" fill="#505257"/>
    <path id="Trazado_31" data-name="Trazado 31" d="M37.475,20.092a3.733,3.733,0,0,1,3.979-2.65,2.97,2.97,0,0,1,2.025,1.378,3.2,3.2,0,0,1,.564,1.6,2.823,2.823,0,0,1-.364,1.567,3.726,3.726,0,0,1-1.223,1.28,3.344,3.344,0,0,1-2.466.6,3.255,3.255,0,0,1-2.517-3.778Zm2.8,3.364a2.713,2.713,0,0,0,3.19-2.125,2.959,2.959,0,0,0-.55-2.139,2.959,2.959,0,0,0-1.762-1.331,2.713,2.713,0,0,0-3.19,2.125,2.959,2.959,0,0,0,.55,2.139A2.959,2.959,0,0,0,40.279,23.456Zm-1.53-5.77-.083-.017q.16-.956.285-1.546a1.985,1.985,0,0,1,.547.184Q39.215,16.878,38.749,17.685Z" transform="translate(-22.676 -9.776)" fill="none" stroke="#505257" stroke-miterlimit="10" stroke-width="0.5"/>
    <path id="Trazado_32" data-name="Trazado 32" d="M61.613,7.489a.512.512,0,0,0-.289.276.52.52,0,0,0-.018.4L62.937,12.3a7.093,7.093,0,0,0,.4.859l.073.138-.072.028-6.207-2.941,1.574,3.991a.492.492,0,0,0,.279.283.513.513,0,0,0,.4,0l.152-.06.031.08-1.651.651-.031-.08.152-.06a.513.513,0,0,0,.29-.276.5.5,0,0,0,.006-.405L56.7,10.354a6.63,6.63,0,0,0-.4-.851l-.067-.122.08-.031,6.207,2.941L60.948,8.316a.53.53,0,0,0-.289-.289.513.513,0,0,0-.4,0l-.152.06L60.075,8l1.651-.651.032.08Z" transform="translate(-34.095 -4.458)" fill="#505257"/>
    <path id="Trazado_33" data-name="Trazado 33" d="M61.613,7.489a.512.512,0,0,0-.289.276.52.52,0,0,0-.018.4L62.937,12.3a7.093,7.093,0,0,0,.4.859l.073.138-.072.028-6.207-2.941,1.574,3.991a.492.492,0,0,0,.279.283.513.513,0,0,0,.4,0l.152-.06.031.08-1.651.651-.031-.08.152-.06a.513.513,0,0,0,.29-.276.5.5,0,0,0,.006-.405L56.7,10.354a6.63,6.63,0,0,0-.4-.851l-.067-.122.08-.031,6.207,2.941L60.948,8.316a.53.53,0,0,0-.289-.289.513.513,0,0,0-.4,0l-.152.06L60.075,8l1.651-.651.032.08Z" transform="translate(-34.095 -4.458)" fill="none" stroke="#505257" stroke-miterlimit="10" stroke-width="0.5"/>
    <path id="Trazado_34" data-name="Trazado 34" d="M90.911,2.923a2.9,2.9,0,0,1,1.155,2.042,2.906,2.906,0,0,1-.543,2.282,3.076,3.076,0,0,1-2.1,1.136l-2.891.409-.012-.085.111-.016a.523.523,0,0,0,.357-.211.553.553,0,0,0,.113-.4L86.428,3.3a.441.441,0,0,0-.215-.322.576.576,0,0,0-.4-.087l-.1.015-.02-.084,2.892-.409a3.074,3.074,0,0,1,2.33.51m-3.974-.017.772,5.459,1.68-.238a2.378,2.378,0,0,0,1.218-.521,2.3,2.3,0,0,0,.717-1.08,3.24,3.24,0,0,0,.1-1.471,2.891,2.891,0,0,0-.95-1.884,2.259,2.259,0,0,0-1.859-.5Z" transform="translate(-51.959 -1.438)" fill="#505257"/>
    <path id="Trazado_35" data-name="Trazado 35" d="M90.911,2.923a2.9,2.9,0,0,1,1.155,2.042,2.906,2.906,0,0,1-.543,2.282,3.076,3.076,0,0,1-2.1,1.136l-2.891.409-.012-.085.111-.016a.523.523,0,0,0,.357-.211.553.553,0,0,0,.113-.4L86.428,3.3a.441.441,0,0,0-.215-.322.576.576,0,0,0-.4-.087l-.1.015-.02-.084,2.892-.409A3.074,3.074,0,0,1,90.911,2.923Zm-3.974-.017.772,5.459,1.68-.238a2.378,2.378,0,0,0,1.218-.521,2.3,2.3,0,0,0,.717-1.08,3.24,3.24,0,0,0,.1-1.471,2.891,2.891,0,0,0-.95-1.884,2.259,2.259,0,0,0-1.859-.5Z" transform="translate(-51.959 -1.438)" fill="none" stroke="#505257" stroke-miterlimit="10" stroke-width="0.5"/>
    <path id="Trazado_36" data-name="Trazado 36" d="M107.03,6.58a.522.522,0,0,0,.378-.171.556.556,0,0,0,.156-.389l-.15-4.821a.446.446,0,0,0-.175-.344.572.572,0,0,0-.392-.13l-.1,0-.011-.086,2.523-.078a3.649,3.649,0,0,0,.579-.069,2.417,2.417,0,0,0,.44-.117l.034,1.085-.086,0-.005-.155a.507.507,0,0,0-.5-.493l-1.756.054.083,2.661,1.455-.045a.429.429,0,0,0,.289-.138.409.409,0,0,0,.111-.305l0-.12.086,0,.042,1.36-.086,0,0-.129a.405.405,0,0,0-.125-.289.414.414,0,0,0-.292-.12l-1.464.045.08,2.574,1.231-.038a1.471,1.471,0,0,0,.964-.315,2.1,2.1,0,0,0,.533-.861l.086,0-.456,1.41-3.573.111,0-.086Z" transform="translate(-64.719 -0.229)" fill="#505257"/>
    <path id="Trazado_37" data-name="Trazado 37" d="M107.03,6.58a.522.522,0,0,0,.378-.171.556.556,0,0,0,.156-.389l-.15-4.821a.446.446,0,0,0-.175-.344.572.572,0,0,0-.392-.13l-.1,0-.011-.086,2.523-.078a3.649,3.649,0,0,0,.579-.069,2.417,2.417,0,0,0,.44-.117l.034,1.085-.086,0-.005-.155a.507.507,0,0,0-.5-.493l-1.756.054.083,2.661,1.455-.045a.429.429,0,0,0,.289-.138.409.409,0,0,0,.111-.305l0-.12.086,0,.042,1.36-.086,0,0-.129a.405.405,0,0,0-.125-.289.414.414,0,0,0-.292-.12l-1.464.045.08,2.574,1.231-.038a1.471,1.471,0,0,0,.964-.315,2.1,2.1,0,0,0,.533-.861l.086,0-.456,1.41-3.573.111,0-.086Z" transform="translate(-64.719 -0.229)" fill="none" stroke="#505257" stroke-miterlimit="10" stroke-width="0.5"/>
    <path id="Trazado_38" data-name="Trazado 38" d="M130.276,7.328a.521.521,0,0,0,.4-.108.554.554,0,0,0,.217-.358l.628-4.783a.446.446,0,0,0-.117-.367.57.57,0,0,0-.366-.192l-.1-.013,0-.087,2.5.329a3.614,3.614,0,0,0,.583.024,2.367,2.367,0,0,0,.453-.045l-.141,1.076-.085-.011.02-.154a.509.509,0,0,0-.412-.567l-1.742-.229-.347,2.639,1.443.19a.428.428,0,0,0,.307-.09.408.408,0,0,0,.159-.283l.016-.119.085.011L133.6,5.542l-.085-.011.017-.128a.405.405,0,0,0-.078-.306.416.416,0,0,0-.269-.165l-1.452-.191L131.4,7.294l1.222.161a1.47,1.47,0,0,0,1-.155,2.11,2.11,0,0,0,.665-.764l.085.011L133.7,7.865,130.154,7.4l.011-.085Z" transform="translate(-78.92 -0.862)" fill="#505257"/>
    <path id="Trazado_39" data-name="Trazado 39" d="M130.276,7.328a.521.521,0,0,0,.4-.108.554.554,0,0,0,.217-.358l.628-4.783a.446.446,0,0,0-.117-.367.57.57,0,0,0-.366-.192l-.1-.013,0-.087,2.5.329a3.614,3.614,0,0,0,.583.024,2.367,2.367,0,0,0,.453-.045l-.141,1.076-.085-.011.02-.154a.509.509,0,0,0-.412-.567l-1.742-.229-.347,2.639,1.443.19a.428.428,0,0,0,.307-.09.408.408,0,0,0,.159-.283l.016-.119.085.011L133.6,5.542l-.085-.011.017-.128a.405.405,0,0,0-.078-.306.416.416,0,0,0-.269-.165l-1.452-.191L131.4,7.294l1.222.161a1.47,1.47,0,0,0,1-.155,2.11,2.11,0,0,0,.665-.764l.085.011L133.7,7.865,130.154,7.4l.011-.085Z" transform="translate(-78.92 -0.862)" fill="none" stroke="#505257" stroke-miterlimit="10" stroke-width="0.5"/>
    <path id="Trazado_40" data-name="Trazado 40" d="M151.816,4.664l1.68.42-.021.083-.075-.019a.77.77,0,0,0-.442.027.905.905,0,0,0-.415.309l-3.14,4a3.153,3.153,0,0,0-.525.783l-.075-.019-1.009-5.944a.886.886,0,0,0-.222-.477.793.793,0,0,0-.381-.233l-.067-.017.021-.083,1.88.47L149,4.049l-.075-.019a.322.322,0,0,0-.291.047.363.363,0,0,0-.14.187.523.523,0,0,0-.007.207l.652,4.816,2.917-3.923a.632.632,0,0,0,.082-.188.36.36,0,0,0-.035-.231.321.321,0,0,0-.235-.179l-.075-.019Z" transform="translate(-89.209 -2.12)" fill="#505257"/>
    <path id="Trazado_41" data-name="Trazado 41" d="M151.816,4.664l1.68.42-.021.083-.075-.019a.77.77,0,0,0-.442.027.905.905,0,0,0-.415.309l-3.14,4a3.153,3.153,0,0,0-.525.783l-.075-.019-1.009-5.944a.886.886,0,0,0-.222-.477.793.793,0,0,0-.381-.233l-.067-.017.021-.083,1.88.47L149,4.049l-.075-.019a.322.322,0,0,0-.291.047.363.363,0,0,0-.14.187.523.523,0,0,0-.007.207l.652,4.816,2.917-3.923a.632.632,0,0,0,.082-.188.36.36,0,0,0-.035-.231.321.321,0,0,0-.235-.179l-.075-.019Z" transform="translate(-89.209 -2.12)" fill="none" stroke="#505257" stroke-miterlimit="10" stroke-width="0.5"/>
    <path id="Trazado_42" data-name="Trazado 42" d="M162.843,14.876a.523.523,0,0,0,.415-.01.553.553,0,0,0,.3-.3l1.745-4.5a.444.444,0,0,0-.026-.385.571.571,0,0,0-.31-.273l-.1-.037.023-.083,2.353.913a3.621,3.621,0,0,0,.561.162,2.391,2.391,0,0,0,.451.064l-.392,1.012-.08-.031.056-.144a.508.508,0,0,0-.266-.648l-1.638-.636-.963,2.482,1.357.527a.43.43,0,0,0,.32-.015.41.41,0,0,0,.222-.237l.043-.113.08.031L166.5,13.93l-.08-.031.046-.12a.406.406,0,0,0,0-.315.415.415,0,0,0-.222-.225l-1.365-.53-.932,2.4,1.149.446a1.472,1.472,0,0,0,1.01.087,2.109,2.109,0,0,0,.827-.585l.08.031-.971,1.12-3.333-1.294.031-.08Z" transform="translate(-98.658 -5.635)" fill="#505257"/>
    <path id="Trazado_43" data-name="Trazado 43" d="M162.843,14.876a.523.523,0,0,0,.415-.01.553.553,0,0,0,.3-.3l1.745-4.5a.444.444,0,0,0-.026-.385.571.571,0,0,0-.31-.273l-.1-.037.023-.083,2.353.913a3.621,3.621,0,0,0,.561.162,2.391,2.391,0,0,0,.451.064l-.392,1.012-.08-.031.056-.144a.508.508,0,0,0-.266-.648l-1.638-.636-.963,2.482,1.357.527a.43.43,0,0,0,.32-.015.41.41,0,0,0,.222-.237l.043-.113.08.031L166.5,13.93l-.08-.031.046-.12a.406.406,0,0,0,0-.315.415.415,0,0,0-.222-.225l-1.365-.53-.932,2.4,1.149.446a1.472,1.472,0,0,0,1.01.087,2.109,2.109,0,0,0,.827-.585l.08.031-.971,1.12-3.333-1.294.031-.08Z" transform="translate(-98.658 -5.635)" fill="none" stroke="#505257" stroke-miterlimit="10" stroke-width="0.5"/>
    <path id="Trazado_44" data-name="Trazado 44" d="M184.623,19.13a.513.513,0,0,0-.4-.054.522.522,0,0,0-.325.235l-2.22,3.851a7.06,7.06,0,0,0-.421.851l-.063.143-.067-.039-1.563-6.688-2.143,3.716a.49.49,0,0,0-.049.394.512.512,0,0,0,.246.316l.142.082-.043.074-1.538-.886.043-.074.142.082a.514.514,0,0,0,.4.054.5.5,0,0,0,.321-.247l2.234-3.873a6.585,6.585,0,0,0,.416-.844l.054-.128.074.043,1.563,6.688,2.134-3.7a.534.534,0,0,0,.045-.407.513.513,0,0,0-.246-.316l-.142-.081.043-.075,1.537.886-.043.075Z" transform="translate(-106.83 -9.759)" fill="#505257"/>
    <path id="Trazado_45" data-name="Trazado 45" d="M184.623,19.13a.513.513,0,0,0-.4-.054.522.522,0,0,0-.325.235l-2.22,3.851a7.06,7.06,0,0,0-.421.851l-.063.143-.067-.039-1.563-6.688-2.143,3.716a.49.49,0,0,0-.049.394.512.512,0,0,0,.246.316l.142.082-.043.074-1.538-.886.043-.074.142.082a.514.514,0,0,0,.4.054.5.5,0,0,0,.321-.247l2.234-3.873a6.585,6.585,0,0,0,.416-.844l.054-.128.074.043,1.563,6.688,2.134-3.7a.534.534,0,0,0,.045-.407.513.513,0,0,0-.246-.316l-.142-.081.043-.075,1.537.886-.043.075Z" transform="translate(-106.83 -9.759)" fill="none" stroke="#505257" stroke-miterlimit="10" stroke-width="0.5"/>
    <path id="Trazado_46" data-name="Trazado 46" d="M202.182,31.066a.523.523,0,0,0-.042-.712L200.89,29.3l-3.33,3.942a.539.539,0,0,0-.116.4.53.53,0,0,0,.193.366l.085.072-.056.066-1.442-1.218.056-.066.085.072a.553.553,0,0,0,.76-.046l3.336-3.949-1.251-1.056a.492.492,0,0,0-.369-.1.506.506,0,0,0-.339.181l-.094.112-.072-.049.7-.829a2.41,2.41,0,0,0,.276.368,3.681,3.681,0,0,0,.414.417l2.224,1.879a3.21,3.21,0,0,0,.578.4,2.987,2.987,0,0,0,.318.15l-.7.829-.06-.062Z" transform="translate(-118.982 -16.489)" fill="#505257"/>
    <path id="Trazado_47" data-name="Trazado 47" d="M202.182,31.066a.523.523,0,0,0-.042-.712L200.89,29.3l-3.33,3.942a.539.539,0,0,0-.116.4.53.53,0,0,0,.193.366l.085.072-.056.066-1.442-1.218.056-.066.085.072a.553.553,0,0,0,.76-.046l3.336-3.949-1.251-1.056a.492.492,0,0,0-.369-.1.506.506,0,0,0-.339.181l-.094.112-.072-.049.7-.829a2.41,2.41,0,0,0,.276.368,3.681,3.681,0,0,0,.414.417l2.224,1.879a3.21,3.21,0,0,0,.578.4,2.987,2.987,0,0,0,.318.15l-.7.829-.06-.062Z" transform="translate(-118.982 -16.489)" fill="none" stroke="#505257" stroke-miterlimit="10" stroke-width="0.5"/>
    <path id="Trazado_48" data-name="Trazado 48" d="M211.469,42.575a3.732,3.732,0,0,1,3.011,3.713,3.256,3.256,0,0,1-3.526,2.859,3.733,3.733,0,0,1-3.011-3.713,3.256,3.256,0,0,1,3.526-2.859m-3.087,3.107a2.714,2.714,0,0,0,2.414,2.978,3.35,3.35,0,0,0,3.238-2.626,2.713,2.713,0,0,0-2.414-2.977,3.349,3.349,0,0,0-3.239,2.626" transform="translate(-126.082 -25.799)" fill="#505257"/>
    <path id="Trazado_49" data-name="Trazado 49" d="M211.469,42.575a3.732,3.732,0,0,1,3.011,3.713,3.256,3.256,0,0,1-3.526,2.859,3.733,3.733,0,0,1-3.011-3.713,3.256,3.256,0,0,1,3.526-2.859Zm-3.087,3.107a2.714,2.714,0,0,0,2.414,2.978,3.35,3.35,0,0,0,3.238-2.626,2.713,2.713,0,0,0-2.414-2.977,3.349,3.349,0,0,0-3.239,2.626Z" transform="translate(-126.082 -25.799)" fill="none" stroke="#505257" stroke-miterlimit="10" stroke-width="0.5"/>
    <path id="Trazado_50" data-name="Trazado 50" d="M218.36,62.305a2.783,2.783,0,0,1,.395-.248,2.335,2.335,0,0,1,.7-.24l.037.067c-.058.026-.115.054-.17.085a1.246,1.246,0,0,0-.611.7,1.091,1.091,0,0,0,.1.908,1.25,1.25,0,0,0,.718.622,1.079,1.079,0,0,0,.889-.092,1.047,1.047,0,0,0,.543-.684l.543-2.189a1.367,1.367,0,0,1,.688-.91,1.468,1.468,0,0,1,1.114-.148,1.446,1.446,0,0,1,.916.759,3.659,3.659,0,0,1,.283.69l.163.294-.928.513-.037-.068a.809.809,0,0,0,.43-.557,1.062,1.062,0,0,0-.137-.747,1,1,0,0,0-.612-.5,1.027,1.027,0,0,0-1.282.762l-.553,2.243a1.4,1.4,0,0,1-.742.9,1.547,1.547,0,0,1-1.2.163,1.575,1.575,0,0,1-.955-.812,3.072,3.072,0,0,1-.287-.761,1.414,1.414,0,0,1-.006-.75" transform="translate(-132.375 -36.459)" fill="#505257"/>
    <path id="Trazado_51" data-name="Trazado 51" d="M218.36,62.305a2.783,2.783,0,0,1,.395-.248,2.335,2.335,0,0,1,.7-.24l.037.067c-.058.026-.115.054-.17.085a1.246,1.246,0,0,0-.611.7,1.091,1.091,0,0,0,.1.908,1.25,1.25,0,0,0,.718.622,1.079,1.079,0,0,0,.889-.092,1.047,1.047,0,0,0,.543-.684l.543-2.189a1.367,1.367,0,0,1,.688-.91,1.468,1.468,0,0,1,1.114-.148,1.446,1.446,0,0,1,.916.759,3.659,3.659,0,0,1,.283.69l.163.294-.928.513-.037-.068a.809.809,0,0,0,.43-.557,1.062,1.062,0,0,0-.137-.747,1,1,0,0,0-.612-.5,1.027,1.027,0,0,0-1.282.762l-.553,2.243a1.4,1.4,0,0,1-.742.9,1.547,1.547,0,0,1-1.2.163,1.575,1.575,0,0,1-.955-.812,3.072,3.072,0,0,1-.287-.761A1.414,1.414,0,0,1,218.36,62.305Z" transform="translate(-132.375 -36.459)" fill="none" stroke="#505257" stroke-miterlimit="10" stroke-width="0.5"/>
  </g>
</svg>
