<svg clip-rule="evenodd" fill-rule="evenodd" height="512" stroke-linejoin="round" stroke-miterlimit="2" viewBox="0 0 32 32" width="512" xmlns="http://www.w3.org/2000/svg" xmlns:xlink="http://www.w3.org/1999/xlink"><radialGradient id="_Radial1" cx="0" cy="0" gradientTransform="matrix(14.74 -.134 .134 14.74 16 16.682)" gradientUnits="userSpaceOnUse" r="1"><stop offset="0" stop-color="#fbef57"/><stop offset="1" stop-color="#fbc02a"/></radialGradient><circle cx="16" cy="16" fill="url(#_Radial1)" r="14.75"/><g fill="#3c4d4d"><path d="m8.75 14.235c0-1.242 1.008-2.25 2.25-2.25s2.25 1.008 2.25 2.25c0 .414.336.75.75.75s.75-.336.75-.75c0-2.07-1.68-3.75-3.75-3.75s-3.75 1.68-3.75 3.75c0 .414.336.75.75.75s.75-.336.75-.75z"/><path d="m18.75 14.235c0-1.242 1.008-2.25 2.25-2.25s2.25 1.008 2.25 2.25c0 .414.336.75.75.75s.75-.336.75-.75c0-2.07-1.68-3.75-3.75-3.75s-3.75 1.68-3.75 3.75c0 .414.336.75.75.75s.75-.336.75-.75z"/><path d="m18.76 8.938c1.491-.551 2.982-.572 4.472-.002.387.147.821-.047.969-.433.147-.387-.047-.821-.433-.969-1.843-.703-3.686-.684-5.528-.002-.389.143-.587.575-.443.963.143.389.575.587.963.443z"/><path d="m8.76 8.938c1.491-.551 2.982-.572 4.472-.002.387.147.821-.047.969-.433.147-.387-.047-.821-.433-.969-1.843-.703-3.686-.684-5.528-.002-.389.143-.587.575-.443.963.143.389.575.587.963.443z"/><path d="m16 17.485c-1.753 0-3.25 1.646-3.25 3.75s1.497 3.75 3.25 3.75 3.25-1.646 3.25-3.75-1.497-3.75-3.25-3.75z"/></g></svg>