<svg clip-rule="evenodd" fill-rule="evenodd" height="512" stroke-linejoin="round" stroke-miterlimit="2" viewBox="0 0 32 32" width="512" xmlns="http://www.w3.org/2000/svg" xmlns:xlink="http://www.w3.org/1999/xlink"><radialGradient id="_Radial1" cx="16" cy="16" gradientUnits="userSpaceOnUse" r="14.75"><stop offset="0" stop-color="#fbef57"/><stop offset="1" stop-color="#fbc02a"/></radialGradient><radialGradient id="_Radial2" cx="0" cy="0" gradientTransform="matrix(36.501 -8.805 8.805 36.501 7.499 25.024)" gradientUnits="userSpaceOnUse" r="1"><stop offset="0" stop-color="#fff"/><stop offset=".48" stop-color="#dfdfdf"/><stop offset="1" stop-color="#d5d5d5"/></radialGradient><path d="m11.422 24.78h.462c.097 0 .19-.039.259-.107.068-.069.107-.162.107-.259 0-.001 0-.002 0-.003 0-.097-.039-.19-.107-.259-.069-.068-.162-.107-.259-.107h-.328c-.414 0-.75-.336-.75-.75s.336-.75.75-.75h5.019c.097 0 .19-.039.259-.107.068-.069.107-.162.107-.259 0-.001 0-.002 0-.003 0-.097-.039-.19-.107-.259-.069-.068-.162-.107-.259-.107 0 0-3.571 0-5.709 0-.613 0-1.202-.244-1.636-.678s-.678-1.022-.678-1.636c0-.676 0-1.316 0-1.316 0-.48-.389-.87-.87-.87h-.001c-.094 0-.182.045-.237.121-.056.076-.071.174-.042.264.005.014.009.029.013.044.105.409.139.872.093 1.391-.053 1.325-.932 2.476-2.202 2.876-.496.154-.953.419-1.342.774-.174.158-.412.226-.643.182-.231-.043-.429-.192-.534-.403-.984-1.976-1.537-4.204-1.537-6.559 0-8.141 6.609-14.75 14.75-14.75s14.75 6.609 14.75 14.75-6.609 14.75-14.75 14.75c-1.447 0-2.845-.209-4.165-.598-.22-.064-.398-.225-.484-.438-.085-.212-.07-.452.043-.651.03-.053.047-.114.047-.179 0-.001 0-.002 0-.003 0-.178-.127-.327-.296-.359-.37-.071-.631-.406-.608-.782l.001-.02c.024-.396.352-.705.749-.705h.288c.097 0 .19-.039.259-.107.068-.069.107-.162.107-.259 0-.001 0-.002 0-.003 0-.097-.039-.19-.107-.259-.069-.068-.162-.107-.259-.107h-.153c-.415 0-.75-.336-.75-.75s.335-.75.75-.75z" fill="url(#_Radial1)"/><g fill="#3c4d4d"><circle cx="20.823" cy="12.492" r="2.258"/><circle cx="11.177" cy="11.984" r="2.258"/><path d="m13.084 17.745s4.133-.464 7.436 2.289c.318.265.791.222 1.056-.096s.222-.791-.096-1.056c-3.803-3.17-8.564-2.627-8.564-2.627-.412.046-.708.418-.661.829.046.412.418.708.829.661z"/><path d="m22.994 6.66-4.394 1.235c-.398.112-.631.527-.519.925.112.399.527.632.925.52l4.394-1.235c.398-.112.631-.527.519-.925-.112-.399-.527-.632-.925-.52z"/><path d="m9.207 8.105 4.393 1.235c.399.112.813-.121.925-.52.112-.398-.12-.813-.519-.925l-4.394-1.235c-.398-.112-.813.121-.925.52-.112.398.121.813.52.925z"/></g><path d="m5.965 18.126c-.163-.537-.066-1.121.265-1.576.337-.465.876-.74 1.45-.74h.002c1.309 0 2.37 1.061 2.37 2.37v1.316c0 .216.086.423.239.576.152.152.359.238.575.238h5.709c.495 0 .969.197 1.319.547.35.349.547.824.547 1.319v.003c0 .495-.197.97-.547 1.319-.35.35-.824.547-1.319.547h-2.861c.024.12.036.242.036.366v.003c0 .495-.197.97-.547 1.319l-.001.001c.156.276.239.59.239.912v.003c0 .495-.197.97-.547 1.319-.041.042-.085.082-.13.119.113.241.177.51.177.794v.003c0 .959-.724 1.749-1.655 1.854-.044.008-.088.012-.134.012h-4.684c-1.384 0-2.711-.55-3.69-1.528-.978-.979-1.528-2.306-1.528-3.69 0-.001 0-.003 0-.004 0-1.384.55-2.711 1.528-3.69.584-.584 1.293-1.015 2.063-1.268l.01-.003c.66-.207 1.118-.807 1.143-1.498.001-.023.003-.046.006-.068.042-.327.03-.618-.035-.875z" fill="url(#_Radial2)"/></svg>