<svg clip-rule="evenodd" fill-rule="evenodd" height="512" stroke-linejoin="round" stroke-miterlimit="2" viewBox="0 0 32 32" width="512" xmlns="http://www.w3.org/2000/svg" xmlns:xlink="http://www.w3.org/1999/xlink"><radialGradient id="_Radial1" cx="16" cy="16" gradientUnits="userSpaceOnUse" r="14.75"><stop offset="0" stop-color="#fbef57"/><stop offset="1" stop-color="#fbc02a"/></radialGradient><circle cx="16" cy="16" fill="url(#_Radial1)" r="14.75"/><path d="m6.597 19.685c.974 3.871 4.802 6.794 9.396 6.794 4.596 0 8.425-2.924 9.41-6.795.154-.633-.051-1.293-.533-1.722s-1.162-.557-1.766-.332c-4.738 1.709-9.482 1.722-14.229.012-.594-.22-1.269-.093-1.748.333s-.684 1.082-.532 1.705z" fill="#3c4d4d"/><path d="m8.711 8.794 1.262-1.837c.14-.203.371-.325.618-.325s.479.122.619.325l1.261 1.837 2.137.633c.237.07.425.252.501.487s.032.493-.119.689l-1.357 1.767.059 2.228c.007.247-.109.482-.309.627s-.458.182-.691.1l-2.101-.744-2.1.744c-.233.082-.492.045-.692-.1s-.315-.38-.309-.627l.059-2.228-1.357-1.767c-.15-.196-.195-.454-.118-.689.076-.235.263-.417.5-.487z" fill="#ff921d"/><path d="m19.516 8.794 1.261-1.837c.14-.203.371-.325.619-.325.247 0 .478.122.618.325l1.262 1.837 2.137.633c.237.07.424.252.5.487s.032.493-.118.689l-1.357 1.767.058 2.228c.007.247-.109.482-.308.627-.2.145-.459.182-.692.1l-2.1-.744-2.101.744c-.233.082-.492.045-.691-.1-.2-.145-.316-.38-.309-.627l.059-2.228-1.358-1.767c-.15-.196-.194-.454-.118-.689s.264-.417.501-.487z" fill="#ff921d"/><path d="m11.138 25.287c.581-1.918 2.531-3.33 4.844-3.33 2.317 0 4.27 1.417 4.848 3.341-1.421.75-3.072 1.181-4.837 1.181-1.772 0-3.431-.435-4.855-1.192z" fill="#c32325"/></svg>