<svg clip-rule="evenodd" fill-rule="evenodd" height="512" stroke-linejoin="round" stroke-miterlimit="2" viewBox="0 0 32 32" width="512" xmlns="http://www.w3.org/2000/svg" xmlns:xlink="http://www.w3.org/1999/xlink"><radialGradient id="_Radial1" cx="15.607" cy="15.848" gradientUnits="userSpaceOnUse" r="14.75"><stop offset="0" stop-color="#fbef57"/><stop offset="1" stop-color="#fbc02a"/></radialGradient><circle cx="15.607" cy="15.848" fill="url(#_Radial1)" r="14.75"/><path d="m16 19.757c-1.767 0-3.393-.509-4.686-.933-.973-.319-1.782-.589-2.355-.64-.525-.046-.924.074-1.204.305-.288.238-.505.622-.505 1.25 0 1.048.632 2.279 1.785 3.347 1.572 1.455 4.106 2.638 6.965 2.638s5.393-1.183 6.965-2.638c1.153-1.068 1.785-2.299 1.785-3.347 0-.628-.217-1.012-.505-1.25-.28-.231-.679-.351-1.204-.305-.573.051-1.382.321-2.355.64-1.293.424-2.919.933-4.686.933z" fill="#3c4d4d"/><path d="m11.711 23.774c-.15.185-.203.43-.144.66.059.231.224.42.445.509 1.192.482 2.549.781 3.988.781s2.796-.299 3.988-.781c.221-.089.386-.278.445-.509.059-.23.006-.475-.144-.66-.693-.851-2.339-1.524-4.289-1.524s-3.596.673-4.289 1.524z" fill="#de494d"/><g fill="#c62829"><path d="m10.27 8.906.031-.054c.291-.505.771-.873 1.334-1.024s1.163-.072 1.668.22c.505.291.873.771 1.024 1.334s.072 1.163-.219 1.668c-.777 1.345-1.879 3.254-1.879 3.254-.193.335-.622.45-.957.257 0 0-1.909-1.103-3.254-1.879-.505-.292-.873-.772-1.024-1.335s-.072-1.163.219-1.668c.292-.505.772-.873 1.335-1.024s1.163-.072 1.668.22z"/><path d="m21.73 8.906.054-.031c.505-.292 1.105-.371 1.668-.22s1.043.519 1.335 1.024c.291.505.37 1.105.219 1.668s-.519 1.043-1.024 1.335c-1.345.776-3.254 1.879-3.254 1.879-.335.193-.764.078-.957-.257 0 0-1.102-1.909-1.879-3.254-.291-.505-.37-1.105-.219-1.668s.519-1.043 1.024-1.334c.505-.292 1.105-.371 1.668-.22s1.043.519 1.334 1.024z"/></g></svg>