<svg clip-rule="evenodd" fill-rule="evenodd" height="512" stroke-linejoin="round" stroke-miterlimit="2" viewBox="0 0 32 32" width="512" xmlns="http://www.w3.org/2000/svg" xmlns:xlink="http://www.w3.org/1999/xlink"><radialGradient id="_Radial1" cx="16" cy="16" gradientUnits="userSpaceOnUse" r="14.75"><stop offset="0" stop-color="#fbef57"/><stop offset="1" stop-color="#fbc02a"/></radialGradient><circle cx="16" cy="16" fill="url(#_Radial1)" r="14.75"/><g fill="#3c4d4d"><path d="m6 15.848h20c.414 0 .75.336.75.75 0 5.359-4.796 9.75-10.75 9.75s-10.75-4.391-10.75-9.75l.009-.114.037-.143.028-.068c.121-.251.378-.425.676-.425z"/><path d="m8.75 11.617c0-1.241 1.008-2.25 2.25-2.25s2.25 1.009 2.25 2.25c0 .414.336.75.75.75s.75-.336.75-.75c0-2.069-1.68-3.75-3.75-3.75s-3.75 1.681-3.75 3.75c0 .414.336.75.75.75s.75-.336.75-.75z"/><path d="m18.75 11.617c0-1.241 1.008-2.25 2.25-2.25s2.25 1.009 2.25 2.25c0 .414.336.75.75.75s.75-.336.75-.75c0-2.069-1.68-3.75-3.75-3.75s-3.75 1.681-3.75 3.75c0 .414.336.75.75.75s.75-.336.75-.75z"/></g><path d="m7.629 22.71c1.786-1.814 4.87-3.013 8.371-3.013s6.585 1.199 8.371 3.013c-1.967 2.215-4.982 3.638-8.371 3.638s-6.404-1.423-8.371-3.638z" fill="#c32325"/></svg>