<svg clip-rule="evenodd" fill-rule="evenodd" height="512" stroke-linejoin="round" stroke-miterlimit="2" viewBox="0 0 32 32" width="512" xmlns="http://www.w3.org/2000/svg" xmlns:xlink="http://www.w3.org/1999/xlink"><radialGradient id="_Radial1" cx="16" cy="16" gradientUnits="userSpaceOnUse" r="14.75"><stop offset="0" stop-color="#fbef57"/><stop offset="1" stop-color="#fbc02a"/></radialGradient><circle cx="16" cy="16" fill="url(#_Radial1)" r="14.75"/><g fill="#3c4d4d"><path d="m23.472 19.603c-1.467 2.347-4.269 3.921-7.472 3.921s-6.005-1.574-7.472-3.921c-.219-.351-.682-.458-1.033-.239-.352.219-.458.682-.239 1.033 1.72 2.753 4.989 4.627 8.744 4.627s7.024-1.874 8.744-4.627c.219-.351.113-.814-.239-1.033-.351-.219-.814-.112-1.033.239z"/><path d="m9.314 12.004c0-1.125.913-2.038 2.038-2.038s2.039.913 2.039 2.038c0 .414.336.75.75.75s.75-.336.75-.75c0-1.953-1.586-3.538-3.539-3.538s-3.538 1.585-3.538 3.538c0 .414.336.75.75.75s.75-.336.75-.75z"/><path d="m18.609 12.004c0-1.125.914-2.038 2.039-2.038s2.038.913 2.038 2.038c0 .414.336.75.75.75s.75-.336.75-.75c0-1.953-1.585-3.538-3.538-3.538s-3.539 1.585-3.539 3.538c0 .414.336.75.75.75s.75-.336.75-.75z"/></g></svg>