<svg clip-rule="evenodd" fill-rule="evenodd" height="512" stroke-linejoin="round" stroke-miterlimit="2" viewBox="0 0 32 32" width="512" xmlns="http://www.w3.org/2000/svg" xmlns:xlink="http://www.w3.org/1999/xlink"><radialGradient id="_Radial1" cx="16" cy="16" gradientUnits="userSpaceOnUse" r="14.75"><stop offset="0" stop-color="#fbef57"/><stop offset="1" stop-color="#fbc02a"/></radialGradient><path d="m8.625 3.226c-7.05 4.07-9.469 13.099-5.399 20.149 4.071 7.05 13.099 9.469 20.149 5.399s9.469-13.099 5.399-20.149-13.099-9.469-20.149-5.399z" fill="url(#_Radial1)"/><path d="m8.201 13.495v-2.023c0-.414.336-.75.75-.75.413 0 .75.336.75.75v2.023h2.022c.414 0 .75.336.75.75 0 .413-.336.75-.75.75h-2.022v2.022c0 .414-.337.75-.75.75-.414 0-.75-.336-.75-.75v-2.022h-2.023c-.414 0-.75-.337-.75-.75 0-.414.336-.75.75-.75z" fill="#3c4d4d"/><path d="m16.75 22.496v2.96c0 .066.004.131.011.195.023.213-.046.425-.19.584-.143.158-.348.248-.561.247-2.414-.018-4.696-.925-6.314-2.593-.444-.463-.595-1.133-.393-1.742s.723-1.056 1.348-1.162c4.966-.894 9.068-3.277 12.316-7.125.411-.497 1.064-.727 1.696-.596.631.13 1.14.599 1.322 1.226 1.06 3.763-.694 8.104-4.503 10.441-.231.142-.521.148-.758.015-.237-.132-.384-.383-.384-.654v-3.701c-1.626 1.022-2.795 1.562-3.59 1.905z" fill="#3c4d4d"/><path d="m21.84 19.203c0-.278-.154-.533-.399-.663-.246-.13-.544-.113-.774.043-2.51 1.713-4.085 2.355-4.96 2.727-.277.117-.457.389-.457.69v3.456c0 1.819 1.475 3.294 3.294 3.294h.002c1.819 0 3.294-1.475 3.294-3.294 0-2.598 0-6.253 0-6.253z" fill="#c32325"/><path d="m17.255 8.267v-2.023c0-.413.336-.75.75-.75s.75.337.75.75v2.023h2.022c.414 0 .75.336.75.75s-.336.75-.75.75h-2.022v2.023c0 .414-.336.75-.75.75s-.75-.336-.75-.75v-2.023h-2.023c-.414 0-.75-.336-.75-.75s.336-.75.75-.75z" fill="#3c4d4d"/></svg>