<svg clip-rule="evenodd" fill-rule="evenodd" height="512" stroke-linejoin="round" stroke-miterlimit="2" viewBox="0 0 32 32" width="512" xmlns="http://www.w3.org/2000/svg" xmlns:xlink="http://www.w3.org/1999/xlink"><radialGradient id="_Radial1" cx="16" cy="16.196" gradientUnits="userSpaceOnUse" r="14.75"><stop offset="0" stop-color="#fbef57"/><stop offset="1" stop-color="#fbc02a"/></radialGradient><circle cx="16" cy="16.196" fill="url(#_Radial1)" r="14.75"/><path d="m16 17.054c-2.637 0-4.214 2.355-4.214 5.369 0 1.53.415 2.589 1.12 3.28.711.696 1.745 1.047 3.094 1.047s2.383-.351 3.094-1.047c.705-.691 1.12-1.75 1.12-3.28 0-3.014-1.577-5.369-4.214-5.369z" fill="#3c4d4d"/><circle cx="11.081" cy="10.795" fill="#fff" r="3.331"/><circle cx="20.919" cy="10.795" fill="#fff" r="3.331"/><circle cx="20.919" cy="10.795" fill="#3c4d4d" r="1.491"/><circle cx="11.081" cy="10.795" fill="#3c4d4d" r="1.491"/><path d="m12.793 25.585c.254-2.038 1.594-3.594 3.207-3.594s2.953 1.557 3.207 3.595c-.037.04-.075.079-.113.117-.711.696-1.745 1.047-3.094 1.047s-2.383-.351-3.094-1.047c-.038-.038-.076-.077-.113-.118z" fill="#c32325"/></svg>