<svg clip-rule="evenodd" fill-rule="evenodd" height="512" stroke-linejoin="round" stroke-miterlimit="2" viewBox="0 0 32 32" width="512" xmlns="http://www.w3.org/2000/svg" xmlns:xlink="http://www.w3.org/1999/xlink"><radialGradient id="_Radial1" cx="16" cy="16.196" gradientUnits="userSpaceOnUse" r="14.75"><stop offset="0" stop-color="#fbef57"/><stop offset="1" stop-color="#fbc02a"/></radialGradient><circle cx="16" cy="16.196" fill="url(#_Radial1)" r="14.75"/><circle cx="21" cy="10.795" fill="#fff" r="3.331"/><g fill="#3c4d4d"><circle cx="21" cy="10.795" r="1.491"/><path d="m9.306 12.045c0-.965.784-1.75 1.75-1.75s1.75.785 1.75 1.75c0 .414.336.75.75.75s.75-.336.75-.75c0-1.793-1.456-3.25-3.25-3.25s-3.25 1.457-3.25 3.25c0 .414.336.75.75.75s.75-.336.75-.75z"/><path d="m13.089 17.788v6.65c0 .283.041.555.119.813.081.268.005.56-.197.755-.201.195-.495.261-.761.172-4.101-1.386-7-4.967-7-9.14 0-.414.336-.75.75-.75h20c.414 0 .75.336.75.75 0 4.251-3.01 7.889-7.234 9.216-.268.084-.56.012-.758-.188-.197-.199-.267-.492-.18-.759.088-.274.136-.566.136-.869v-6.65z"/></g><path d="m20.214 16.288v8.15c0 2.381-1.93 4.312-4.312 4.312h-.001c-2.381 0-4.312-1.931-4.312-4.312v-8.15z" fill="#c32325"/><path d="m16.75 16.288v5.646c0 .492-.336.892-.75.892s-.75-.4-.75-.892v-5.646z" fill="#9e1c1d"/></svg>