<svg clip-rule="evenodd" fill-rule="evenodd" height="512" stroke-linejoin="round" stroke-miterlimit="2" viewBox="0 0 32 32" width="512" xmlns="http://www.w3.org/2000/svg" xmlns:xlink="http://www.w3.org/1999/xlink"><radialGradient id="_Radial1" cx="16" cy="16" gradientUnits="userSpaceOnUse" r="14.75"><stop offset="0" stop-color="#fbef57"/><stop offset="1" stop-color="#fbc02a"/></radialGradient><path d="m8.625 3.226c-7.05 4.07-9.469 13.099-5.399 20.149s13.099 9.469 20.149 5.399 9.469-13.099 5.399-20.149-13.099-9.469-20.149-5.399z" fill="url(#_Radial1)"/><path d="m7.189 11.194c-1.684.972-2.261 3.128-1.289 4.812.972 1.683 3.128 2.261 4.812 1.289 1.683-.972 2.261-3.128 1.289-4.812-.972-1.683-3.128-2.261-4.812-1.289z" fill="#fff"/><path d="m7.939 12.493c.967-.558 2.205-.226 2.763.74.558.967.226 2.205-.74 2.763-.967.558-2.205.227-2.763-.74s-.227-2.205.74-2.763z" fill="#3c4d4d"/><path d="m16.243 5.966c-1.683.973-2.261 3.129-1.289 4.812.972 1.684 3.128 2.262 4.812 1.29s2.261-3.129 1.289-4.812c-.972-1.684-3.128-2.262-4.812-1.29z" fill="#fff"/><path d="m16.993 7.265c.967-.558 2.205-.226 2.763.741s.227 2.205-.74 2.763-2.205.226-2.763-.741c-.558-.966-.226-2.204.74-2.763z" fill="#3c4d4d"/><path d="m16.75 22.496v2.96c0 .066.004.131.01.195.023.213-.046.425-.189.584-.143.158-.348.248-.562.247-2.413-.018-4.695-.925-6.314-2.593-.443-.463-.594-1.133-.392-1.742s.723-1.056 1.348-1.162c4.966-.894 9.068-3.277 12.316-7.125.411-.497 1.063-.727 1.695-.596.632.13 1.14.599 1.323 1.226 1.06 3.763-.694 8.104-4.503 10.441-.231.142-.521.148-.758.015-.237-.132-.384-.383-.384-.654v-3.701c-1.626 1.022-2.795 1.562-3.59 1.905z" fill="#3c4d4d"/><path d="m21.84 19.203c0-.278-.154-.533-.4-.663s-.543-.113-.773.043c-2.51 1.713-4.085 2.355-4.96 2.727-.277.117-.457.389-.457.69v3.456c0 1.819 1.475 3.294 3.294 3.294h.002c1.819 0 3.294-1.475 3.294-3.294 0-2.598 0-6.253 0-6.253z" fill="#c32325"/></svg>