<svg clip-rule="evenodd" fill-rule="evenodd" height="512" stroke-linejoin="round" stroke-miterlimit="2" viewBox="0 0 32 32" width="512" xmlns="http://www.w3.org/2000/svg" xmlns:xlink="http://www.w3.org/1999/xlink"><radialGradient id="_Radial1" cx="16" cy="16.288" gradientUnits="userSpaceOnUse" r="14.75"><stop offset="0" stop-color="#fbef57"/><stop offset="1" stop-color="#fbc02a"/></radialGradient><circle cx="16" cy="16.288" fill="url(#_Radial1)" r="14.75"/><circle cx="10.536" cy="12.496" fill="#fff" r="3.7"/><circle cx="21.464" cy="12.496" fill="#fff" r="3.7"/><g fill="#3c4d4d"><circle cx="21.464" cy="12.496" r="1.656"/><circle cx="10.536" cy="12.496" r="1.656"/><path d="m22.853 22.285c-1.791-1.517-4.201-2.452-6.853-2.452s-5.062.935-6.853 2.452c-.316.268-.355.742-.088 1.057.268.316.741.355 1.057.088 1.537-1.302 3.609-2.097 5.884-2.097s4.347.795 5.884 2.097c.316.267.789.228 1.057-.088.267-.315.228-.789-.088-1.057z"/></g></svg>