<svg clip-rule="evenodd" fill-rule="evenodd" height="512" stroke-linejoin="round" stroke-miterlimit="2" viewBox="0 0 32 32" width="512" xmlns="http://www.w3.org/2000/svg" xmlns:xlink="http://www.w3.org/1999/xlink"><radialGradient id="_Radial1" cx="16" cy="16" gradientUnits="userSpaceOnUse" r="14.75"><stop offset="0" stop-color="#fbef57"/><stop offset="1" stop-color="#fbc02a"/></radialGradient><circle cx="16" cy="16" fill="url(#_Radial1)" r="14.75"/><path d="m10.583 9.977c0-.414-.336-.75-.75-.75-.415 0-.75.336-.75.75v2.046c0 .414.335.75.75.75.414 0 .75-.336.75-.75 0-.602 0-1.444 0-2.046z" fill="#3c4d4d"/><path d="m23 9.977c0-.414-.336-.75-.75-.75s-.75.336-.75.75v2.046c0 .414.336.75.75.75s.75-.336.75-.75c0-.602 0-1.444 0-2.046z" fill="#3c4d4d"/><path d="m16.75 22c0-.414-.336-.75-.75-.75h-3c-.414 0-.75.336-.75.75v1.729c0 .597.237 1.169.659 1.591s.994.659 1.591.659 1.169-.237 1.591-.659.659-.994.659-1.591c0-.844 0-1.729 0-1.729z" fill="#fff"/><path d="m19.75 22c0-.414-.336-.75-.75-.75h-3c-.414 0-.75.336-.75.75v1.729c0 .597.237 1.169.659 1.591s.994.659 1.591.659 1.169-.237 1.591-.659.659-.994.659-1.591c0-.844 0-1.729 0-1.729z" fill="#fff"/><g fill="#3c4d4d"><path d="m22 21.25h-12c-.414 0-.75.336-.75.75s.336.75.75.75h12c.414 0 .75-.336.75-.75s-.336-.75-.75-.75z"/><path d="m8.583 5.25c-3.174 0-5.75 2.576-5.75 5.75s2.576 5.75 5.75 5.75c3.173 0 5.75-2.576 5.75-5.75s-2.577-5.75-5.75-5.75zm0 1.5c2.345 0 4.25 1.904 4.25 4.25s-1.905 4.25-4.25 4.25c-2.346 0-4.25-1.904-4.25-4.25s1.904-4.25 4.25-4.25z"/><path d="m23.417 5.25c-3.173 0-5.75 2.576-5.75 5.75s2.577 5.75 5.75 5.75c3.174 0 5.75-2.576 5.75-5.75s-2.576-5.75-5.75-5.75zm0 1.5c2.346 0 4.25 1.904 4.25 4.25s-1.904 4.25-4.25 4.25c-2.345 0-4.25-1.904-4.25-4.25s1.905-4.25 4.25-4.25z"/><path d="m13.789 9.758s0 0 .001-.001c.586-.586 1.381-.915 2.21-.915s1.624.329 2.21.915l1.061-1.06c-.867-.868-2.044-1.355-3.271-1.355s-2.404.487-3.271 1.355z"/></g></svg>