<svg clip-rule="evenodd" fill-rule="evenodd" height="512" stroke-linejoin="round" stroke-miterlimit="2" viewBox="0 0 32 32" width="512" xmlns="http://www.w3.org/2000/svg" xmlns:xlink="http://www.w3.org/1999/xlink"><radialGradient id="_Radial1" cx="16" cy="15.993" gradientUnits="userSpaceOnUse" r="14.75"><stop offset="0" stop-color="#fbef57"/><stop offset="1" stop-color="#fbc02a"/></radialGradient><path d="m16 30.743c8.141 0 14.75-6.609 14.75-14.75 0-8.14-6.609-14.75-14.75-14.75s-14.75 6.61-14.75 14.75c0 8.141 6.609 14.75 14.75 14.75z" fill="url(#_Radial1)"/><circle cx="11.386" cy="21.766" fill="#fff" r="3.523"/><circle cx="11.386" cy="21.766" fill="#3c4d4d" r="2.023"/><circle cx="20.614" cy="21.766" fill="#fff" r="3.523"/><g fill="#3c4d4d"><circle cx="20.614" cy="21.766" r="2.023"/><path d="m22.853 9.421c-1.791-1.518-4.201-2.452-6.853-2.452s-5.062.934-6.853 2.452c-.316.268-.355.741-.088 1.057.268.316.741.355 1.057.087 1.537-1.302 3.609-2.096 5.884-2.096s4.347.794 5.884 2.096c.316.268.789.229 1.057-.087.267-.316.228-.789-.088-1.057z"/></g></svg>