<svg clip-rule="evenodd" fill-rule="evenodd" height="512" stroke-linejoin="round" stroke-miterlimit="2" viewBox="0 0 32 32" width="512" xmlns="http://www.w3.org/2000/svg" xmlns:xlink="http://www.w3.org/1999/xlink"><radialGradient id="_Radial1" cx="16.172" cy="16.196" gradientUnits="userSpaceOnUse" r="14.75"><stop offset="0" stop-color="#fbef57"/><stop offset="1" stop-color="#fbc02a"/></radialGradient><path d="m25.413 8.939 1.532-1.531c.155-.155.369-.234.588-.218.218.017.418.129.547.305 1.787 2.441 2.842 5.449 2.842 8.701 0 8.141-6.61 14.75-14.75 14.75-3.046 0-5.877-.925-8.229-2.51-.186-.125-.306-.327-.328-.55-.021-.223.058-.444.217-.602 0 0 1.662-1.662 1.662-1.662.266-.266.415-.627.415-1.003s-.149-.737-.415-1.003h-.001c-.266-.266-.626-.416-1.002-.416-.377 0-.737.15-1.003.416-.43.429-.782.781-.782.781-.293.293-.767.293-1.06 0 0 0-.352-.352-.782-.781-.266-.266-.626-.416-1.003-.416-.046 0-.092.003-.138.007-.308.03-.604-.133-.743-.41-.997-1.986-1.558-4.228-1.558-6.601 0-8.141 6.609-14.75 14.75-14.75 1.796 0 3.519.322 5.112.912.213.078.379.249.451.464s.043.452-.079.643c-.157.247-.243.535-.243.833 0 .41.163.804.453 1.094z" fill="url(#_Radial1)"/><g fill="#3c4d4d"><path d="m22.504 18.369c-1.676 1.479-3.973 2.387-6.504 2.387s-4.828-.908-6.504-2.387c-.31-.274-.784-.244-1.058.066s-.245.785.066 1.059c1.932 1.705 4.578 2.762 7.496 2.762s5.564-1.057 7.496-2.762c.311-.274.34-.749.066-1.059s-.748-.34-1.058-.066z"/><path d="m19.472 12.494c0-.69.56-1.25 1.25-1.25.689 0 1.25.56 1.25 1.25 0 .414.336.75.75.75s.75-.336.75-.75c0-1.518-1.233-2.75-2.75-2.75-1.518 0-2.75 1.232-2.75 2.75 0 .414.336.75.75.75s.75-.336.75-.75z"/><path d="m10.028 12.494c0-.69.561-1.25 1.25-1.25.69 0 1.25.56 1.25 1.25 0 .414.336.75.75.75s.75-.336.75-.75c0-1.518-1.232-2.75-2.75-2.75-1.517 0-2.75 1.232-2.75 2.75 0 .414.336.75.75.75s.75-.336.75-.75z"/></g><path d="m25.413 2.44.298-.297c.571-.572 1.347-.893 2.155-.893s1.583.321 2.155.893c.572.571.893 1.347.893 2.155s-.321 1.583-.893 2.155c-1.685 1.685-4.077 4.077-4.077 4.077-.293.293-.768.293-1.061 0 0 0-2.392-2.392-4.077-4.077-.572-.572-.893-1.347-.893-2.155s.321-1.584.893-2.155c.571-.572 1.346-.893 2.155-.893.808 0 1.583.321 2.155.893z" fill="#c62829"/><path d="m6.176 22.806.251-.251c.547-.547 1.29-.855 2.064-.855s1.516.308 2.063.855c.548.548.855 1.29.855 2.064s-.307 1.516-.855 2.063c-1.59 1.591-3.848 3.848-3.848 3.848-.293.293-.767.293-1.06 0 0 0-2.258-2.257-3.848-3.848-.548-.547-.855-1.289-.855-2.063s.307-1.516.855-2.064c.547-.547 1.289-.855 2.063-.855s1.517.308 2.064.855z" fill="#c62829"/></svg>