<svg clip-rule="evenodd" fill-rule="evenodd" height="512" stroke-linejoin="round" stroke-miterlimit="2" viewBox="0 0 32 32" width="512" xmlns="http://www.w3.org/2000/svg" xmlns:xlink="http://www.w3.org/1999/xlink"><radialGradient id="_Radial1" cx="16" cy="16" gradientUnits="userSpaceOnUse" r="14.75"><stop offset="0" stop-color="#fbef57"/><stop offset="1" stop-color="#fbc02a"/></radialGradient><circle cx="16" cy="16" fill="url(#_Radial1)" r="14.75"/><circle cx="11.784" cy="12.631" fill="#fff" r="2.887"/><circle cx="20.31" cy="12.631" fill="#fff" r="2.887"/><g fill="#3c4d4d"><circle cx="20.31" cy="12.631" r="1.292"/><circle cx="11.784" cy="12.631" r="1.292"/><path d="m7.623 11.413c.853-1.273 2.02-2.319 3.389-3.027.367-.19.512-.643.321-1.011-.19-.368-.643-.512-1.01-.322-1.594.825-2.953 2.043-3.946 3.525-.23.344-.138.81.206 1.041.343.23.81.138 1.04-.206z"/><path d="m20.988 8.386c1.369.708 2.536 1.754 3.389 3.027.23.344.697.436 1.04.206.344-.231.436-.697.206-1.041-.993-1.482-2.352-2.7-3.946-3.525-.367-.19-.82-.046-1.01.322-.191.368-.046.821.321 1.011z"/><path d="m16 18.25c-3.008 0-5.398 2.161-5.398 4.75 0 2.623 2.35 3.75 5.398 3.75s5.398-1.127 5.398-3.75c0-2.589-2.39-4.75-5.398-4.75z"/></g><path d="m12.178 25.871c.47-1.367 2.011-2.371 3.837-2.371 1.819 0 3.355.996 3.832 2.355-.969.612-2.32.895-3.847.895-1.514 0-2.855-.278-3.822-.879z" fill="#c32325"/></svg>