<svg clip-rule="evenodd" fill-rule="evenodd" height="512" stroke-linejoin="round" stroke-miterlimit="2" viewBox="0 0 32 32" width="512" xmlns="http://www.w3.org/2000/svg" xmlns:xlink="http://www.w3.org/1999/xlink"><radialGradient id="_Radial1" cx="15.994" cy="16.253" gradientUnits="userSpaceOnUse" r="14.75"><stop offset="0" stop-color="#fbef57"/><stop offset="1" stop-color="#fbc02a"/></radialGradient><circle cx="15.993" cy="16.252" fill="url(#_Radial1)" r="14.75"/><g fill="#3c4d4d"><path d="m24.234 22.813c-2.148-2.976-5.06-4.767-8.241-4.767-3.18 0-6.092 1.791-8.241 4.767-.242.336-.166.805.169 1.047.336.243.805.167 1.047-.169 1.841-2.549 4.3-4.145 7.025-4.145s5.184 1.596 7.025 4.145c.242.336.711.412 1.047.169.336-.242.412-.711.169-1.047z"/><path d="m9.844 11.286-1.431-1.431c-.292-.292-.292-.768 0-1.06.293-.293.768-.293 1.061 0l1.43 1.43 1.431-1.43c.292-.293.767-.293 1.06 0 .293.292.293.768 0 1.06l-1.43 1.431 1.43 1.43c.293.293.293.768 0 1.06-.293.293-.768.293-1.06 0l-1.431-1.43-1.43 1.43c-.293.293-.768.293-1.061 0-.292-.292-.292-.767 0-1.06z"/><path d="m19.942 11.213-1.43-1.43c-.293-.293-.293-.768 0-1.061s.768-.293 1.061 0l1.43 1.43 1.43-1.43c.293-.293.768-.293 1.061 0s.293.768 0 1.061l-1.43 1.43 1.43 1.43c.293.293.293.768 0 1.061-.293.292-.768.292-1.061 0l-1.43-1.431-1.43 1.431c-.293.292-.768.292-1.061 0-.293-.293-.293-.768 0-1.061z"/></g></svg>