<svg clip-rule="evenodd" fill-rule="evenodd" height="512" stroke-linejoin="round" stroke-miterlimit="2" viewBox="0 0 32 32" width="512" xmlns="http://www.w3.org/2000/svg" xmlns:xlink="http://www.w3.org/1999/xlink"><radialGradient id="_Radial1" cx="16" cy="16.258" gradientUnits="userSpaceOnUse" r="14.75"><stop offset="0" stop-color="#fbef57"/><stop offset="1" stop-color="#fbc02a"/></radialGradient><circle cx="16" cy="16.258" fill="url(#_Radial1)" r="14.75"/><path d="m11.015 9.752.043-.044c.413-.413.972-.644 1.555-.644s1.142.231 1.554.644c.412.412.644.971.644 1.554s-.232 1.142-.644 1.554c-1.098 1.098-2.657 2.657-2.657 2.657-.274.274-.717.274-.991 0 0 0-1.559-1.559-2.657-2.657-.412-.412-.644-.971-.644-1.554s.232-1.142.644-1.554c.412-.413.971-.644 1.554-.644s1.142.231 1.555.644z" fill="#c62829"/><path d="m20.985 9.752.044-.044c.413-.413.972-.644 1.555-.644s1.142.231 1.554.644c.412.412.644.971.644 1.554s-.232 1.142-.644 1.554c-1.098 1.098-2.657 2.657-2.657 2.657-.274.274-.717.274-.991 0 0 0-1.559-1.559-2.657-2.657-.412-.412-.644-.971-.644-1.554s.232-1.142.644-1.554c.412-.413.971-.644 1.554-.644s1.142.231 1.555.644z" fill="#c62829"/><path d="m23.148 21.428c-1.867 1.582-4.384 2.548-7.148 2.548s-5.281-.966-7.148-2.548c-.316-.268-.79-.229-1.057.087-.268.316-.229.79.087 1.057 2.122 1.798 4.977 2.904 8.118 2.904s5.996-1.106 8.118-2.904c.316-.267.355-.741.087-1.057-.267-.316-.741-.355-1.057-.087z" fill="#3c4d4d"/></svg>