<svg clip-rule="evenodd" fill-rule="evenodd" height="512" stroke-linejoin="round" stroke-miterlimit="2" viewBox="0 0 32 32" width="512" xmlns="http://www.w3.org/2000/svg" xmlns:xlink="http://www.w3.org/1999/xlink"><radialGradient id="_Radial1" cx="16" cy="16" gradientUnits="userSpaceOnUse" r="14.75"><stop offset="0" stop-color="#fbef57"/><stop offset="1" stop-color="#fbc02a"/></radialGradient><circle cx="16" cy="16" fill="url(#_Radial1)" r="14.75"/><g fill="#3c4d4d"><path d="m6.597 19.685c.974 3.871 4.802 6.794 9.396 6.794 4.596 0 8.425-2.924 9.41-6.795.154-.633-.051-1.293-.533-1.722s-1.162-.557-1.766-.332c-4.738 1.709-9.482 1.722-14.229.012-.594-.22-1.269-.093-1.748.333s-.684 1.082-.532 1.705z"/><path d="m20.301 12.371 1.508 1.508c.292.292.292.768 0 1.06-.293.293-.768.293-1.061 0l-2.038-2.038c-.293-.293-.293-.767 0-1.06l2.038-2.038c.293-.293.768-.293 1.061 0 .292.292.292.768 0 1.06z"/><path d="m11.699 12.371-1.508-1.508c-.292-.292-.292-.768 0-1.06.293-.293.768-.293 1.061 0l2.038 2.038c.293.293.293.767 0 1.06l-2.038 2.038c-.293.293-.768.293-1.061 0-.292-.292-.292-.768 0-1.06z"/></g><path d="m11.479 25.461c.493-2.01 2.411-3.51 4.699-3.51 2.226 0 4.101 1.419 4.655 3.345-1.421.752-3.074 1.183-4.84 1.183-1.632 0-3.168-.369-4.514-1.018z" fill="#c32325"/></svg>