<svg clip-rule="evenodd" fill-rule="evenodd" height="512" stroke-linejoin="round" stroke-miterlimit="2" viewBox="0 0 32 32" width="512" xmlns="http://www.w3.org/2000/svg" xmlns:xlink="http://www.w3.org/1999/xlink"><radialGradient id="_Radial1" cx="16.006" cy="16" gradientUnits="userSpaceOnUse" r="14.75"><stop offset="0" stop-color="#fbef57"/><stop offset="1" stop-color="#fbc02a"/></radialGradient><circle cx="16.007" cy="16" fill="url(#_Radial1)" r="14.75"/><path d="m22.853 24.113c-1.791-1.518-4.201-2.452-6.853-2.452s-5.062.934-6.853 2.452c-.316.267-.355.741-.088 1.057.268.316.741.355 1.057.087 1.537-1.302 3.609-2.096 5.884-2.096s4.347.794 5.884 2.096c.316.268.789.229 1.057-.087.267-.316.228-.79-.088-1.057z" fill="#3c4d4d"/><circle cx="11.293" cy="13.815" fill="#fff" r="3.25"/><circle cx="11.293" cy="13.815" fill="#3c4d4d" r="1.75"/><circle cx="20.72" cy="13.815" fill="#fff" r="3.25"/><g fill="#3c4d4d"><circle cx="20.72" cy="13.815" r="1.75"/><path d="m19.911 8.649 4.714 2.723c.358.208.817.085 1.024-.274.207-.358.085-.817-.274-1.024l-4.713-2.723c-.359-.207-.818-.085-1.025.274-.207.358-.084.817.274 1.024z"/><path d="m11.613 7.351-4.714 2.723c-.358.207-.481.666-.274 1.024.207.359.666.482 1.025.274l4.713-2.723c.359-.207.482-.666.275-1.024-.207-.359-.667-.481-1.025-.274z"/></g></svg>