<svg clip-rule="evenodd" fill-rule="evenodd" height="512" stroke-linejoin="round" stroke-miterlimit="2" viewBox="0 0 32 32" width="512" xmlns="http://www.w3.org/2000/svg" xmlns:xlink="http://www.w3.org/1999/xlink"><radialGradient id="_Radial1" cx="16" cy="16" gradientUnits="userSpaceOnUse" r="14.75"><stop offset="0" stop-color="#fbef57"/><stop offset="1" stop-color="#fbc02a"/></radialGradient><circle cx="16" cy="16" fill="url(#_Radial1)" r="14.75"/><g fill="#3c4d4d"><path d="m22.015 22.25h-12c-.414 0-.75.336-.75.75s.336.75.75.75h12c.414 0 .75-.336.75-.75s-.336-.75-.75-.75z"/><path d="m12.313 11.621h-4.516c-.414 0-.75.336-.75.75s.336.75.75.75h4.516c.414 0 .75-.336.75-.75s-.336-.75-.75-.75z"/><path d="m24.203 11.621h-4.516c-.414 0-.75.336-.75.75s.336.75.75.75h4.516c.414 0 .75-.336.75-.75s-.336-.75-.75-.75z"/></g></svg>