<svg clip-rule="evenodd" fill-rule="evenodd" height="512" stroke-linejoin="round" stroke-miterlimit="2" viewBox="0 0 32 32" width="512" xmlns="http://www.w3.org/2000/svg" xmlns:xlink="http://www.w3.org/1999/xlink"><radialGradient id="_Radial1" cx="16" cy="16.252" gradientUnits="userSpaceOnUse" r="14.75"><stop offset="0" stop-color="#fbef57"/><stop offset="1" stop-color="#fbc02a"/></radialGradient><circle cx="16" cy="16.252" fill="url(#_Radial1)" r="14.75"/><g fill="#3c4d4d"><path d="m11.482 6.628-3.227 1.864c-.358.207-.481.666-.274 1.024.207.359.666.482 1.025.274l3.226-1.864c.359-.207.482-.666.275-1.024-.207-.359-.667-.482-1.025-.274z"/><path d="m19.768 7.926 3.227 1.864c.359.208.818.085 1.025-.274.207-.358.084-.817-.274-1.024l-3.227-1.864c-.359-.208-.818-.085-1.025.274-.207.358-.084.817.274 1.024z"/><path d="m20.558 14.306 1.962 1.437c.334.244.406.714.162 1.048-.245.334-.715.407-1.049.162l-2.788-2.042c-.193-.142-.307-.366-.307-.605s.114-.464.307-.605l2.788-2.043c.334-.244.804-.172 1.049.162.244.334.172.804-.162 1.048z"/><path d="m11.457 14.306-1.962-1.438c-.334-.244-.407-.714-.162-1.048s.714-.406 1.048-.162l2.788 2.043c.193.141.307.366.307.605s-.114.463-.307.605l-2.788 2.042c-.334.245-.803.172-1.048-.162s-.172-.804.162-1.048z"/><path d="m15.884 23.29 2.079-1.63c.272-.213.654-.213.926 0l2.092 1.64 2.089-1.638c.325-.255.797-.198 1.053.128.255.326.198.797-.128 1.053l-2.551 2c-.272.213-.654.213-.926 0l-2.092-1.64-2.079 1.63c-.272.213-.654.213-.926 0l-2.076-1.628-2.089 1.638c-.271.213-.653.213-.925 0l-2.552-2c-.325-.256-.383-.727-.127-1.053.255-.326.727-.383 1.053-.128l2.089 1.638 2.088-1.638c.272-.213.654-.213.926 0z"/></g></svg>