<svg clip-rule="evenodd" fill-rule="evenodd" height="512" stroke-linejoin="round" stroke-miterlimit="2" viewBox="0 0 32 32" width="512" xmlns="http://www.w3.org/2000/svg" xmlns:xlink="http://www.w3.org/1999/xlink"><radialGradient id="_Radial1" cx="16" cy="15.804" gradientUnits="userSpaceOnUse" r="14.75"><stop offset="0" stop-color="#fbef57"/><stop offset="1" stop-color="#fbc02a"/></radialGradient><circle cx="16" cy="15.804" fill="url(#_Radial1)" r="14.75"/><path d="m6.597 19.489c.974 3.871 4.802 6.794 9.396 6.794 4.596 0 8.425-2.924 9.41-6.795.154-.633-.051-1.293-.533-1.722s-1.162-.557-1.766-.332c-4.738 1.709-9.482 1.722-14.229.012-.594-.22-1.269-.093-1.748.333s-.684 1.082-.532 1.705z" fill="#3c4d4d"/><circle cx="10.877" cy="12.09" fill="#fff" r="2.873"/><circle cx="10.877" cy="12.09" fill="#3c4d4d" r="1.373"/><path d="m20.525 12.175 1.507 1.508c.293.292.293.768 0 1.06-.292.293-.768.293-1.06 0l-2.038-2.038c-.293-.293-.293-.767 0-1.06l2.038-2.038c.292-.293.768-.293 1.06 0 .293.292.293.768 0 1.06z" fill="#3c4d4d"/><path d="m10.502 24.723c.86-1.594 2.999-2.723 5.498-2.723 2.496 0 4.633 1.127 5.495 2.717-1.559.986-3.454 1.566-5.502 1.566-2.043 0-3.935-.578-5.491-1.56z" fill="#c32325"/></svg>