<svg clip-rule="evenodd" fill-rule="evenodd" height="512" stroke-linejoin="round" stroke-miterlimit="2" viewBox="0 0 32 32" width="512" xmlns="http://www.w3.org/2000/svg" xmlns:xlink="http://www.w3.org/1999/xlink"><radialGradient id="_Radial1" cx="15.902" cy="16.204" gradientUnits="userSpaceOnUse" r="14.75"><stop offset="0" stop-color="#fbef57"/><stop offset="1" stop-color="#fbc02a"/></radialGradient><path d="m29.901 11.552c-.08-.241-.277-.425-.522-.489-.246-.064-.508.001-.695.172-.31.284-.722.457-1.175.457-.961 0-1.741-.78-1.741-1.741 0-.848.351-2.123.768-3.382.09-.269.02-.565-.18-.765-2.671-2.686-6.37-4.35-10.454-4.35-8.141 0-14.75 6.61-14.75 14.75 0 8.141 6.609 14.75 14.75 14.75 8.14 0 14.75-6.609 14.75-14.75 0-1.624-.264-3.188-.751-4.652z" fill="url(#_Radial1)"/><g fill="#3c4d4d"><path d="m5.176 16.614c.083-.323.377-.561.726-.561h20c.414 0 .75.336.75.75 0 5.358-4.797 9.75-10.75 9.75-5.954 0-10.75-4.392-10.75-9.75l.008-.114z"/><path d="m9.25 11.653c0-1.055.857-1.912 1.912-1.912s1.912.857 1.912 1.912c0 .414.336.75.75.75s.75-.336.75-.75c0-1.883-1.529-3.412-3.412-3.412s-3.412 1.529-3.412 3.412c0 .414.336.75.75.75s.75-.336.75-.75z"/><path d="m18.926 11.653c0-1.055.857-1.912 1.912-1.912s1.912.857 1.912 1.912c0 .414.336.75.75.75s.75-.336.75-.75c0-1.883-1.529-3.412-3.412-3.412s-3.412 1.529-3.412 3.412c0 .414.336.75.75.75s.75-.336.75-.75z"/></g><path d="m28.194 1.694c-.121-.27-.389-.444-.685-.444-.295 0-.564.174-.684.444 0 0-2.557 5.782-2.557 8.257 0 1.789 1.453 3.241 3.241 3.241 1.789 0 3.241-1.452 3.241-3.241 0-2.475-2.556-8.257-2.556-8.257z" fill="#02ace7"/><path d="m8.537 23.902c1.442-1.668 4.201-2.797 7.365-2.797 3.163 0 5.922 1.129 7.364 2.797-1.922 1.641-4.51 2.651-7.364 2.651-2.855 0-5.443-1.01-7.365-2.651z" fill="#c32325"/></svg>