<svg clip-rule="evenodd" fill-rule="evenodd" height="512" stroke-linejoin="round" stroke-miterlimit="2" viewBox="0 0 32 32" width="512" xmlns="http://www.w3.org/2000/svg" xmlns:xlink="http://www.w3.org/1999/xlink"><radialGradient id="_Radial1" cx="15.993" cy="16.252" gradientUnits="userSpaceOnUse" r="14.75"><stop offset="0" stop-color="#fbef57"/><stop offset="1" stop-color="#fbc02a"/></radialGradient><circle cx="15.993" cy="16.252" fill="url(#_Radial1)" r="14.75"/><g fill="#3c4d4d"><path d="m8.545 17.879c-.2-.002-.393.076-.535.217s-.223.333-.223.533c0 4.091 3.654 7.454 8.2 7.454s8.199-3.363 8.199-7.454c0-.413-.333-.748-.746-.75-4.965-.026-9.93.05-14.895 0z"/><path d="m20.253 9.269-1.433 1.957c-.245.333-.714.406-1.048.161-.334-.244-.407-.714-.162-1.048l2.038-2.782c.141-.193.366-.307.605-.307s.464.114.605.307l2.038 2.782c.244.334.172.804-.162 1.048-.334.245-.804.172-1.048-.161z"/><path d="m11.734 9.269-1.433 1.957c-.245.333-.714.406-1.048.161-.334-.244-.407-.714-.162-1.048l2.038-2.782c.141-.193.366-.307.605-.307s.464.114.605.307l2.038 2.782c.244.334.172.804-.162 1.048-.334.245-.804.172-1.048-.161z"/><path d="m4.91 15.62h2.564c.414 0 .75-.336.75-.75s-.336-.75-.75-.75h-2.564c-.414 0-.75.336-.75.75s.336.75.75.75z"/><path d="m24.526 15.62h2.564c.414 0 .75-.336.75-.75s-.336-.75-.75-.75h-2.564c-.414 0-.75.336-.75.75s.336.75.75.75z"/></g><path d="m11.035 24.569c.768-1.502 2.709-2.569 4.979-2.569 2.256 0 4.187 1.054 4.964 2.541-1.38.966-3.109 1.542-4.991 1.542-1.864 0-3.578-.565-4.952-1.514z" fill="#c32325"/></svg>