<svg clip-rule="evenodd" fill-rule="evenodd" height="512" stroke-linejoin="round" stroke-miterlimit="2" viewBox="0 0 32 32" width="512" xmlns="http://www.w3.org/2000/svg" xmlns:xlink="http://www.w3.org/1999/xlink"><radialGradient id="_Radial1" cx="16" cy="16.25" gradientUnits="userSpaceOnUse" r="14.848"><stop offset="0" stop-color="#c62829"/><stop offset="1" stop-color="#c32325"/></radialGradient><circle cx="16" cy="16" fill="url(#_Radial1)" r="14.75"/><path d="m23.496 22.438c-1.883-1.663-4.461-2.693-7.305-2.693s-5.422 1.03-7.306 2.693c-.31.274-.34.748-.066 1.058.274.311.749.34 1.059.066 1.627-1.436 3.857-2.317 6.313-2.317s4.686.881 6.313 2.317c.31.274.784.245 1.058-.066.274-.31.245-.784-.066-1.058z" fill="#3c4d4d"/><path d="m10.5 10.461c-1.774 0-3.25 1.547-3.25 3.495s1.476 3.495 3.25 3.495 3.25-1.547 3.25-3.495-1.476-3.495-3.25-3.495z" fill="#fff"/><path d="m10.5 11.961c.986 0 1.75.912 1.75 1.995s-.764 1.995-1.75 1.995-1.75-.912-1.75-1.995.764-1.995 1.75-1.995z" fill="#3c4d4d"/><path d="m21.514 10.549c-1.773 0-3.25 1.547-3.25 3.495s1.477 3.495 3.25 3.495c1.774 0 3.25-1.547 3.25-3.495s-1.476-3.495-3.25-3.495z" fill="#fff"/><g fill="#3c4d4d"><path d="m21.514 12.049c.987 0 1.75.912 1.75 1.995s-.763 1.995-1.75 1.995c-.986 0-1.75-.912-1.75-1.995s.764-1.995 1.75-1.995z"/><path d="m18.533 8.698c.765-.868 2.249-2.01 4.446-1.75.411.049.705.422.657.833-.049.411-.422.705-.833.657-1.703-.202-2.795.798-3.275 1.407-.236.314-.603.501-.996.509-.392.007-.766-.167-1.014-.473-.325-.402-.7-1.381-.7-1.381-.143-.388.057-.82.445-.963s.82.056.963.445c0 0 .14.405.307.716z"/><path d="m13.467 8.698c.167-.311.307-.716.307-.716.143-.389.575-.588.963-.445s.588.575.445.963c0 0-.375.979-.7 1.382-.248.305-.622.479-1.014.472-.393-.008-.76-.195-.985-.495-.491-.623-1.583-1.623-3.286-1.421-.411.048-.784-.246-.833-.657-.048-.411.246-.784.657-.833 2.197-.26 3.68.882 4.446 1.75z"/></g></svg>