<svg clip-rule="evenodd" fill-rule="evenodd" height="512" stroke-linejoin="round" stroke-miterlimit="2" viewBox="0 0 32 32" width="512" xmlns="http://www.w3.org/2000/svg" xmlns:xlink="http://www.w3.org/1999/xlink"><radialGradient id="_Radial1" cx="16" cy="16" gradientUnits="userSpaceOnUse" r="14.75"><stop offset="0" stop-color="#fbef57"/><stop offset="1" stop-color="#fbc02a"/></radialGradient><path d="m7.291 4.097c-.286.21-.386.591-.24.914.583 1.292 1.199 2.812 1.199 3.727 0 .966-.784 1.75-1.75 1.75-.954 0-1.731-.765-1.75-1.715-.006-.334-.233-.623-.556-.709-.322-.087-.663.051-.836.337-1.338 2.22-2.108 4.82-2.108 7.599 0 8.141 6.609 14.75 14.75 14.75s14.75-6.609 14.75-14.75-6.609-14.75-14.75-14.75c-3.257 0-6.268 1.058-8.709 2.847z" fill="url(#_Radial1)"/><g fill="#3c4d4d"><path d="m23.306 22.438c-1.884-1.663-4.462-2.693-7.306-2.693s-5.422 1.03-7.306 2.693c-.31.274-.339.748-.066 1.058.274.311.749.34 1.059.066 1.627-1.436 3.857-2.317 6.313-2.317s4.686.881 6.313 2.317c.31.274.785.245 1.059-.066.273-.31.244-.784-.066-1.058z"/><path d="m18.084 12.917c0 1.564 1.27 2.833 2.833 2.833 1.564 0 2.833-1.269 2.833-2.833 0-.414-.336-.75-.75-.75s-.75.336-.75.75c0 .736-.597 1.333-1.333 1.333-.735 0-1.333-.597-1.333-1.333 0-.414-.336-.75-.75-.75s-.75.336-.75.75z"/><path d="m8.25 12.917c0 1.564 1.269 2.833 2.833 2.833 1.563 0 2.833-1.269 2.833-2.833 0-.414-.336-.75-.75-.75s-.75.336-.75.75c0 .736-.598 1.333-1.333 1.333-.736 0-1.333-.597-1.333-1.333 0-.414-.336-.75-.75-.75s-.75.336-.75.75z"/></g><path d="m7.158 1.845c-.131-.241-.384-.391-.658-.391s-.527.15-.658.391c0 0-1.254 2.295-2.007 4.36-.35.961-.585 1.879-.585 2.533 0 1.794 1.456 3.25 3.25 3.25s3.25-1.456 3.25-3.25c0-.654-.235-1.572-.585-2.533-.753-2.065-2.007-4.36-2.007-4.36z" fill="#02ace7"/></svg>