<svg clip-rule="evenodd" fill-rule="evenodd" height="512" stroke-linejoin="round" stroke-miterlimit="2" viewBox="0 0 32 32" width="512" xmlns="http://www.w3.org/2000/svg" xmlns:xlink="http://www.w3.org/1999/xlink"><radialGradient id="_Radial1" cx="16" cy="16" gradientUnits="userSpaceOnUse" r="14.75"><stop offset="0" stop-color="#fbef57"/><stop offset="1" stop-color="#fbc02a"/></radialGradient><path d="m12.626 5.496-2.61.031c-.191.002-.376-.069-.517-.199l-.989-.912c-.175-.161-.263-.397-.237-.634s.164-.448.371-.567c2.166-1.25 4.678-1.965 7.356-1.965s5.19.715 7.356 1.965c.207.119.345.33.371.567s-.062.473-.237.634l-.989.912c-.141.13-.326.201-.517.199l-2.61-.031 1.09 2.372c.079.174.09.371.029.553l-.836 2.472 2.592-.303c.19-.022.382.029.535.144l2.094 1.558.512-2.559c.038-.188.146-.354.302-.464l1.773-1.257c.169-.12.379-.164.582-.123.203.04.38.163.489.339 1.403 2.257 2.214 4.921 2.214 7.772 0 8.141-6.609 14.75-14.75 14.75s-14.75-6.609-14.75-14.75c0-2.851.811-5.515 2.214-7.772.109-.176.286-.299.489-.339.203-.041.413.003.582.123l1.773 1.257c.156.11.264.276.302.464l.512 2.559 2.094-1.558c.153-.115.345-.166.535-.144l2.592.303-.836-2.472c-.061-.182-.05-.379.029-.553z" fill="url(#_Radial1)"/><path d="m5.28 16.849c.07-.342.373-.599.735-.599h20c.414 0 .75.336.75.75 0 5.358-4.796 9.75-10.75 9.75s-10.75-4.392-10.75-9.75l.009-.114z" fill="#3c4d4d"/><path d="m8.928 23.442c-.223.329-.151.776.165 1.017 1.867 1.427 4.283 2.291 6.922 2.291s5.055-.864 6.922-2.291c.316-.241.388-.688.165-1.017-1.261-1.859-3.951-3.192-7.087-3.192-3.137 0-5.826 1.333-7.087 3.192z" fill="#c32325"/><g fill="#ff921d"><path d="m21.703 4.023 2.572-2.37c.189-.174.454-.24.702-.173s.445.256.522.501l1.041 3.338 3.049 1.713c.224.126.368.358.382.615.013.256-.106.502-.315.651l-2.853 2.022-.687 3.429c-.051.252-.227.461-.467.553s-.51.055-.717-.099l-2.804-2.088-3.474.406c-.255.03-.508-.073-.67-.273s-.21-.469-.127-.712l1.119-3.313-1.46-3.178c-.107-.233-.087-.506.053-.721.14-.216.381-.345.638-.342z"/><path d="m5.46 5.319 1.041-3.338c.077-.245.274-.434.522-.501s.513-.001.702.173l2.572 2.37 3.496-.041c.257-.003.498.126.638.342.14.215.16.488.053.721l-1.46 3.178 1.119 3.313c.083.243.035.512-.127.712s-.415.303-.67.273l-3.474-.406-2.804 2.088c-.207.154-.477.191-.717.099s-.416-.301-.467-.553l-.687-3.429-2.853-2.022c-.209-.149-.328-.395-.315-.651.014-.257.158-.489.382-.615z"/></g></svg>