<svg clip-rule="evenodd" fill-rule="evenodd" height="512" stroke-linejoin="round" stroke-miterlimit="2" viewBox="0 0 32 32" width="512" xmlns="http://www.w3.org/2000/svg" xmlns:xlink="http://www.w3.org/1999/xlink"><radialGradient id="_Radial1" cx="16" cy="15.608" gradientUnits="userSpaceOnUse" r="14.75"><stop offset="0" stop-color="#fbef57"/><stop offset="1" stop-color="#fbc02a"/></radialGradient><circle cx="16" cy="15.608" fill="url(#_Radial1)" r="14.75"/><path d="m6.597 19.293c.974 3.871 4.802 6.794 9.396 6.794 4.596 0 8.425-2.924 9.41-6.795.154-.633-.051-1.293-.533-1.722s-1.162-.557-1.766-.332c-4.738 1.709-9.482 1.722-14.229.012-.594-.22-1.269-.093-1.748.333s-.684 1.082-.532 1.705z" fill="#3c4d4d"/><circle cx="10.877" cy="11.894" fill="#fff" r="2.873"/><circle cx="10.877" cy="11.894" fill="#3c4d4d" r="1.373"/><path d="m23.385 12.008c-.692-.904-1.764-1.434-2.902-1.434s-2.21.53-2.902 1.434c-.251.328-.189.8.14 1.051.329.252.8.189 1.051-.14.408-.532 1.04-.845 1.711-.845s1.303.313 1.711.845c.251.329.722.392 1.051.14.329-.251.391-.723.14-1.051z" fill="#3c4d4d"/><path d="m9.827 24.059c1.185-1.334 3.503-2.242 6.166-2.242 2.664 0 4.983.908 6.168 2.243-1.671 1.264-3.819 2.027-6.168 2.027-2.348 0-4.496-.763-6.166-2.028z" fill="#c32325"/></svg>