<svg clip-rule="evenodd" fill-rule="evenodd" height="512" stroke-linejoin="round" stroke-miterlimit="2" viewBox="0 0 32 32" width="512" xmlns="http://www.w3.org/2000/svg" xmlns:xlink="http://www.w3.org/1999/xlink"><radialGradient id="_Radial1" cx="16" cy="16.062" gradientUnits="userSpaceOnUse" r="14.75"><stop offset="0" stop-color="#fbef57"/><stop offset="1" stop-color="#fbc02a"/></radialGradient><circle cx="16" cy="16.062" fill="url(#_Radial1)" r="14.75"/><g fill="#3c4d4d"><path d="m22.313 20.775c-1.627 1.436-3.857 2.317-6.313 2.317s-4.686-.881-6.313-2.317c-.31-.274-.785-.244-1.059.066-.273.31-.244.785.066 1.059 1.884 1.662 4.462 2.692 7.306 2.692s5.422-1.03 7.306-2.692c.31-.274.339-.749.066-1.059-.274-.31-.749-.34-1.059-.066z"/><path d="m14.919 11.251c.195.419.28.886.239 1.354l-.005.058c-.223 2.546-2.468 4.43-5.014 4.207-.001 0-.002 0-.002 0-2.547-.223-4.43-2.467-4.207-5.014.001-.019.003-.038.005-.058.061-.702.399-1.351.939-1.804s1.238-.673 1.94-.612l1.403.123c3.906.337 7.813.343 11.719.017l1.601-.14c.703-.061 1.401.159 1.941.612s.878 1.102.939 1.804c.002.02.003.039.005.058.223 2.547-1.661 4.791-4.207 5.014-.001 0-.002 0-.002 0-2.547.223-4.791-1.661-5.014-4.207-.002-.019-.003-.039-.005-.058-.041-.468.043-.935.238-1.354-.837.015-1.675.015-2.513 0z"/></g></svg>