<svg clip-rule="evenodd" fill-rule="evenodd" height="512" stroke-linejoin="round" stroke-miterlimit="2" viewBox="0 0 32 32" width="512" xmlns="http://www.w3.org/2000/svg" xmlns:xlink="http://www.w3.org/1999/xlink"><radialGradient id="_Radial1" cx="16" cy="15.401" gradientUnits="userSpaceOnUse" r="14.75"><stop offset="0" stop-color="#fbef57"/><stop offset="1" stop-color="#fbc02a"/></radialGradient><path d="m6.938 27.037c.226.176.533.208.79.083.258-.126.421-.388.421-.674 0 0 0-8.262 0-11.86 0-.493.4-.892.892-.892h.003c.492 0 .892.399.892.892v13.77c0 .304.183.578.465.694 1.726.71 3.617 1.101 5.599 1.101 1.987 0 3.883-.394 5.613-1.107.281-.116.464-.39.464-.694 0 0 0-9.794 0-13.764 0-.237.094-.464.262-.631.167-.167.394-.261.63-.261h.003c.492 0 .892.399.892.892v11.849c0 .287.163.548.421.674s.565.093.791-.083c3.453-2.701 5.674-6.906 5.674-11.625 0-8.14-6.61-14.75-14.75-14.75-8.141 0-14.75 6.61-14.75 14.75 0 4.726 2.226 8.935 5.688 11.636z" fill="url(#_Radial1)"/><g fill="#3c4d4d"><path d="m21.755 9.922h3.391c.414 0 .75.336.75.75s-.336.75-.75.75h-5.281c-.307 0-.583-.187-.697-.473-.113-.286-.041-.612.183-.822l3.713-3.499c.301-.284.776-.27 1.06.031.284.302.27.777-.032 1.06z"/><path d="m10.244 9.922-2.337-2.203c-.301-.283-.315-.758-.032-1.06.284-.301.759-.315 1.061-.031l3.712 3.499c.224.21.296.536.183.822-.114.286-.39.473-.697.473h-5.28c-.414 0-.75-.336-.75-.75s.336-.75.75-.75z"/><path d="m16 16.645c-2.637 0-4.214 2.355-4.214 5.368 0 1.531.415 2.589 1.12 3.28.71.697 1.745 1.048 3.094 1.048s2.383-.351 3.093-1.048c.705-.691 1.121-1.749 1.121-3.28 0-3.013-1.578-5.368-4.214-5.368z"/></g><path d="m11.819 22.737c1.09-.473 2.565-.764 4.188-.764 1.616 0 3.085.288 4.173.758-.111 1.151-.498 1.985-1.087 2.562-.71.697-1.744 1.048-3.093 1.048s-2.384-.351-3.094-1.048c-.588-.576-.975-1.408-1.087-2.556z" fill="#c32325"/><path d="m25.364 14.586c0-.635-.252-1.243-.701-1.692-.448-.448-1.057-.7-1.691-.7h-.003c-.634 0-1.242.252-1.691.7-.449.449-.701 1.057-.701 1.692v15.511c0 .415.336.75.75.75h3.287c.414 0 .75-.335.75-.75z" fill="#02ace7"/><path d="m11.436 14.586c0-.635-.252-1.243-.701-1.692-.448-.448-1.057-.7-1.691-.7h-.003c-.634 0-1.243.252-1.691.7-.449.449-.701 1.057-.701 1.692v15.511c0 .415.336.75.75.75h3.287c.414 0 .75-.335.75-.75z" fill="#02ace7"/></svg>