<svg clip-rule="evenodd" fill-rule="evenodd" height="512" stroke-linejoin="round" stroke-miterlimit="2" viewBox="0 0 32 32" width="512" xmlns="http://www.w3.org/2000/svg" xmlns:xlink="http://www.w3.org/1999/xlink"><radialGradient id="_Radial1" cx="15.994" cy="16" gradientUnits="userSpaceOnUse" r="14.75"><stop offset="0" stop-color="#fbef57"/><stop offset="1" stop-color="#fbc02a"/></radialGradient><circle cx="15.993" cy="16" fill="url(#_Radial1)" r="14.75"/><path d="m11.015 9.381.044-.044c.412-.413.971-.644 1.554-.644s1.142.231 1.554.644c.412.412.644.971.644 1.554s-.232 1.142-.644 1.554c-1.098 1.098-2.657 2.657-2.657 2.657-.274.274-.717.274-.991 0 0 0-1.559-1.559-2.657-2.657-.412-.412-.644-.971-.644-1.554s.232-1.142.644-1.554c.412-.413.971-.644 1.554-.644s1.142.231 1.555.644z" fill="#c62829"/><path d="m20.985 9.381.044-.044c.413-.413.972-.644 1.555-.644s1.142.231 1.554.644c.412.412.644.971.644 1.554s-.232 1.142-.644 1.554c-1.098 1.098-2.657 2.657-2.657 2.657-.274.274-.717.274-.991 0 0 0-1.559-1.559-2.657-2.657-.412-.412-.644-.971-.644-1.554s.232-1.142.644-1.554c.412-.413.971-.644 1.554-.644s1.142.231 1.555.644z" fill="#c62829"/><path d="m6.775 20.224c.974 3.871 4.802 6.794 9.397 6.794s8.424-2.924 9.409-6.795c.155-.633-.051-1.293-.533-1.722s-1.161-.557-1.766-.332c-4.737 1.709-9.481 1.722-14.229.012-.594-.22-1.269-.094-1.748.333-.479.426-.684 1.082-.531 1.705l.001.005z" fill="#3c4d4d"/><path d="m10.677 25.456c.817-1.74 2.973-2.983 5.501-2.983 2.526 0 4.68 1.241 5.498 2.977-1.56.987-3.456 1.568-5.504 1.568-2.045 0-3.937-.578-5.495-1.562z" fill="#c32325"/></svg>