<svg clip-rule="evenodd" fill-rule="evenodd" height="512" stroke-linejoin="round" stroke-miterlimit="2" viewBox="0 0 32 32" width="512" xmlns="http://www.w3.org/2000/svg" xmlns:xlink="http://www.w3.org/1999/xlink"><radialGradient id="_Radial1" cx="15.992" cy="16.061" gradientUnits="userSpaceOnUse" r="14.75"><stop offset="0" stop-color="#fbef57"/><stop offset="1" stop-color="#fbc02a"/></radialGradient><circle cx="15.992" cy="16.061" fill="url(#_Radial1)" r="14.75"/><path d="m15.108 8.638c-.766-.868-2.249-2.01-4.446-1.75-.411.049-.705.422-.657.833.049.411.422.705.833.657 1.703-.202 2.795.798 3.275 1.407.236.314.603.501.996.509.392.007.766-.167 1.014-.473.324-.402.699-1.381.699-1.381.143-.388-.056-.82-.444-.963-.389-.143-.82.057-.963.445 0 0-.141.405-.307.716z" fill="#3c4d4d"/><circle cx="21.858" cy="12.331" fill="#3c4d4d" r="4.335"/><circle cx="21.858" cy="12.331" fill="#fff" r="2.835"/><circle cx="11.199" cy="12.331" fill="#fff" r="3.25"/><g fill="#3c4d4d"><circle cx="11.199" cy="12.331" r="1.75"/><path d="m20.156 22.626s-1.448-.338-2.601-.607c-.981-.229-1.985-.345-2.993-.345h-2.576c-.414 0-.75.336-.75.75s.336.75.75.75h2.576c.893 0 1.783.103 2.652.306 1.153.269 2.601.607 2.601.607.403.094.807-.157.901-.56s-.157-.807-.56-.901z"/><circle cx="21.924" cy="12.331" r="1.509"/><path d="m29.435 30.25c-2.619-.005-4.741-2.13-4.741-4.75v-13.169c0-.414.336-.75.75-.75s.75.336.75.75v13.169c0 1.793 1.452 3.247 3.244 3.25.361 0 .709-.059 1.033-.169.392-.131.818.08.95.472.132.393-.08.818-.472.95-.473.159-.979.246-1.505.247z"/></g></svg>