<svg clip-rule="evenodd" fill-rule="evenodd" height="512" stroke-linejoin="round" stroke-miterlimit="2" viewBox="0 0 32 32" width="512" xmlns="http://www.w3.org/2000/svg" xmlns:xlink="http://www.w3.org/1999/xlink"><radialGradient id="_Radial1" cx="16" cy="16" gradientUnits="userSpaceOnUse" r="14.75"><stop offset="0" stop-color="#fbef57"/><stop offset="1" stop-color="#fbc02a"/></radialGradient><circle cx="16" cy="16" fill="url(#_Radial1)" r="14.75"/><path d="m21.884 20.013c-1.537 1.302-3.609 2.097-5.884 2.097s-4.347-.795-5.884-2.097c-.316-.267-.789-.228-1.057.088-.267.316-.228.789.088 1.057 1.791 1.517 4.201 2.452 6.853 2.452s5.062-.935 6.853-2.452c.316-.268.355-.741.088-1.057-.268-.316-.741-.355-1.057-.088z" fill="#3c4d4d"/><circle cx="11.286" cy="11.64" fill="#fff" r="3.25"/><circle cx="11.286" cy="11.64" fill="#3c4d4d" r="1.75"/><circle cx="20.714" cy="11.64" fill="#fff" r="3.25"/><circle cx="20.714" cy="11.64" fill="#3c4d4d" r="1.75"/></svg>