<?xml version="1.0" encoding="utf-8"?>
<!-- Generator: Adobe Illustrator 24.0.0, SVG Export Plug-In . SVG Version: 6.00 Build 0)  -->
<svg version="1.1" id="Capa_1" xmlns="http://www.w3.org/2000/svg" xmlns:xlink="http://www.w3.org/1999/xlink" x="0px" y="0px"
	 viewBox="0 0 400 400" style="enable-background:new 0 0 400 400;" xml:space="preserve">
<style type="text/css">
	.st0{fill:#F2C50A;}
	.st1{fill:url(#SVGID_1_);fill-opacity:0.6;}
	.st2{fill:url(#SVGID_2_);fill-opacity:0.6;}
	.st3{fill:#663602;}
	.st4{display:none;}
	.st5{display:inline;fill:#FFFFFF;}
	.st6{display:inline;}
	.st7{fill:none;stroke:#020202;stroke-width:4;stroke-miterlimit:10;}
	.st8{fill:#0B76B7;}
	.st9{fill:none;stroke:#FFFFFF;stroke-miterlimit:10;}
	.st10{fill:#F9F9F9;}
</style>
<g id="Capa_1_1_">
	<g id="Capa_2_1_">
	</g>
	<circle class="st0" cx="204.7" cy="210.4" r="189.1"/>
</g>
<g id="Capa_2_2_">
	
		<radialGradient id="SVGID_1_" cx="326.0502" cy="194.8148" r="48.4653" gradientTransform="matrix(1 0 0 -1 0 402)" gradientUnits="userSpaceOnUse">
		<stop  offset="0" style="stop-color:#F52223"/>
		<stop  offset="0.1693" style="stop-color:#F53820"/>
		<stop  offset="0.5216" style="stop-color:#F47017"/>
		<stop  offset="1" style="stop-color:#F2C50A"/>
	</radialGradient>
	<circle class="st1" cx="326.1" cy="207.2" r="48.5"/>
	
		<radialGradient id="SVGID_2_" cx="78.939" cy="194.8148" r="48.4653" gradientTransform="matrix(1 0 0 -1 0 402)" gradientUnits="userSpaceOnUse">
		<stop  offset="0" style="stop-color:#F52223"/>
		<stop  offset="0.1693" style="stop-color:#F53820"/>
		<stop  offset="0.5216" style="stop-color:#F47017"/>
		<stop  offset="1" style="stop-color:#F2C50A"/>
	</radialGradient>
	<circle class="st2" cx="78.9" cy="207.2" r="48.5"/>
	<path class="st3" d="M98.2,264.4c31.2,11.1,121.6,37,213.2,1.4c4-1.5,7.3,5.1,4.3,9.4c-30.1,46.5-129.2,173-222-1.7
		C91.3,269.1,94.4,263.1,98.2,264.4z"/>
</g>
<g id="Capa_3" class="st4">
	<circle class="st5" cx="231.9" cy="208.1" r="32.5"/>
	<circle class="st6" cx="233" cy="208.1" r="20.6"/>
	<circle class="st5" cx="226.4" cy="197.9" r="3.4"/>
</g>
<g id="Capa_4">
	<path class="st7" d="M70.3,130.8"/>
	<path class="st8" d="M141.1,187.7l-47.1-26.2c-1.5-0.8-3.4-0.9-4.9-0.2l-48.3,23.8c-3.9,1.9-8.3-1.4-7.4-5.7l10.5-52.8
		c0.3-1.7-0.2-3.4-1.4-4.6L5,83.4c-3.1-3.1-1.2-8.3,3.1-8.8l53.6-6.3c1.7-0.2,3.2-1.2,4-2.8l25.2-47.7c2-3.9,7.6-3.7,9.4,0.3
		L122.8,67c0.8,1.5,2.2,2.6,3.9,2.9l53.1,9.1c4.3,0.8,5.9,6,2.6,9l-39.5,36.6c-1.2,1.2-1.9,2.9-1.7,4.6l7.7,53.3
		C149.5,186.7,144.8,189.9,141.1,187.7z"/>
	<path class="st8" d="M351.1,187.7L304,161.5c-1.5-0.8-3.4-0.9-4.9-0.2l-48.3,23.8c-3.9,1.9-8.3-1.4-7.4-5.7l10.5-52.8
		c0.3-1.7-0.2-3.4-1.4-4.6l-37.5-38.6c-3.1-3.1-1.2-8.3,3.1-8.8l53.6-6.3c1.7-0.2,3.2-1.2,4-2.8l25.2-47.7c2-3.9,7.6-3.7,9.4,0.3
		L332.7,67c0.8,1.5,2.2,2.6,3.9,2.9l53.1,9.1c4.3,0.8,5.9,6,2.6,9l-39.5,36.6c-1.2,1.2-1.9,2.9-1.7,4.6l7.7,53.3
		C359.4,186.7,354.8,189.9,351.1,187.7z"/>
	<path class="st9" d="M79.6,47.9c0,0,4.6-16.7,12.2-22.1"/>
	<path class="st9" d="M289.3,47.9c0,0,4.6-16.7,12.2-22.1"/>
</g>
<g id="Capa_5">
	<path class="st10" d="M93.8,266.6"/>
	<path class="st10" d="M307.1,269.2c-19.6,13-103.3,60.2-202-0.9c-0.6-0.5-0.2-1.4,0.6-1.1c24.2,9.9,106,36.9,200.8,0.9
		C307.2,267.8,307.7,268.8,307.1,269.2z"/>
</g>
</svg>
