<svg id="Capa_1" enable-background="new 0 0 512 512" height="512" viewBox="0 0 512 512" width="512" xmlns="http://www.w3.org/2000/svg"><g><path d="m387.687 354.043c-36.16-23.643-66.21-57.556-85.248-99.876-15.442-34.336-21.933-70.423-20.48-105.635 1.865-45.05-28.876-81.25-67.869-91.037-16.699 14.432-23.796 28.922-26.095 46.502 17.451.258 34.017 10.395 41.64 27.351 10.518 23.365.093 50.829-23.272 61.337-15.628 7.026-33.079 4.687-46.07-4.615-37.725 106.063-16.719 230.241 44.834 319.481 46.06 9.107 95.292 4.492 141.372-16.236 15.968-7.18 30.741-15.937 44.226-25.992 37.716-28.144 36.346-85.515-3.038-111.28z" fill="#ffb88c"/><path d="m205.128 507.551c-72.03-14.227-136.293-61.996-168.621-134.12-53.137-118.543-.515-256.598 118.028-309.715 1.257-.567 2.514-1.113 3.77-1.648 18.78-8.035 38.127-9.014 55.784-4.574-9.859 14.618-18.543 30.195-26.095 46.502-6.583-.103-13.289 1.205-19.687 4.079-23.365 10.508-33.78 37.973-23.272 61.337 3.482 7.737 8.818 14.052 15.257 18.657-23.166 108.016-6.786 229.773 44.836 319.482z" fill="#ffaa75"/><path d="m158.029 379.738c0 13.732-8.386 25.497-20.305 30.463-13.973-3.247-22.278-16.73-22.278-30.463 0-13.732 6.846-26.544 22.278-30.462 11.92 4.965 20.305 16.729 20.305 30.462z" fill="#fce3a0"/><path d="m137.725 410.2c-3.904 1.638-8.19 2.534-12.692 2.534-18.214 0-32.987-14.773-32.987-32.997s14.773-32.997 32.987-32.997c4.502 0 8.787.896 12.692 2.534-11.93 4.965-20.315 16.73-20.315 30.462-.001 13.734 8.385 25.499 20.315 30.464z" fill="#fdcb89"/><path d="m122.569 276.522c0 13.732-8.386 25.497-20.305 30.463-13.973-3.247-22.278-16.73-22.278-30.463 0-13.732 6.846-26.544 22.278-30.462 11.92 4.965 20.305 16.73 20.305 30.462z" fill="#a4e7ff"/><path d="m102.265 306.984c-3.904 1.638-8.19 2.534-12.692 2.534-18.214 0-32.987-14.773-32.987-32.997s14.773-32.997 32.987-32.997c4.502 0 8.787.896 12.692 2.534-11.93 4.965-20.315 16.73-20.315 30.462-.001 13.734 8.385 25.499 20.315 30.464z" fill="#83deff"/><path d="m365.385 415.251c0 13.732-8.386 25.497-20.305 30.463-13.973-3.247-22.278-16.73-22.278-30.463 0-13.732 6.846-26.544 22.278-30.462 11.919 4.965 20.305 16.73 20.305 30.462z" fill="#8ce09f"/><path d="m345.08 445.714c-3.904 1.638-8.19 2.534-12.692 2.534-18.214 0-32.987-14.773-32.987-32.997s14.773-32.997 32.987-32.997c4.502 0 8.787.896 12.692 2.534-11.93 4.965-20.315 16.73-20.315 30.462 0 13.733 8.385 25.498 20.315 30.464z" fill="#55d47b"/><path d="m256.278 433.022c0 13.732-8.386 25.497-20.305 30.463-13.973-3.247-22.278-16.73-22.278-30.463 0-13.732 6.846-26.544 22.278-30.462 11.92 4.965 20.305 16.729 20.305 30.462z" fill="#ff899f"/><path d="m235.973 463.484c-3.904 1.638-8.19 2.534-12.692 2.534-18.214 0-32.987-14.773-32.987-32.997s14.773-32.997 32.987-32.997c4.502 0 8.787.896 12.692 2.534-11.93 4.965-20.315 16.73-20.315 30.462 0 13.734 8.386 25.499 20.315 30.464z" fill="#ff758f"/><path d="m320.653 315.72c-9.457 12.785-22.231 20.326-35.047 24.714-22.498-28.246-22.9-80.481 2.328-106.346 7.695 1.329 15.195 4.42 21.902 9.375 22.943 16.967 27.784 49.325 10.817 72.257z" fill="#979fb1"/><path d="m285.606 340.434c-18.72 6.396-37.529 6.04-46.188 5.402-3.08-.227-5.738-2.207-6.856-5.085-5.304-13.654-18.243-55.036 5.017-86.47 12.012-16.236 31.719-23.406 50.355-20.192-17.492 30.998-17.513 74.399-2.328 106.345z" fill="#8991a6"/><path d="m496.196 22.18c-.309 46.709-61.461 144.782-117.4 197.239-27.159-43.106-26.768-109.709 6.449-154.002 28.897-32.4 59.205-57.917 81.612-64.933 10.446-3.276 29.412 10.755 29.339 21.696z" fill="#ff899f"/><path d="m385.246 65.417c-35.299 39.563-68.489 89.376-82.603 128.254 4.076.535 8.078 2.078 11.619 4.698l36.963 27.341c3.69 2.727 6.408 6.278 8.102 10.209 6.347-4.764 12.87-10.304 19.47-16.499-19.543-48.204-18.296-108.181 6.449-154.003z" fill="#ff758f"/><path d="m358.461 258.504c-8.392 11.386-24.599 13.5-35.685 4.77-16.271-18.796-17.369-47.338-3.915-65.221l34.357 25.415c11.125 8.22 13.474 23.91 5.243 35.036z" fill="#a4e7ff"/><path d="m322.775 263.274-36.314-26.857c-11.126-8.231-13.475-23.921-5.244-35.047s23.911-13.475 35.037-5.244l2.606 1.926c-10.579 20.481-8.787 46.132 3.915 65.222z" fill="#83deff"/></g></svg>