<?xml version="1.0" encoding="UTF-8" standalone="no"?>
<!-- Created with Inkscape (http://www.inkscape.org/) -->

<svg
   version="1.1"
   id="svg2073"
   xml:space="preserve"
   width="682.66669"
   height="682.66669"
   viewBox="0 0 682.66669 682.66669"
   xmlns="http://www.w3.org/2000/svg"
   xmlns:svg="http://www.w3.org/2000/svg"><defs
     id="defs2077"><clipPath
       clipPathUnits="userSpaceOnUse"
       id="clipPath2095"><path
         d="M 0,512 H 512 V 0 H 0 Z"
         id="path2093" /></clipPath></defs><g
     id="g2079"
     transform="matrix(1.3333333,0,0,-1.3333333,0,682.66667)"><g
       id="g2081"
       transform="translate(29.9367,10)"><path
         d="M 0,0 V 491.962 H 296 L 360,428 V 0 Z"
         style="fill:#eff3f3;fill-opacity:1;fill-rule:nonzero;stroke:none"
         id="path2083" /></g><g
       id="g2085"
       transform="translate(325.9367,502)"><path
         d="M 0,0 V -64 H 64 Z"
         style="fill:#ffe6c0;fill-opacity:1;fill-rule:nonzero;stroke:none"
         id="path2087" /></g><g
       id="g2089"><g
         id="g2091"
         clip-path="url(#clipPath2095)"><g
           id="g2097"
           transform="translate(325.9367,502)"><path
             d="M 0,0 V -64 H 64"
             style="fill:none;stroke:#000000;stroke-width:20;stroke-linecap:round;stroke-linejoin:round;stroke-miterlimit:10;stroke-dasharray:none;stroke-opacity:1"
             id="path2099" /></g><g
           id="g2101"
           transform="translate(312.3475,18.0267)"><path
             d="M 0,0 C -28.652,16.542 -38.504,53.31 -21.962,81.962 L 48.74,204.421 c 5.523,9.566 17.755,12.843 27.321,7.32 9.566,-5.522 12.843,-17.754 7.321,-27.32 L 12.68,61.962 C 7.166,52.411 10.449,40.155 20,34.641 c 9.551,-5.514 21.807,-2.23 27.32,7.321 l 74.377,128.823 c 16.542,28.652 6.69,65.419 -21.962,81.961 -28.652,16.542 -65.419,6.691 -81.961,-21.961 L -72.256,74.849 c -5.523,-9.566 -17.754,-12.843 -27.32,-7.32 -9.566,5.523 -12.844,17.754 -7.321,27.32 l 90.03,155.936 c 27.57,47.753 88.849,64.173 136.602,36.602 47.753,-27.57 64.173,-88.849 36.603,-136.602 L 81.962,21.962 C 65.42,-6.69 28.652,-16.542 0,0"
             style="fill:#ffcb7c;fill-opacity:1;fill-rule:nonzero;stroke:none"
             id="path2103" /></g><g
           id="g2105"
           transform="translate(312.3475,18.0267)"><path
             d="M 0,0 C -28.652,16.542 -38.504,53.31 -21.962,81.962 L 48.74,204.421 c 5.523,9.566 17.755,12.843 27.321,7.32 9.566,-5.522 12.843,-17.754 7.321,-27.32 L 12.68,61.962 C 7.166,52.411 10.449,40.155 20,34.641 c 9.551,-5.514 21.807,-2.23 27.32,7.321 l 74.377,128.823 c 16.542,28.652 6.69,65.419 -21.962,81.961 -28.652,16.542 -65.419,6.691 -81.961,-21.961 L -72.256,74.849 c -5.523,-9.566 -17.754,-12.843 -27.32,-7.32 -9.566,5.523 -12.844,17.754 -7.321,27.32 l 90.03,155.936 c 27.57,47.753 88.849,64.173 136.602,36.602 47.753,-27.57 64.173,-88.849 36.603,-136.602 L 81.962,21.962 C 65.42,-6.69 28.652,-16.542 0,0 Z"
             style="fill:none;stroke:#000000;stroke-width:20;stroke-linecap:round;stroke-linejoin:round;stroke-miterlimit:10;stroke-dasharray:none;stroke-opacity:1"
             id="path2107" /></g><g
           id="g2109"
           transform="translate(101.9368,256)"><path
             d="M 0,0 H 183.333"
             style="fill:none;stroke:#000000;stroke-width:20;stroke-linecap:round;stroke-linejoin:round;stroke-miterlimit:10;stroke-dasharray:none;stroke-opacity:1"
             id="path2111" /></g><g
           id="g2113"
           transform="translate(146.9368,384)"><path
             d="M 0,0 H 171"
             style="fill:none;stroke:#000000;stroke-width:20;stroke-linecap:round;stroke-linejoin:round;stroke-miterlimit:10;stroke-dasharray:none;stroke-opacity:1"
             id="path2115" /></g><g
           id="g2117"
           transform="translate(101.9368,384)"><path
             d="M 0,0 V 0"
             style="fill:none;stroke:#000000;stroke-width:20;stroke-linecap:round;stroke-linejoin:round;stroke-miterlimit:10;stroke-dasharray:none;stroke-opacity:1"
             id="path2119" /></g><g
           id="g2121"
           transform="translate(101.9368,320)"><path
             d="M 0,0 H 183.333"
             style="fill:none;stroke:#000000;stroke-width:20;stroke-linecap:round;stroke-linejoin:round;stroke-miterlimit:10;stroke-dasharray:none;stroke-opacity:1"
             id="path2123" /></g><g
           id="g2125"
           transform="translate(101.9368,192)"><path
             d="M 0,0 H 144"
             style="fill:none;stroke:#000000;stroke-width:20;stroke-linecap:round;stroke-linejoin:round;stroke-miterlimit:10;stroke-dasharray:none;stroke-opacity:1"
             id="path2127" /></g><g
           id="g2129"
           transform="translate(101.9368,128)"><path
             d="M 0,0 H 108"
             style="fill:none;stroke:#000000;stroke-width:20;stroke-linecap:round;stroke-linejoin:round;stroke-miterlimit:10;stroke-dasharray:none;stroke-opacity:1"
             id="path2131" /></g><g
           id="g2133"
           transform="translate(342.4155,10)"><path
             d="m 0,0 h -312.479 v 491.962 h 296 L 47.521,428 V 308.493"
             style="fill:none;stroke:#000000;stroke-width:20;stroke-linecap:round;stroke-linejoin:round;stroke-miterlimit:10;stroke-dasharray:none;stroke-opacity:1"
             id="path2135" /></g></g></g></g></svg>
