<svg viewBox="-11 0 512 512.00033" xmlns="http://www.w3.org/2000/svg"><path d="m490 267c0 135.308594-109.691406 245-245 245s-245-109.691406-245-245 109.691406-245 245-245 245 109.691406 245 245zm0 0" fill="#85a0dd"/><path d="m126.183594 457-10.46875 18.128906c11.855468 7.382813 24.390625 13.777344 37.484375 19.074219l21.480469-37.203125zm0 0" fill="#a5683f"/><path d="m126.183594 457-10.46875 18.128906c3.769531 2.347656 7.617187 4.582032 11.519531 6.726563l14.351563-24.855469zm0 0" fill="#8e5935"/><path d="m315.320312 457 21.480469 37.203125c13.097657-5.296875 25.628907-11.691406 37.484375-19.070313l-10.46875-18.132812zm0 0" fill="#a5683f"/><path d="m315.320312 457 21.480469 37.203125c4.242188-1.714844 8.417969-3.558594 12.539063-5.5l-18.304688-31.703125zm0 0" fill="#8e5935"/><path d="m224 457v54.09375c7.0625.601562 14.207031.917969 21.429688.90625 6.929687-.011719 13.789062-.328125 20.570312-.902344v-54.097656zm0 0" fill="#a5683f"/><path d="m224 457v54.09375c4.960938.421875 9.960938.695312 15 .820312v-54.914062zm0 0" fill="#8e5935"/><path d="m112.777344 438v15c0 2.75 2.25 5 5 5h254.445312c2.75 0 5-2.25 5-5v-15zm0 0" fill="#ef9614"/><path d="m159 453v-15h-46.222656v15c0 2.75 2.25 5 5 5h46.222656c-2.75 0-5-2.25-5-5zm0 0" fill="#ef8318"/><path d="m396.617188 114.105469c-21.730469 21.730469-43.921876 41.671875-62.488282 56.160156l-.371094.292969-.015624.46875c-.273438 9.585937-2.222657 21.046875-14.578126 33.40625-13.671874 13.671875-31.867187 21.203125-51.226562 21.203125-1.8125 0-3.644531-.070313-5.453125-.203125-.589844-.046875-1.144531-.300782-1.5625-.71875-.417969-.417969-.671875-.972656-.714844-1.5625-1.582031-21.09375 6.070313-41.753906 20.996094-56.679688 12.359375-12.355468 23.820313-14.304687 33.40625-14.578125l.46875-.015625.292969-.371094c14.484375-18.566406 34.429687-40.761718 56.160156-62.488281 12.328125-12.332031 24.539062-23.820312 36.042969-34.023437h-108.574219v15c0 2.207031-1.792969 4-4 4h-100c-2.207031 0-4-1.792969-4-4v-14.996094h-122c-2.75 0-5 2.25-5 5v344h362v-320.742188c-9.074219 10.035157-18.96875 20.429688-29.382812 30.847657zm0 0" fill="#ffe2b8"/><path d="m94 404v-344c0-2.75 2.25-5 5-5h-30c-2.75 0-5 2.25-5 5v344zm0 0" fill="#ffc987"/><path d="m337.738281 244.488281c-.867187-1.503906-2.472656-2.429687-4.210937-2.429687-1.738282 0-3.34375.925781-4.210938 2.429687l-62.707031 108.609375 29.390625 50.902344h130v-6.636719zm0 0" fill="#293d7c"/><path d="m282.109375 379.945312 66.917969-115.902343-11.289063-19.554688c-.867187-1.503906-2.472656-2.429687-4.210937-2.429687-1.738282 0-3.34375.925781-4.210938 2.429687l-62.707031 108.609375zm0 0" fill="#1a2b63"/><path d="m297.203125 404-113.488281-196.570312c-.871094-1.503907-2.476563-2.429688-4.210938-2.429688-1.738281 0-3.34375.925781-4.210937 2.429688l-111.292969 192.761718v3.808594zm0 0" fill="#2e4c89"/><path d="m95 404v-3.808594l100.003906-173.207031-11.289062-19.550781c-.871094-1.503906-2.476563-2.433594-4.210938-2.433594-1.738281 0-3.34375.929688-4.210937 2.433594l-111.292969 192.757812v3.808594zm0 0" fill="#293d7c"/><path d="m456 434c0 2.75-2.25 5-5 5h-412c-2.75 0-5-2.25-5-5v-26c0-2.75 2.25-5 5-5h412c2.75 0 5 2.25 5 5zm0 0" fill="#994334"/><path d="m79 434v-26c0-2.75 2.25-5 5-5h-45c-2.75 0-5 2.25-5 5v26c0 2.75 2.25 5 5 5h45c-2.75 0-5-2.25-5-5zm0 0" fill="#87352a"/><path d="m266 40v-35c0-2.75-2.25-5-5-5h-32c-2.75 0-5 2.25-5 5v35zm0 0" fill="#a5683f"/><path d="m239 40v-35c0-2.75 2.25-5 5-5h-15c-2.75 0-5 2.25-5 5v35zm0 0" fill="#8e5935"/><path d="m300 70c0 2.75-2.25 5-5 5h-100c-2.75 0-5-2.25-5-5v-26c0-2.75 2.25-5 5-5h100c2.75 0 5 2.25 5 5zm0 0" fill="#994334"/><path d="m220 70v-26c0-2.75 2.25-5 5-5h-30c-2.75 0-5 2.25-5 5v26c0 2.75 2.25 5 5 5h30c-2.75 0-5-2.25-5-5zm0 0" fill="#87352a"/><path d="m186 140c0 22.644531-18.355469 41-41 41s-41-18.355469-41-41 18.355469-41 41-41 41 18.355469 41 41zm0 0" fill="#ffaf10"/><path d="m123 140c0-19.371094 13.4375-35.59375 31.5-39.882812-3.050781-.722657-6.230469-1.117188-9.5-1.117188-22.644531 0-41 18.355469-41 41s18.355469 41 41 41c3.269531 0 6.449219-.394531 9.5-1.117188-18.0625-4.289062-31.5-20.511718-31.5-39.882812zm0 0" fill="#ef9614"/><path d="m475.671875 9.964844c-7.320313-7.316406-54.261719 27.761718-104.851563 78.347656-23.105468 23.105469-42.96875 45.449219-57.042968 63.605469 1.046875-.039063 2.089844-.054688 3.121094-.054688 4.488281 0 9.054687.339844 13.890624.703125.589844.042969 1.144532.296875 1.5625.714844.417969.417969.671876.972656.71875 1.5625.441407 5.902344.859376 11.535156.628907 17.027344 18.160156-14.074219 40.507812-33.945313 63.621093-57.058594 50.589844-50.585938 85.667969-97.53125 78.351563-104.847656zm0 0" fill="#fe3745"/><path d="m475.671875 9.964844c-7.320313-7.316406-54.261719 27.761718-104.851563 78.347656-23.105468 23.105469-42.96875 45.449219-57.042968 63.605469 1.046875-.039063 2.089844-.054688 3.121094-.054688 3.855468 0 7.773437.253907 11.859374.554688 14.09375-18.246094 34.105469-40.785157 57.425782-64.105469 36.601562-36.601562 71.289062-65.078125 90.449218-75.257812.039063-1.359376-.273437-2.402344-.960937-3.089844zm0 0" fill="#ea2a3d"/><path d="m333.058594 152.574219c.570312.570312.945312 1.339843 1.007812 2.195312 1.351563 18.058594 2.519532 33.652344-14.195312 50.371094-15.132813 15.132813-36.078125 22.890625-57.464844 21.289063-.855469-.0625-1.625-.4375-2.191406-1.003907-.570313-.570312-.945313-1.339843-1.007813-2.195312-1.601562-21.386719 6.15625-42.332031 21.289063-57.460938 16.71875-16.71875 32.3125-15.550781 50.371094-14.199219.855468.0625 1.625.4375 2.191406 1.003907zm0 0" fill="#a5683f"/><path d="m287.597656 172.46875c.601563.046875 1.140625.308594 1.542969.710938.027344.023437.046875.054687.070313.082031 1.996093-2.621094 4.152343-5.136719 6.511718-7.496094 10.011719-10.011719 19.625-13.605469 29.601563-14.589844-15.761719-1.007812-29.84375-.394531-44.828125 14.589844-2.136719 2.136719-4.105469 4.398437-5.941406 6.75 4.347656-.34375 8.722656-.371094 13.042968-.046875zm0 0" fill="#8e5935"/><path d="m259.207031 223.230469c.0625.855469.4375 1.621093 1.007813 2.195312.566406.566407 1.335937.941407 2.191406 1.003907 18.367188 1.375 36.402344-4.15625 50.714844-15.328126.34375-4.355468.367187-8.734374.046875-13.0625-.046875-.601562-.308594-1.140624-.710938-1.542968-.402343-.402344-.941406-.664063-1.546875-.710938-3.035156-.226562-6.125-.289062-9.21875-.183594.105469-3.089843.042969-6.179687-.183594-9.21875-.042968-.601562-.308593-1.144531-.707031-1.542968-.402343-.402344-.945312-.664063-1.546875-.710938-3.039062-.226562-6.128906-.289062-9.21875-.183594.105469-3.089843.042969-6.179687-.183594-9.21875-.046874-.601562-.308593-1.144531-.710937-1.546874-.402344-.402344-.941406-.664063-1.546875-.707032-4.324219-.324218-8.703125-.296875-13.058594.046875-11.171875 14.308594-16.703125 32.34375-15.328125 50.710938zm0 0" fill="#293d7c"/><path d="m275.820312 225.421875c-.570312-.570313-.941406-1.335937-1.007812-2.195313-1.34375-17.949218 3.925781-35.578124 14.597656-49.730468-.078125-.113282-.167968-.21875-.269531-.316406-.402344-.402344-.941406-.664063-1.542969-.710938-4.328125-.324219-8.707031-.296875-13.0625.046875-11.171875 14.3125-16.703125 32.347656-15.328125 50.710937.0625.859376.4375 1.625 1.007813 2.195313.566406.570313 1.335937.941406 2.191406 1.007813 4.832031.359374 9.636719.230468 14.359375-.339844-.351563-.167969-.671875-.394532-.945313-.667969zm0 0" fill="#1a2b63"/></svg>