<svg id="Layer_1" enable-background="new 0 0 66 66" height="512" viewBox="0 0 66 66" width="512" xmlns="http://www.w3.org/2000/svg"><g><g><g><path d="m43.91 5.31v4.82h-21.81v-4.82c0-2.38 1.93-4.31 4.31-4.31h13.19c2.38 0 4.31 1.93 4.31 4.31z" fill="#ffce54"/></g><g><g><path d="m61.21 51.77v3.37c0 .68-.56 1.23-1.24 1.23h-53.94c-.68 0-1.23-.55-1.23-1.23v-3.37c0-.68.55-1.23 1.23-1.23h53.94c.68 0 1.24.55 1.24 1.23z" fill="#646d78"/></g><g><path d="m61.21 51.77v3.37c0 .68-.56 1.23-1.24 1.23h-53.94c-.68 0-1.23-.55-1.23-1.23v-.27h53.01c.69 0 1.24-.55 1.24-1.23v-3.1h.92c.68 0 1.24.55 1.24 1.23z" fill="#434a54"/></g><g><path d="m43.91 5.31v4.82h-21.81v-4.82c3.55-.42 7.31-.61 10.9-.61s7.35.19 10.91.61z" fill="#f6bb43"/></g><g><path d="m59.57 14.18v36.36h-53.14v-36.36c0-10.64 53.14-10.64 53.14 0z" fill="#ffce54"/></g><g opacity=".15"><g><path d="m8.43 14.68c-.28 0-.5-.22-.5-.5 0-3.12 9.58-6.48 25.07-6.48.28 0 .5.22.5.5s-.22.5-.5.5c-15.8 0-24.07 3.57-24.07 5.48 0 .28-.22.5-.5.5z" fill="#fff"/></g></g><g><g><path d="m17.62 56.37v6.89c0 .96-.79 1.74-1.75 1.74h-5.24c-.96 0-1.74-.78-1.74-1.74v-6.89z" fill="#646d78"/></g><g><path d="m57.12 56.37v6.89c0 .96-.79 1.74-1.75 1.74h-5.24c-.96 0-1.74-.78-1.74-1.74v-6.89z" fill="#646d78"/></g><g><path d="m57.12 56.37v6.89c0 .96-.79 1.74-1.75 1.74h-5.24c-.73 0-1.35-.45-1.61-1.08h4.97c.97 0 1.75-.78 1.75-1.74v-5.81z" fill="#434a54"/></g><g><path d="m17.62 56.37v6.89c0 .96-.79 1.74-1.75 1.74h-5.24c-.73 0-1.35-.45-1.61-1.08h4.97c.97 0 1.75-.78 1.75-1.74v-5.81z" fill="#434a54"/></g></g><g><path d="m22.61 14.06v1.52c0 .5-.4.9-.9.9h-8.76c-.5 0-.9-.41-.9-.9v-1.52c0-1.76 1.43-3.19 3.19-3.19h4.19c1.76 0 3.18 1.42 3.18 3.19z" fill="#fb6e52"/></g><g><path d="m53.96 14.06v1.52c0 .5-.4.9-.9.9h-8.76c-.5 0-.9-.41-.9-.9v-1.52c0-1.76 1.43-3.19 3.19-3.19h4.19c1.75 0 3.18 1.42 3.18 3.19z" fill="#fb6e52"/></g><g><path d="m40.72 11.49v3.76c0 .68-.55 1.23-1.23 1.23h-12.98c-.68 0-1.23-.55-1.23-1.23v-3.76c0-.57.39-1.06.95-1.2 4.52-1.1 9.03-1.1 13.55 0 .55.14.94.63.94 1.2z" fill="#f6bb43"/></g><g><g><path d="m56.94 19.96v12.25c0 1.02-.83 1.85-1.85 1.85h-44.17c-1.03 0-1.86-.83-1.86-1.85v-12.25c0-1.02.83-1.85 1.86-1.85h44.17c1.02 0 1.85.83 1.85 1.85z" fill="#646d78"/></g><g><path d="m11.06 20.11h43.88v11.95h-43.88z" fill="#70c1f9"/></g></g><g><path d="m45.85 50.54h-25.7v-10.37c0-1.54 1.25-2.8 2.8-2.8h20.11c1.54 0 2.8 1.25 2.8 2.8v10.37z" fill="#e7e9ee"/></g><g><g><g><path d="m63.36 23.31h-.9v-4.82c0-.06-.05-.12-.12-.12h-2.78v-.9h2.98c.45 0 .81.36.81.81v5.03z" fill="#646d78"/></g></g><g><path d="m65 21.97v8.51c0 .5-.4.91-.91.91h-2.36c-.5 0-.91-.41-.91-.91v-8.51c0-.5.41-.91.91-.91h2.36c.51.01.91.41.91.91z" fill="#ffce54"/></g></g><g><g><g><path d="m2.64 23.31h.9v-4.82c0-.06.05-.12.12-.12h2.78v-.9h-2.99c-.45 0-.81.36-.81.81z" fill="#646d78"/></g></g><g><path d="m1 21.97v8.51c0 .5.4.91.91.91h2.36c.5 0 .91-.41.91-.91v-8.51c0-.5-.41-.91-.91-.91h-2.36c-.51.01-.91.41-.91.91z" fill="#ffce54"/></g></g><g><g><circle cx="19.68" cy="13.98" fill="#ffce54" r="1.5"/></g><g><circle cx="14.97" cy="13.98" fill="#ffce54" r="1.5"/></g></g><g><g><circle cx="51.03" cy="13.98" fill="#ffce54" r="1.5"/></g><g><circle cx="46.32" cy="13.98" fill="#ffce54" r="1.5"/></g></g></g><g><g><circle cx="13.12" cy="43.46" fill="#fb6e52" r="4.63"/></g><g><circle cx="13.12" cy="43.46" fill="#dc4453" r="2.34"/></g><g><circle cx="52.88" cy="43.46" fill="#fb6e52" r="4.63"/></g></g><g><g><path d="m42.08 41.88h-18.16c-.41 0-.75-.34-.75-.75s.34-.75.75-.75h18.17c.41 0 .75.34.75.75s-.34.75-.76.75z" fill="#a9b2bd"/></g></g><g><g><path d="m42.08 45.33h-18.16c-.41 0-.75-.34-.75-.75s.34-.75.75-.75h18.17c.41 0 .75.34.75.75s-.34.75-.76.75z" fill="#a9b2bd"/></g></g><g><g><path d="m42.08 48.79h-18.16c-.41 0-.75-.34-.75-.75s.34-.75.75-.75h18.17c.41 0 .75.34.75.75s-.34.75-.76.75z" fill="#a9b2bd"/></g></g></g><g><path d="m31.04 18.11h3.92v15.95h-3.92z" fill="#646d78"/></g><g><circle cx="52.88" cy="43.46" fill="#dc4453" r="2.34"/></g></g></svg>