<?xml version="1.0" encoding="iso-8859-1"?>
<!-- Generator: Adobe Illustrator 19.0.0, SVG Export Plug-In . SVG Version: 6.00 Build 0)  -->
<svg version="1.1" id="Capa_1" xmlns="http://www.w3.org/2000/svg" xmlns:xlink="http://www.w3.org/1999/xlink" x="0px" y="0px"
	 viewBox="0 0 512 512" style="enable-background:new 0 0 512 512;" xml:space="preserve">
<path style="fill:#565656;" d="M347.843,27.724H164.157c-23.585,0-42.772,18.555-42.772,41.363v53.429c0,4.154,3.367,7.52,7.52,7.52
	h41.331c4.153,0,7.52-3.366,7.52-7.52V79.554h156.489v42.961c0,4.154,3.366,7.52,7.52,7.52h41.331c4.154,0,7.52-3.366,7.52-7.52
	V69.087C390.615,46.279,371.428,27.724,347.843,27.724z"/>
<path style="fill:#494949;" d="M347.843,27.724h-38.18c23.584,0,42.772,18.555,42.772,41.363v53.429c0,4.154-3.366,7.52-7.52,7.52
	h38.18c4.154,0,7.52-3.366,7.52-7.52V69.087C390.615,46.279,371.428,27.724,347.843,27.724z"/>
<path style="fill:#F9F1EF;" d="M469.721,114.995H42.282C18.967,114.995,0,133.963,0,157.278v284.716
	c0,23.315,18.967,42.282,42.282,42.282h427.435c23.315,0,42.282-18.967,42.282-42.282V157.278
	C512,133.966,493.034,114.997,469.721,114.995z"/>
<path style="fill:#DDDBDB;" d="M469.721,114.995h-37.934c23.313,0.002,42.279,18.97,42.279,42.282v284.716
	c0,23.315-18.967,42.282-42.282,42.282h37.934c23.315,0,42.282-18.967,42.282-42.282V157.278
	C512,133.966,493.034,114.997,469.721,114.995z"/>
<path style="fill:#EF3A47;" d="M469.721,114.995H42.282C18.967,114.995,0,133.963,0,157.278v103.655h512V157.278
	C512,133.966,493.034,114.997,469.721,114.995z"/>
<path style="fill:#CE3043;" d="M469.721,114.995h-37.934c23.313,0.002,42.279,18.97,42.279,42.282v103.655H512V157.278
	C512,133.966,493.034,114.997,469.721,114.995z"/>
<path style="fill:#EF3A47;" d="M311.237,335.756h-31.111v-31.111c0-4.78-3.874-8.654-8.654-8.654h-30.943
	c-4.78,0-8.654,3.874-8.654,8.654v31.111h-31.112c-4.78,0-8.654,3.874-8.654,8.654v30.943c0,4.78,3.874,8.654,8.654,8.654h31.111
	v31.111c0,4.78,3.874,8.654,8.654,8.654h30.943c4.78,0,8.654-3.874,8.654-8.654v-31.111h31.111c4.78,0,8.654-3.874,8.654-8.654
	V344.41C319.891,339.63,316.015,335.756,311.237,335.756z"/>
<path style="fill:#F2CA5A;" d="M123.658,213.536H73.373c-4.153,0-7.52,3.366-7.52,7.52V275.3c0,18.011,14.652,32.663,32.663,32.663
	s32.663-14.652,32.663-32.663v-54.244C131.178,216.903,127.811,213.536,123.658,213.536z"/>
<path style="fill:#FFAE47;" d="M123.658,213.536H96.263c4.153,0,7.52,3.366,7.52,7.52V275.3c0,13.12-7.78,24.451-18.964,29.641
	c4.169,1.934,8.807,3.022,13.697,3.022c18.01,0,32.663-14.652,32.663-32.663v-54.244
	C131.178,216.903,127.811,213.536,123.658,213.536z"/>
<path style="fill:#F2CA5A;" d="M438.627,213.536h-50.285c-4.153,0-7.52,3.366-7.52,7.52V275.3c0,18.011,14.652,32.663,32.663,32.663
	c18.011,0,32.663-14.652,32.663-32.663v-54.244C446.147,216.903,442.78,213.536,438.627,213.536z"/>
<path style="fill:#FFAE47;" d="M438.627,213.536h-27.396c4.153,0,7.52,3.366,7.52,7.52V275.3c0,13.12-7.78,24.451-18.964,29.641
	c4.169,1.934,8.807,3.022,13.697,3.022c18.01,0,32.663-14.652,32.663-32.663v-54.244
	C446.147,216.903,442.78,213.536,438.627,213.536z"/>
<g>
</g>
<g>
</g>
<g>
</g>
<g>
</g>
<g>
</g>
<g>
</g>
<g>
</g>
<g>
</g>
<g>
</g>
<g>
</g>
<g>
</g>
<g>
</g>
<g>
</g>
<g>
</g>
<g>
</g>
</svg>
