<svg height="512" viewBox="0 0 54 58" width="512" xmlns="http://www.w3.org/2000/svg"><g id="Page-1" fill="none" fill-rule="evenodd"><g id="025---Marking-Paper" fill-rule="nonzero" transform="translate(-1 -1)"><path id="Shape" d="m54.82 17c.1196944.2602682.1811247.54353.18.83v37.17c0 2.209139-1.790861 4-4 4h-38c-2.209139 0-4-1.790861-4-4v-38.92l.75-13.41c.7494765-1.04954082 1.9603303-1.6717334 3.25-1.67h25.17c.28647-.00112466.5697318.06030561.83.18z" fill="#f5efca"/><path id="Shape" d="m54.82 17h-11.82c-2.209139 0-4-1.790861-4-4v-11.82c.2196188.10025599.4194552.23912533.59.41l14.82 14.82c.1708747.1705448.309744.3703812.41.59z" fill="#f3d55b"/><path id="Shape" d="m30.749 31.749c-.2651948-.0000566-.5195073-.1054506-.707-.293l-2.749-2.749c-.3789722-.3923789-.3735524-1.0160848.0121814-1.4018186s1.0094397-.3911536 1.4018186-.0121814l2.749 2.749c.2859079.2859943.3714219.7160366.216678 1.0896546-.1547439.3736179-.5192821.6172591-.923678.6173454z" fill="#95a5a5"/><path id="Shape" d="m42.293 30.707c.3904999.3903819 1.0235001.3903819 1.414 0l2.293-2.293 2.293 2.293c.3923789.3789722 1.0160848.3735524 1.4018186-.0121814s.3911536-1.0094397.0121814-1.4018186l-2.293-2.293 2.293-2.293c.3789722-.3923789.3735524-1.0160848-.0121814-1.4018186s-1.0094397-.3911536-1.4018186-.0121814l-2.293 2.293-2.293-2.293c-.3923789-.3789722-1.0160848-.3735524-1.4018186.0121814s-.3911536 1.0094397-.0121814 1.4018186l2.293 2.293-2.293 2.293c-.3903819.3904999-.3903819 1.0235001 0 1.414z" fill="#ff5364"/><path id="Shape" d="m49.707 46.293c-.3904999-.3903819-1.0235001-.3903819-1.414 0l-2.293 2.293-2.293-2.293c-.3923789-.3789722-1.0160848-.3735524-1.4018186.0121814s-.3911536 1.0094397-.0121814 1.4018186l2.293 2.293-2.293 2.293c-.2599566.2510745-.3642126.6228779-.2726972.9725073.0915155.3496295.3645604.6226744.7141899.7141899.3496294.0915154.7214328-.0127406.9725073-.2726972l2.293-2.293 2.293 2.293c.3923789.3789722 1.0160848.3735524 1.4018186-.0121814s.3911536-1.0094397.0121814-1.4018186l-2.293-2.293 2.293-2.293c.3903819-.3904999.3903819-1.0235001 0-1.414z" fill="#ff5364"/><path id="Shape" d="m50.687 34.273c-.1927817-.1822656-.4500905-.2804541-.7152872-.2729521s-.5165432.1200796-.6987128.3129521l-5.012 5.308-1.61-1.38c-.2690133-.2485449-.6523779-.3301409-.9992902-.2126907-.3469124.1174502-.6018621.415153-.66456.7760016-.0626979.3608485.0768884.7271025.3638502.9546891l2.334 2c.4049671.3475206 1.0114548.3158318 1.378-.072l5.666-6c.1820107-.193042.2798463-.450502.2719691-.7157021-.0078772-.2652-.1208216-.5163992-.3139691-.6982979z" fill="#7ed09e"/><g fill="#a59078"><path id="Shape" d="m37 37h-22c-.5522847 0-1-.4477153-1-1s.4477153-1 1-1h22c.5522847 0 1 .4477153 1 1s-.4477153 1-1 1z"/><path id="Shape" d="m37 41h-22c-.5522847 0-1-.4477153-1-1s.4477153-1 1-1h22c.5522847 0 1 .4477153 1 1s-.4477153 1-1 1z"/><path id="Shape" d="m37 49h-22c-.5522847 0-1-.4477153-1-1s.4477153-1 1-1h22c.5522847 0 1 .4477153 1 1s-.4477153 1-1 1z"/><path id="Shape" d="m37 53h-22c-.5522847 0-1-.4477153-1-1s.4477153-1 1-1h22c.5522847 0 1 .4477153 1 1s-.4477153 1-1 1z"/></g><path id="Shape" d="m11.66 4.59-7.07 7.07-2.13-2.12c-1.95508801-1.95508801-1.95508801-5.12491199 0-7.08s5.12491199-1.95508801 7.08 0l.21.21z" fill="#547580"/><path id="Shape" d="m29.33 29.33c-1.76 1.77-7.57-.5-9.19-2.12l7.07-7.07c1.62 1.62 3.89 7.43 2.12 9.19z" fill="#bdc3c7"/><path id="Shape" d="m27.21 20.14-7.07 7.07-11.14-11.13-1.59-1.59 7.08-7.08z" fill="#3b97d3"/><path id="Shape" d="m15.08 6c-.0014639.52973263-.2137615 1.03708796-.59 1.41l-7.08 7.08c-.37368919.3744562-.88098106.5848881-1.41.5848881s-1.03631081-.2104319-1.41-.5848881c-.3765486-.3767951-.58866278-.8873072-.59-1.42.00146387-.5297326.21376149-1.037088.59-1.41l7.07-7.07c.5726799-.57048737 1.4319273-.74128305 2.1792484-.433177s1.2365322 1.03484519 1.2407516 1.843177z" fill="#f3d55b"/></g></g></svg>