<?xml version="1.0" encoding="iso-8859-1"?>
<!-- Generator: Adobe Illustrator 19.0.0, SVG Export Plug-In . SVG Version: 6.00 Build 0)  -->
<svg version="1.1" id="Capa_1" xmlns="http://www.w3.org/2000/svg" xmlns:xlink="http://www.w3.org/1999/xlink" x="0px" y="0px"
	 viewBox="0 0 512.001 512.001" style="enable-background:new 0 0 512.001 512.001;" xml:space="preserve">
<g>
	<path style="fill:#4B606C;" d="M400.275,136.972c-1.823,0-3.654-0.63-5.141-1.916c-3.287-2.841-3.647-7.807-0.805-11.094
		l98.01-113.332c2.843-3.287,7.811-3.643,11.094-0.804c3.286,2.842,3.645,7.809,0.804,11.094l-98.01,113.33
		C404.672,136.05,402.48,136.972,400.275,136.972z"/>
	<path style="fill:#4B606C;" d="M111.73,136.972c-2.205,0-4.397-0.922-5.952-2.721L7.767,20.92
		c-2.841-3.284-2.481-8.252,0.803-11.094c3.287-2.841,8.253-2.481,11.094,0.804l98.01,113.332c2.842,3.286,2.481,8.252-0.805,11.094
		C115.383,136.341,113.552,136.972,111.73,136.972z"/>
</g>
<g>
	<path style="fill:#A9B1B5;" d="M482.516,176.382c39.313-39.313,39.313-103.053,0-142.367s-103.053-39.313-142.367,0
		L482.516,176.382z"/>
	<path style="fill:#A9B1B5;" d="M29.486,176.382c-39.313-39.313-39.313-103.053,0-142.367s103.053-39.313,142.367,0L29.486,176.382z
		"/>
</g>
<g>
	<path style="fill:#8A8F91;" d="M48.023,19.399c-6.591,4.051-12.828,8.905-18.538,14.616c-39.314,39.313-39.314,103.053,0,142.367
		l33.153-33.153C29.036,109.625,24.181,58.187,48.023,19.399z"/>
	<path style="fill:#8A8F91;" d="M497.132,52.552c-4.051-6.591-8.905-12.828-14.616-18.538c-39.313-39.314-103.053-39.314-142.367,0
		l33.153,33.153C406.906,33.565,458.344,28.711,497.132,52.552z"/>
</g>
<polyline style="fill:#A9B1B5;" points="100.052,441.369 70.847,507.472 142.259,474.402 369.744,474.402 441.155,507.472 
	411.95,441.369 "/>
<circle style="fill:#DF1B17;" cx="256.006" cy="285.421" r="220.549"/>
<path style="fill:#FFFFFF;" d="M441.181,285.383c0,2.643-0.052,5.275-0.168,7.897c-0.954,22.735-6.03,44.422-14.398,64.316
	c-1.961,4.625-4.1,9.145-6.418,13.57c-2.297,4.383-4.772,8.673-7.404,12.836c-0.157,0.252-0.325,0.514-0.493,0.766
	c-14.587,22.924-34.082,42.409-57.006,56.975c-4.404,2.821-8.945,5.443-13.612,7.876c-23.438,12.259-49.844,19.642-77.854,20.795
	c-2.601,0.126-5.233,0.178-7.865,0.178s-5.254-0.052-7.865-0.168c-28.01-1.164-54.406-8.547-77.854-20.806
	c-4.656-2.433-9.197-5.065-13.612-7.876c-22.924-14.577-42.419-34.061-56.996-56.985c-2.821-4.415-5.453-8.956-7.886-13.612
	c-12.259-23.438-19.652-49.844-20.827-77.865c-0.115-2.622-0.168-5.254-0.168-7.897c0-2.622,0.052-5.243,0.178-7.834
	c1.154-28.021,8.547-54.416,20.816-77.865c2.433-4.656,5.065-9.197,7.876-13.612c14.587-22.914,34.082-42.398,56.996-56.985
	c0.241-0.157,0.482-0.304,0.724-0.461c4.184-2.632,8.484-5.118,12.888-7.425c9.711-5.076,19.935-9.323,30.559-12.637
	c15.007-4.656,30.905-7.467,47.306-8.148c2.611-0.115,5.233-0.168,7.865-0.168c2.632,0,5.254,0.052,7.865,0.168
	c28.01,1.164,54.406,8.547,77.854,20.806c4.656,2.433,9.207,5.055,13.612,7.876c22.935,14.577,42.43,34.061,57.017,56.975
	c2.821,4.415,5.453,8.956,7.886,13.612c12.27,23.449,19.652,49.854,20.816,77.865C441.129,280.15,441.181,282.762,441.181,285.383z"
	/>
<path style="fill:#F2F3F7;" d="M441.181,285.38c0,25.609-5.233,50.022-14.566,72.212c-3.901,9.207-8.536,18.037-13.822,26.406
	c-28.556,17.995-62.376,28.398-98.629,28.398c-102.289,0-185.219-82.846-185.219-185.219c0-36.232,10.403-70.021,28.398-98.555
	c13.413-8.463,28-15.248,43.447-20.061c17.398-5.401,35.98-8.316,55.171-8.316C358.251,100.246,441.181,183.092,441.181,285.38z"/>
<path style="fill:#AF0E0E;" d="M116.711,441.369c-86.128-86.128-86.128-225.769,0-311.899
	c40.945-40.945,93.985-62.382,147.619-64.397c-59.186-2.223-119.095,19.214-164.278,64.397c-86.128,86.128-86.128,225.77,0,311.899
	c45.185,45.185,105.096,66.622,164.285,64.397C210.7,503.753,157.657,482.316,116.711,441.369z"/>
<g>
	<path style="fill:#8A8F91;" d="M263.828,418.661v51.753c-2.601,0.126-5.233,0.178-7.865,0.178c-2.632,0-5.254-0.052-7.865-0.168
		v-51.763c0-4.342,3.524-7.865,7.865-7.865S263.828,414.319,263.828,418.661z"/>
	<path style="fill:#8A8F91;" d="M263.828,100.416v51.763c0,4.342-3.524,7.865-7.865,7.865s-7.865-3.524-7.865-7.865v-51.763
		c2.611-0.115,5.233-0.168,7.865-0.168C258.595,100.249,261.216,100.301,263.828,100.416z"/>
	<path style="fill:#8A8F91;" d="M355.294,441.742c-4.404,2.821-8.945,5.443-13.612,7.876l-12.238-21.204
		c-2.181-3.765-0.891-8.568,2.873-10.749c3.765-2.171,8.568-0.881,10.749,2.884L355.294,441.742z"/>
	<path style="fill:#8A8F91;" d="M179.608,153.176c-1.237,0.713-2.59,1.049-3.922,1.049c-2.716,0-5.359-1.405-6.816-3.933
		l-12.249-21.204c0.241-0.157,0.482-0.304,0.724-0.461c4.184-2.632,8.484-5.118,12.888-7.425l12.259,21.225
		C184.663,146.192,183.373,150.995,179.608,153.176z"/>
	<path style="fill:#8A8F91;" d="M420.197,371.166c-2.297,4.383-4.772,8.673-7.404,12.836c-0.157,0.252-0.325,0.514-0.493,0.766
		l-21.204-12.249c-3.765-2.171-5.055-6.984-2.884-10.749c2.171-3.754,6.984-5.044,10.749-2.873L420.197,371.166z"/>
	<path style="fill:#8A8F91;" d="M123.713,209.071c-1.458,2.517-4.1,3.933-6.816,3.933c-1.332,0-2.685-0.346-3.922-1.059
		l-21.225-12.259c2.433-4.656,5.065-9.197,7.876-13.612l21.215,12.249C124.594,200.492,125.884,205.306,123.713,209.071z"/>
	<path style="fill:#8A8F91;" d="M420.197,199.685l-21.236,12.259c-1.237,0.713-2.59,1.059-3.933,1.059
		c-2.716,0-5.359-1.416-6.816-3.933c-2.171-3.765-0.881-8.578,2.884-10.749l21.215-12.249
		C415.132,190.488,417.764,195.029,420.197,199.685z"/>
	<path style="fill:#8A8F91;" d="M120.84,372.519l-21.204,12.238c-2.821-4.415-5.453-8.956-7.886-13.612l21.225-12.249
		c3.754-2.171,8.568-0.881,10.739,2.873C125.884,365.534,124.594,370.348,120.84,372.519z"/>
	<path style="fill:#8A8F91;" d="M355.294,129.098l-12.228,21.194c-1.458,2.527-4.1,3.933-6.827,3.933
		c-1.332,0-2.685-0.336-3.922-1.049c-3.765-2.181-5.055-6.984-2.873-10.749l12.238-21.204
		C346.338,123.655,350.889,126.277,355.294,129.098z"/>
	<path style="fill:#8A8F91;" d="M182.492,428.413l-12.249,21.204c-4.656-2.433-9.197-5.065-13.612-7.876l12.238-21.194
		c2.171-3.765,6.984-5.055,10.739-2.884C183.373,419.846,184.663,424.649,182.492,428.413z"/>
	<path style="fill:#8A8F91;" d="M130.592,285.415c0,4.352-3.524,7.865-7.865,7.865H70.922c-0.115-2.622-0.168-5.254-0.168-7.897
		c0-2.622,0.052-5.243,0.178-7.834h51.795C127.069,277.55,130.592,281.073,130.592,285.415z"/>
	<path style="fill:#8A8F91;" d="M441.181,285.383c0,2.643-0.052,5.275-0.168,7.897h-51.805c-4.342,0-7.865-3.513-7.865-7.865
		c0-4.342,3.524-7.865,7.865-7.865h51.805C441.129,280.15,441.181,282.762,441.181,285.383z"/>
</g>
<g>
	<path style="fill:#4B606C;" d="M256.001,273.789c-4.345,0-7.865-3.521-7.865-7.865V193.87c0-4.344,3.52-7.865,7.865-7.865
		c4.345,0,7.865,3.521,7.865,7.865v72.054C263.866,270.268,260.345,273.789,256.001,273.789z"/>
	<path style="fill:#4B606C;" d="M306.404,293.285h-30.908c-4.345,0-7.865-3.521-7.865-7.865s3.52-7.865,7.865-7.865h30.908
		c4.345,0,7.865,3.521,7.865,7.865S310.749,293.285,306.404,293.285z"/>
</g>
<circle style="fill:#757C84;" cx="256.006" cy="285.421" r="29.984"/>
<path style="fill:#AF0E0E;" d="M256.004,92.384c-106.441,0-193.042,86.6-193.042,193.031c0,106.441,86.6,193.042,193.042,193.042
	s193.031-86.6,193.031-193.042C449.036,178.984,362.446,92.384,256.004,92.384z M256.004,462.726
	c-97.769,0-177.311-79.543-177.311-177.311c0-97.758,79.543-177.301,177.311-177.301s177.301,79.543,177.301,177.301
	C433.305,383.184,353.773,462.726,256.004,462.726z"/>
<path style="fill:#EF4848;" d="M78.693,285.415c0,97.769,79.543,177.312,177.311,177.312v15.73
	c-106.441,0-193.042-86.6-193.042-193.042c0-106.431,86.6-193.031,193.042-193.031v15.73
	C158.236,108.114,78.693,187.656,78.693,285.415z"/>
<g>
</g>
<g>
</g>
<g>
</g>
<g>
</g>
<g>
</g>
<g>
</g>
<g>
</g>
<g>
</g>
<g>
</g>
<g>
</g>
<g>
</g>
<g>
</g>
<g>
</g>
<g>
</g>
<g>
</g>
</svg>
