<svg height="512pt" viewBox="-97 0 512 512" width="512pt" xmlns="http://www.w3.org/2000/svg"><path d="m194.207031 223.691406v-104.253906c28.511719 7.855469 47.84375 24.628906 52.082031 41.402344.925782 4.105468 4.621094 6.988281 8.828126 6.882812h53.847656c2.519531.015625 4.925781-1.046875 6.613281-2.917968 1.6875-1.871094 2.492187-4.375 2.214844-6.878907-5.382813-55.261719-55.523438-99.222656-123.585938-110.785156v-29.484375c0-9.75-7.90625-17.65625-17.65625-17.65625h-35.308593c-9.75 0-17.65625 7.90625-17.65625 17.65625v29.484375c-71.503907 12.179687-123.585938 60.734375-123.585938 120.582031 0 59.851563 52.082031 108.402344 123.585938 120.585938v104.253906c-28.511719-7.855469-47.84375-24.628906-52.082032-41.402344-.925781-4.105468-4.621094-6.988281-8.828125-6.882812h-53.40625c-2.519531-.015625-4.925781 1.046875-6.613281 2.917968-1.6875 1.871094-2.492188 4.375-2.214844 6.878907 5.386719 55.261719 55.527344 99.222656 123.585938 110.785156v29.484375c0 9.75 7.90625 17.65625 17.65625 17.65625h35.308594c9.75 0 17.65625-7.90625 17.65625-17.65625v-29.484375c71.0625-12.179687 123.144531-60.734375 123.144531-120.582031 0-59.851563-52.082031-108.402344-123.585938-120.585938zm-123.585937-55.96875c0-18.890625 20.566406-39.371094 52.964844-48.285156v96.574219c-32.398438-8.917969-52.964844-29.398438-52.964844-48.289063zm123.585937 224.839844v-96.574219c32.398438 8.828125 52.964844 29.398438 52.964844 48.289063s-20.566406 39.371094-52.964844 48.285156zm0 0" fill="#f5b945"/><g fill="#ffd67b" fill-rule="evenodd"><path d="m79.449219 244.171875c-1.625-.011719-3.210938-.46875-4.589844-1.324219-3.269531-1.941406-6.445313-4.0625-9.445313-6.269531-3.949218-2.875-4.820312-8.410156-1.945312-12.359375 2.878906-3.945312 8.410156-4.816406 12.359375-1.941406 2.648437 1.941406 5.386719 3.796875 8.210937 5.472656 4.160157 2.519531 5.503907 7.925781 3 12.09375-1.589843 2.683594-4.472656 4.328125-7.589843 4.328125zm0 0"/><path d="m40.871094 203.035156c-3.488282-.023437-6.636719-2.097656-8.03125-5.296875-4.199219-9.449219-6.363282-19.675781-6.355469-30.015625.863281-28.074218 15.402344-53.949218 38.929687-69.296875 3.949219-2.875 9.480469-2.003906 12.355469 1.945313 2.878907 3.949218 2.007813 9.480468-1.941406 12.355468-18.898437 12.070313-30.726563 32.59375-31.691406 54.996094.019531 7.933594 1.671875 15.777344 4.855469 23.042969.902343 2.175781.894531 4.621094-.015626 6.792969-.910156 2.171875-2.652343 3.890625-4.839843 4.769531-1.039063.421875-2.144531.660156-3.265625.707031zm0 0"/><path d="m105.929688 97.101562c-3.792969.011719-7.171876-2.40625-8.386719-6-.894531-2.277343-.804688-4.828124.25-7.035156 1.054687-2.210937 2.976562-3.882812 5.3125-4.617187 3.355469-1.058594 6.796875-2.121094 10.328125-3.003907 4.574218-.910156 9.070312 1.890626 10.265625 6.402344 1.191406 4.511719-1.332031 9.171875-5.761719 10.636719l-1.414062.441406h-.441407c-2.472656.617188-4.941406 1.414063-7.324219 2.207031-.875.492188-1.832031.824219-2.828124.96875zm0 0"/><path d="m238.34375 423.722656c-3.097656.019532-5.980469-1.589844-7.589844-4.234375-1.230468-2.011719-1.605468-4.429687-1.039062-6.71875.5625-2.289062 2.015625-4.253906 4.039062-5.464843 2.824219-1.675782 5.5625-3.53125 8.210938-5.382813 2.523437-2.105469 6.003906-2.632813 9.039062-1.371094s5.117188 4.101563 5.40625 7.375c.289063 3.269531-1.265625 6.433594-4.03125 8.207031-3 2.207032-6.175781 4.324219-9.445312 6.355469-1.398438.796875-2.976563 1.222657-4.589844 1.234375zm0 0"/><path d="m276.921875 382.585938c-1.214844.035156-2.421875-.207032-3.53125-.703126-2.160156-.933593-3.859375-2.683593-4.71875-4.871093-.863281-2.1875-.816406-4.628907.128906-6.78125 3.175781-7.207031 4.828125-14.992188 4.855469-22.863281-.980469-22.375-12.808594-42.867188-31.691406-54.910157-1.902344-1.378906-3.175782-3.457031-3.539063-5.773437-.363281-2.320313.210938-4.691406 1.597657-6.585938 1.375-1.898437 3.457031-3.171875 5.773437-3.535156 2.320313-.367188 4.6875.207031 6.582031 1.59375 23.476563 15.269531 38.011719 41.042969 38.929688 69.03125.015625 10.371094-2.148438 20.625-6.355469 30.105469-1.394531 3.195312-4.542969 5.273437-8.03125 5.292969zm0 0"/><path d="m211.863281 276.214844c-.9375.164062-1.890625.164062-2.824219 0l-7.328124-2.558594h-.441407l-1.414062-.441406c-4.753907-1.246094-7.597657-6.105469-6.355469-10.859375 1.242188-4.753907 6.105469-7.597657 10.859375-6.355469 3.53125.882812 6.972656 1.941406 10.328125 3.089844 3.996094 1.449218 6.394531 5.539062 5.703125 9.734375-.691406 4.199219-4.277344 7.304687-8.527344 7.390625zm0 0"/></g></svg>