<svg height="512" viewBox="0 0 128 128" width="512" xmlns="http://www.w3.org/2000/svg" xmlns:xlink="http://www.w3.org/1999/xlink"><linearGradient id="a" gradientUnits="userSpaceOnUse" x1="115.33" x2="29.489" y1="104.443" y2="18.602"><stop offset="0" stop-color="#379cd1"/><stop offset="1" stop-color="#abe751"/></linearGradient><path d="m58.469 93.743a1.75 1.75 0 0 1 -1.75 1.75h-3.657a1.75 1.75 0 0 1 0-3.5h3.657a1.75 1.75 0 0 1 1.75 1.75zm69.531-54.892v50.3a6.351 6.351 0 0 1 -6.344 6.344h-56.125a1.75 1.75 0 0 1 0-3.5h56.125a2.846 2.846 0 0 0 2.844-2.844v-6.011l-26.5-17.302-18.462 11.832a1.754 1.754 0 0 1 -1.889 0l-18.463-11.832-26.5 17.3v6.009a2.847 2.847 0 0 0 2.844 2.844h8.72a1.75 1.75 0 0 1 0 3.5h-8.719a6.351 6.351 0 0 1 -6.344-6.344v-8.212h-7.839a1.75 1.75 0 0 1 0-3.5h7.839v-6.276h-22.433a1.75 1.75 0 0 1 0-3.5h22.433v-7.318h-12.843a1.75 1.75 0 0 1 0-3.5h12.843v-6.276h-27.437a1.75 1.75 0 0 1 0-3.5h27.437v-8.214a6.351 6.351 0 0 1 6.344-6.344h86.125a6.351 6.351 0 0 1 6.344 6.344zm-72.044 24.917-23.269-14.912v30.1zm68.544 15.193v-30.1l-5.467 3.5a1.75 1.75 0 0 1 -1.889-2.947l7.356-4.714v-5.849a2.846 2.846 0 0 0 -2.844-2.844h-86.125a2.847 2.847 0 0 0 -2.844 2.844v5.849l45.907 29.418 18.434-11.813.01-.007 11.945-7.655a1.75 1.75 0 0 1 1.889 2.947l-9.64 6.178zm-117.844-18.62h3.906a1.75 1.75 0 1 0 0-3.5h-3.906a1.75 1.75 0 1 0 0 3.5zm8.91 17.094h-3.906a1.75 1.75 0 1 0 0 3.5h3.906a1.75 1.75 0 1 0 0-3.5z" fill="url(#a)"/></svg>