<?xml version="1.0" encoding="UTF-8"?>
<svg xmlns="http://www.w3.org/2000/svg" xmlns:xlink="http://www.w3.org/1999/xlink" version="1.1" id="Layer_1" x="0px" y="0px" viewBox="0 0 3000 3000" style="enable-background:new 0 0 3000 3000;" xml:space="preserve" width="512" height="512">
<style type="text/css">
	.st0{fill:#0D4278;}
	.st1{fill:#027BF9;}
	.st2{fill:#B63537;}
	.st3{fill:#FFB42B;}
	.st4{opacity:0.22;}
	.st5{fill:#0B4F8B;}
	.st6{fill:#E83A3E;}
	.st7{fill:#C87B00;}
	.st8{fill:#0169D4;}
</style>
<g>
	<g>
		<path class="st0" d="M1138.74,562H737.43L926,154.56c0-0.01,0-0.02,0-0.02l32.93-71.14c4.71-4.68,9.85-8.94,15.35-12.73    L1138.74,562z"/>
	</g>
	<g>
		<polygon class="st0" points="2193.28,115 2399.64,561.53 2128,589.86 2128,115   "/>
	</g>
	<g>
		<path class="st1" d="M1246,162.3V696H927V162.78c-0.51-2.9,1-8.61,1-8.61v-0.5c2.1-27.76,14.26-52.69,32.81-71.14    c4.7-4.68,9.81-8.94,15.29-12.73c18.03-12.49,39.88-19.8,63.44-19.8h94.34C1195.8,50,1246,100.27,1246,162.3z"/>
	</g>
	<g>
		<path class="st1" d="M2213.01,712H1893V178.3c0-62.03,50.35-112.3,112.45-112.3h95.11c62.11,0,112.45,50.29,112.45,112.3V712    H2213.01z"/>
	</g>
	<g>
		<path class="st2" d="M1569.08,1163.4c-49.22,0-96.36-16.52-140.08-49.12c-39.31-29.3-74.18-70.47-103.63-122.35    c-57.71-101.67-89.49-235.79-89.49-377.62s31.78-275.94,89.49-377.62c29.46-51.89,64.32-93.06,103.63-122.35    c43.73-32.59,90.86-49.12,140.08-49.12c49.22,0,96.36,16.52,140.08,49.12c39.31,29.3,74.18,70.47,103.63,122.35    c57.71,101.67,89.49,235.79,89.49,377.62s-31.78,275.94-89.49,377.62c-29.46,51.89-64.32,93.06-103.63,122.35    C1665.44,1146.88,1618.3,1163.4,1569.08,1163.4z M1569.08,164.94c-27.28,0-54.35,9.87-80.49,29.35    c-27.77,20.69-54.22,52.37-76.49,91.62c-23.71,41.79-42.42,90.81-55.6,145.71c-13.86,57.74-20.89,119.2-20.89,182.68    s7.03,124.94,20.89,182.68c13.18,54.9,31.88,103.93,55.6,145.71c22.27,39.25,48.72,70.92,76.49,91.62    c26.13,19.47,53.21,29.35,80.49,29.35c27.28,0,54.35-9.87,80.49-29.35c27.77-20.69,54.22-52.37,76.49-91.62    c23.71-41.79,42.42-90.81,55.6-145.71c13.86-57.74,20.89-119.2,20.89-182.68s-7.03-124.94-20.89-182.68    c-13.18-54.9-31.88-103.93-55.6-145.71c-22.27-39.25-48.72-70.92-76.49-91.62C1623.44,174.81,1596.36,164.94,1569.08,164.94z"/>
	</g>
	<g>
		<path class="st3" d="M2472.32,2685H2292v-850h180.32c83.23,0,150.68,67.46,150.68,150.65v548.68    C2623,2617.54,2555.53,2685,2472.32,2685z"/>
	</g>
	<g>
		<path class="st1" d="M2611.94,2319.02l-92,18.52l-77.16,15.53l-11.38,2.29l-70.56-350.61l-47.94-238.25l71.05-14.3    c7.48-1.51,14.95-2.55,22.37-3.15c56.44-4.59,110.35,16.32,148.67,54.14v0.01c15.47,15.04,28.33,32.75,37,52.62v0.01    c7.78,14.14,12.97,29.38,16.22,45.49l65.4,324.96C2682.2,2268.92,2654.58,2310.44,2611.94,2319.02z"/>
	</g>
	<g>
		<path class="st3" d="M673.68,2717H854v-850H673.68c-83.23,0-150.68,67.46-150.68,150.65v548.68    C523,2649.54,590.47,2717,673.68,2717z"/>
	</g>
	<g>
		<path class="st1" d="M833.19,1798.23l-106.42,528.81l-12.08,60.04l-180.54-36.33c-42.64-8.58-70.25-50.1-61.68-92.74l65.4-324.96    c17.52-87.12,91.92-148.3,176.79-152.66c15.56-0.79,31.48,0.32,47.47,3.54L833.19,1798.23z"/>
	</g>
	<g class="st4">
		<path class="st5" d="M2592,1855.83c0,0-129.22,177.99-71.49,481.71l-75.58,15.53l-11.14,2.29l-69.11-350.61l44.55-255.7    c55.29-4.59,108.1,16.32,145.78,54.14v0.01c15,15.04,27.59,32.75,37,52.62L2592,1855.83L2592,1855.83z"/>
	</g>
	<g class="st4">
		<path class="st5" d="M726.77,2327.04l-12.08,60.04l-180.54-36.33c-42.64-8.58-70.25-50.1-61.68-92.74l65.4-324.96    c17.52-87.12,91.92-148.3,176.79-152.66l-26.18,17.75c0,0-312.8,584.64-1.13,533.67C701.92,2329.44,715.02,2327.87,726.77,2327.04    z"/>
	</g>
	<g>
		<path class="st2" d="M2113.12,2950H1033.8c-191.53,0-346.8-155.27-346.8-346.8V741.83C687,646.93,763.93,570,858.83,570h1429.33    c94.9,0,171.83,76.93,171.83,171.83V2603.2C2460.01,2794.73,2304.7,2950,2113.12,2950z"/>
	</g>
	<g>
		<path class="st6" d="M2284,991v1574.09c0,138.02-111.89,249.91-249.91,249.91h-922.18C973.89,2815,862,2703.11,862,2565.09V991    H2284z"/>
	</g>
	<g class="st4">
		<path class="st2" d="M2033.86,2815h-921.95C973.89,2815,862,2703.11,862,2565.09V1103.77l527,137.04c0,0,210.8,463.53,346.8,469.2    s-420.46,218.73-346.8,486.2C1462.66,2463.67,2033.86,2815,2033.86,2815z"/>
	</g>
	<g>
		<path class="st3" d="M2520,773.54v393.52c0,141.9-115.03,256.94-256.94,256.94H887.94C746.03,1424,631,1308.97,631,1167.06V773.54    C631,608.66,764.66,475,929.54,475h1291.92C2386.34,475,2520,608.66,2520,773.54z"/>
	</g>
	<g class="st4">
		<path class="st7" d="M1884.95,1424H887.94C746.03,1424,631,1308.97,631,1167.06V773.54C631,608.66,764.66,475,929.54,475h343.2    c0,0-523.82,82.77-410.44,515.88C975.24,1422.31,1877.91,1423.99,1884.95,1424z"/>
	</g>
	<g>
		<path class="st8" d="M1233.27,1602h-92.55c-21.39,0-38.73-17.34-38.73-38.73v-248.55c0-21.39,17.34-38.73,38.73-38.73h92.55    c21.39,0,38.73,17.34,38.73,38.73v248.55C1272,1584.66,1254.66,1602,1233.27,1602z"/>
	</g>
	<g>
		<path class="st8" d="M2039.27,1602h-92.55c-21.39,0-38.73-17.34-38.73-38.73v-248.55c0-21.39,17.34-38.73,38.73-38.73h92.55    c21.39,0,38.73,17.34,38.73,38.73v248.55C2078,1584.66,2060.66,1602,2039.27,1602z"/>
	</g>
	<g>
		<path class="st3" d="M2063,2118.86v389.55c0,51.14-41.46,92.59-92.59,92.59h-794.81c-51.14,0-92.59-41.46-92.59-92.59v-389.55    c0-87.74,71.12-158.86,158.86-158.86h662.28C1991.88,1960,2063,2031.12,2063,2118.86z"/>
	</g>
	<g class="st4">
		<path class="st7" d="M1694.61,2601h-519.02c-51.14,0-92.59-41.46-92.59-92.59v-389.55c0-87.74,71.12-158.86,158.86-158.86h192    l17.38,17.03C1451.25,1977.03,1037.81,2463.97,1694.61,2601z"/>
	</g>
	<g>
		<path class="st7" d="M1083.52,2363c-0.02,0-0.37,0-0.38,0c-17.23-0.02-31.18-14.02-31.14-31.25l0.31-201.7    c0.09-57.92,24.35-112.11,67.99-151.02c37.29-33.25,85.85-51.04,135.81-51.04h623.76c118.26,0,214.13,95.87,214.13,214.13v202.33    c0,1.29-0.51,2.54-1.4,3.48c-27.11,29.09-60.6,10.22-60.6-16.52v-200.58c0-77.23-62.61-139.84-139.84-139.84h-637.33    c-76.98,0-139.7,62.59-139.83,139.53l-0.31,201.37C1114.66,2349.08,1100.71,2363,1083.52,2363z"/>
	</g>
	<g>
		
			<ellipse transform="matrix(0.5826 -0.8127 0.8127 0.5826 -1474.5292 1834.3685)" class="st7" cx="1048.75" cy="2352.84" rx="76.87" ry="37.98"/>
	</g>
	<g>
		
			<ellipse transform="matrix(0.9682 -0.2502 0.2502 0.9682 -563.1044 351.941)" class="st7" cx="1102.72" cy="2390.81" rx="37.85" ry="76.62"/>
	</g>
</g>
</svg>
