<svg id="Layer_1" enable-background="new 0 0 53 53" height="512" viewBox="0 0 53 53" width="512" xmlns="http://www.w3.org/2000/svg"><g id="_x34_1"><g><g><path d="m50.4998093 26.5185051c0 10.1379967-6.294239 18.8346214-15.1832428 22.2939148-13.50383 5.4483795-29.7802792-2.7152481-32.4322052-18.1618824-.24018-1.3454762-.3841705-2.7387543-.3841705-4.1320324 0-13.4455719 10.9486494-24.0238571 24.0238571-24.0238571 7.1590614 0 13.5491943 3.1229255 17.9217033 8.1200752h.0480919c3.6994743 4.2279291 6.0059662 9.8016281 6.0059662 15.9037819z" fill="#deddff"/></g></g><g><g><path d="m28.7395992 18.3730049c.0728149 1.2257805-.8737812 2.2937813-2.1117096 2.3544483-1.7961521.0849628-3.5923786.1456299-5.3885307.2184448-1.0073338.0485191-2.1602993.0971127-2.9855614-.5340004-.9102249-.7160015-1.1529655-2.0631905-2.1117077-2.6821537-.8617058-.5339279-2.0145969-.3397789-2.8763027.1457043-.8737803.473259-1.5898552 1.2014828-2.3059311 1.8689671-.7766685.6189632-1.6868925 1.2014828-2.6942282 1.2500019-.4854827.0242958-.9830394-.0970364-1.4442253-.327631-.3519268-.1577778-.6674829-.3883705-.9587431-.6311111-.6675568-.5825195-1.2015581-1.2985954-1.6869664-2.0267448 0-.0485935-.0364447-.0485935-.0849633-.0971127 2.7306728-7.1483117 8.786686-12.6338788 16.2869253-14.5999573.2388515.8954699.5525684 2.504761 1.9175587 5.4734192 2.1601944 4.6357365 4.0061226 2.1929884 5.4734936 3.3617859.5825195.4854822.6796303 1.2985954.7281494 2.0267448.0971126 1.4078548.1699276 2.7914131.2427425 4.1991947z" fill="#65b9ff"/></g></g><g><g><path d="m50.4998093 26.5185051c0 10.1379967-6.294239 18.8346214-15.1832428 22.2939148-.2401772-.7208328-.3363686-1.4413719-.4322624-2.1622047l-.0961914-.4322662c-.9833221-3.4794884-6.7137661-4.2556152-1.9220238-10.7145462 1.4416656-1.9701195 3.0751228-4.1323261 5.4775085-4.7088757 1.0572014-.2882729 2.1622047-.1920853 3.2672081-.3363686 1.0572014-.1439896 2.2103004-.6243496 2.7387543-1.5372677s.3844643-2.1141109-.0480957-3.0751247c-.4322624-.9610119-1.1530952-1.7777424-1.6815491-2.6425648-1.3454781-2.2103004-1.8739319-4.9009609-1.4413757-7.4476309.3363724-1.7777414 1.1530991-3.5554838 2.594471-4.6604872.1920853-.1920853.43256-.3363686.6727409-.4803591h.0480919c3.6994743 4.2279282 6.0059662 9.8016272 6.0059662 15.903781z" fill="#65b9ff"/></g></g><g><g><path d="m26.191 50.4978142c-11.7237291-.1456299-21.3841934-8.6531296-23.301754-19.8428574.0971112-.0971107.1820004-.194149.3276303-.2427406.825335-.4368896 1.7355595-.4368896 2.6457834-.4368896h.4975567c2.852006-.0485191 5.7283831-.0485191 8.580389-.0485191 1.5898552 0 3.276823 0 4.6603069.8252602 1.3957062.8616314 2.1603012 2.439415 2.5486717 4.0292702.3397789 1.6383743.3397789 3.2646713.4854088 4.9030457.3282757 3.8827248 1.4634991 7.2459564 3.3617859 10.4493561.0606649.1214063.1334799.2427404.1942213.3640745z" fill="#65b9ff"/></g></g><g><g><path d="m28.2784119 50.4249992c-12.0961781 1.0305329-23.2950192-7.5498581-25.3891662-19.7700424-.2427413-1.3471146-.3883712-2.7428207-.3883712-4.1384525 0-14.2100239 12.2531452-25.071476 25.7775383-23.945015-12.1949911.9073186-22.1851601 11.078312-22.1851601 23.945015 0 1.3956318.1456299 2.791338.3762231 4.1384525 1.8446702 10.7042465 10.7649126 18.9569321 21.8089361 19.7700424z" fill="#c6c6f7"/></g></g><g><g><path d="m20.6689148 4.4526777c-6.7434139 2.8566356-12.0128021 8.7786122-13.8475123 16.2141085-.3519268-.1577778-.6674829-.3883705-.9587431-.6311111-.6675568-.5825195-1.2015581-1.2985954-1.6869664-2.0267448 0-.0485935-.0364447-.0485935-.0849633-.0971127 2.7306728-7.1483117 8.786686-12.6338788 16.2869253-14.5999573.0971108.364075.1942215.7645204.2912598 1.1408174z" fill="#3e7fff"/></g></g><g><g><path d="m26.191 50.4978142c-11.7237291-.1456299-21.3841934-8.6531296-23.301754-19.8428574.0971112-.0971107.1820004-.194149.3276303-.2427406.825335-.4368896 1.7355595-.4368896 2.6457834-.4368896h.4975567c.0364447.2305927.0728149.4490376.1092596.6796303 1.7111893 9.9518013 9.55128 17.7918892 19.5273018 19.4787827.0606658.1214064.1334808.2427405.1942222.3640746z" fill="#3e7fff"/></g></g><g><g><path d="m44.0208321 31.3959541h-35.0416651c-1.7604079 0-3.1875005-1.4270935-3.1875005-3.1875v-4.7805405c0-1.7604084 1.4270926-3.1875 3.1875005-3.1875h35.0416641c1.7604103 0 3.1875 1.4270916 3.1875 3.1875v4.7805405c.000001 1.7604065-1.4270887 3.1875-3.187499 3.1875z" fill="#fcb73e"/></g></g><g><g><path d="m44.0208435 20.2404137h-6.9567261v11.1555176h6.9567261c1.760376 0 3.1875-1.427063 3.1875-3.1875v-4.7805176c0-1.760437-1.427124-3.1875-3.1875-3.1875z" fill="#e83d62"/></g></g><g><g><g><path d="m39.4794579 23.8809299c-.9347343.9347324-.9347343 2.4465961.0000496 3.3813782.7965622.7965641 2.0076828.9185104 2.9261398.3576508l1.2030334 1.2030315c.2275696.2275696.5852699.2275696.8128357 0 .2276192-.2276173.2275696-.585268 0-.8128357l-1.2030296-1.2030315c.5609093-.9185104.438961-2.1296291-.3576012-2.9261932-.9347839-.9347821-2.4466476-.9347821-3.3814277-.0000001zm2.5685424 2.5685425c-.4876823.4876823-1.2679749.4876823-1.7556572 0-.4877319-.4877319-.4877319-1.2680225-.0000496-1.7557049.4877319-.4877319 1.2680244-.4877319 1.7557564 0 .4876824.4876824.4876824 1.267973-.0000496 1.7557049z" fill="#deddff"/></g></g></g><g><g><path d="m11.1841097 28.3749924c-1.5339794-4.5234756-1.5083008-4.3492031-1.5083008-4.503418 0-.5555096.752861-.6120205.8945313-.1870117l1.2167969 4.0039063c1.3041506-4.108099 1.1503992-3.9968586 1.3989258-4.1806641.19069-.1410313.4493284-.1375008.6342773 0 .09375.0693359.1577148.159668.1923828.2705078l1.206543 3.9101563c1.3089266-4.1886635 1.1512327-4.058218 1.3779287-4.2070313.3692589-.2401314.8628407.0922909.7021484.5668945-1.5786047 4.5096092-1.4189043 4.4239922-1.7055655 4.6386719-.2224665.166605-.52633.1667747-.7490234 0-.1108398-.0830078-.1904297-.1904297-.2392578-.3222656l-1.1020508-3.4428711c-1.1514463 3.4442883-1.0211926 3.5250359-1.3417969 3.7651367-.1108398.0830078-.2358398.1245117-.3745117.1245117-.2880325 0-.5228662-.195097-.6030273-.4365234z" fill="#5b5e8b"/></g><g><path d="m19.4209251 28.3749924c-1.5339794-4.5234756-1.5083008-4.3492031-1.5083008-4.503418 0-.1313477.0454102-.2426758.1352539-.3325195.2455616-.2455597.6657734-.1350021.7592773.1455078l1.2167969 4.0039063 1.206543-3.9101563c.0688381-.2200871.2698212-.3745117.5097656-.3745117.2421513 0 .4412251.1569347.5092773.3745117l1.206543 3.9101563c1.3089275-4.1886635 1.1512337-4.058218 1.3779297-4.2070313.1755238-.1141434.4302368-.1102924.5981445.0576172.1354504.1354485.1673031.3223248.1040039.5092773-1.5786037 4.5096092-1.4189053 4.4239922-1.7055664 4.6386719-.2224655.166605-.526329.1667747-.7490234 0-.1108398-.0830078-.1904297-.1904297-.2392578-.3222656l-1.1020508-3.4428711c-1.1514454 3.4442883-1.0211906 3.5250359-1.3417969 3.7651367-.1108398.0830078-.2358398.1245117-.3745117.1245117-.2880324 0-.5228652-.195097-.6030273-.4365234z" fill="#5b5e8b"/></g><g><path d="m27.6577415 28.3749924c-1.5339794-4.5234756-1.5083008-4.3492031-1.5083008-4.503418 0-.1313477.0454102-.2426758.1352539-.3325195.1671314-.1671314.4218864-.1722393.5981445-.0576172.0795898.0522461.1333008.1196289.1611328.203125l1.2167969 4.0039063c1.3041515-4.108099 1.1504002-3.9968586 1.3989258-4.1806641.190691-.1410313.4493294-.1375008.6342773 0 .09375.0693359.1577148.159668.1923828.2705078l1.206543 3.9101563c1.3089256-4.1886635 1.1512337-4.058218 1.3779297-4.2070313.1755257-.1141434.4302368-.1102924.5981445.0576172.1354485.1354485.167305.3223248.1040039.5092773-1.5786057 4.5096092-1.4189034 4.4239922-1.7055664 4.6386719-.2224655.166605-.526329.1667747-.7490234 0-.1108398-.0830078-.1904297-.1904297-.2392578-.3222656l-1.1020508-3.4428711c-1.1514454 3.4442883-1.0211906 3.5250359-1.3417969 3.7651367-.1108398.0830078-.2358398.1245117-.3745117.1245117-.2880324 0-.5228652-.195097-.6030273-.4365234z" fill="#5b5e8b"/></g></g></g></svg>