<svg height="512" viewBox="0 0 64 64" width="512" xmlns="http://www.w3.org/2000/svg"><g id="Layer_31" data-name="Layer 31"><path d="m21 51h4v8h-4z" fill="#ea3f3f"/><path d="m23 58-8.392 1.678a2 2 0 0 0 -1.608 1.962v1.36l10-2 10 2v-1.36a2 2 0 0 0 -1.608-1.962z" fill="#f96464"/><path d="m38.283 43h-30.566a2.056 2.056 0 0 0 -1.674.853l-4.672 6.533a2 2 0 0 0 1.388 3.13 138.757 138.757 0 0 0 40.482 0 2 2 0 0 0 1.388-3.13l-4.672-6.533a2.056 2.056 0 0 0 -1.674-.853z" fill="#72aa65"/><path d="m6.759 51.516a2 2 0 0 1 -1.388-3.13l3.852-5.386h-1.506a2.056 2.056 0 0 0 -1.674.853l-4.672 6.533a2 2 0 0 0 1.388 3.13 138.757 138.757 0 0 0 40.482 0 2.029 2.029 0 0 0 1.733-1.709 138.693 138.693 0 0 1 -38.215-.291z" fill="#599149"/><path d="m23 49a1 1 0 0 1 -1-1v-3a1 1 0 0 1 2 0v3a1 1 0 0 1 -1 1z" fill="#f8c460"/><path d="m9 48a1 1 0 0 1 -1-1v-3a1 1 0 0 1 2 0v3a1 1 0 0 1 -1 1z" fill="#f8c460"/><path d="m34.2 33h-22.4a2.055 2.055 0 0 0 -1.674.853l-4.726 6.617a2 2 0 0 0 1.327 3.13 94.958 94.958 0 0 0 32.546 0 2 2 0 0 0 1.327-3.13l-4.73-6.617a2.055 2.055 0 0 0 -1.67-.853z" fill="#72aa65"/><path d="m10.727 41.6a2 2 0 0 1 -1.327-3.13l3.91-5.47h-1.51a2.055 2.055 0 0 0 -1.674.853l-4.726 6.617a2 2 0 0 0 1.327 3.13 94.908 94.908 0 0 0 32.546 0 2.027 2.027 0 0 0 1.668-1.648 94.862 94.862 0 0 1 -30.214-.352z" fill="#599149"/><path d="m14 39a1 1 0 0 1 -1-1v-4a1 1 0 0 1 2 0v4a1 1 0 0 1 -1 1z" fill="#f8c460"/><path d="m32 42a1 1 0 0 1 -1-1v-3a1 1 0 0 1 2 0v3a1 1 0 0 1 -1 1z" fill="#f8c460"/><path d="m30.109 23h-14.218a2.055 2.055 0 0 0 -1.674.853l-4.817 6.737a1.994 1.994 0 0 0 1.24 3.11 59.352 59.352 0 0 0 24.72 0 1.994 1.994 0 0 0 1.24-3.11l-4.818-6.737a2.055 2.055 0 0 0 -1.673-.853z" fill="#72aa65"/><path d="m14.64 31.7a1.994 1.994 0 0 1 -1.24-3.11l4-5.59h-1.509a2.055 2.055 0 0 0 -1.674.853l-4.817 6.737a1.994 1.994 0 0 0 1.24 3.11 59.352 59.352 0 0 0 24.72 0 2 2 0 0 0 1.556-1.55 59.281 59.281 0 0 1 -22.276-.45z" fill="#599149"/><path d="m28 32a1 1 0 0 1 -1-1v-3a1 1 0 0 1 2 0v3a1 1 0 0 1 -1 1z" fill="#f8c460"/><path d="m18 29a1 1 0 0 1 -1-1v-3a1 1 0 0 1 2 0v3a1 1 0 0 1 -1 1z" fill="#f8c460"/><path d="m23 9-9.416 11.729a2 2 0 0 0 1.116 3.179 32.127 32.127 0 0 0 16.61 0 2 2 0 0 0 1.111-3.179z" fill="#72aa65"/><path d="m18.7 21.908a2 2 0 0 1 -1.111-3.179l6.611-8.238-1.2-1.491-9.416 11.729a2 2 0 0 0 1.116 3.179 32.127 32.127 0 0 0 16.61 0 2.042 2.042 0 0 0 1.467-1.447 32.055 32.055 0 0 1 -14.077-.553z" fill="#599149"/><path d="m23 20a1 1 0 0 1 -1-1v-3a1 1 0 0 1 2 0v3a1 1 0 0 1 -1 1z" fill="#f8c460"/><path d="m23 1 2 3 4 1-3 2 1 4-4-2-4 2 1-4-3-2 4-1z" fill="#f8c460"/><circle cx="22" cy="22" fill="#599149" r="2"/><circle cx="23" cy="21" fill="#f96464" r="2"/><circle cx="23.5" cy="20.5" fill="#fff" r=".5"/><circle cx="17" cy="31" fill="#599149" r="2"/><circle cx="31" cy="44" fill="#599149" r="2"/><circle cx="32" cy="43" fill="#f8c460" r="2"/><circle cx="27" cy="34" fill="#599149" r="2"/><circle cx="28" cy="33" fill="#98deea" r="2"/><circle cx="28.5" cy="32.5" fill="#fff" r=".5"/><circle cx="32.5" cy="42.5" fill="#fff" r=".5"/><circle cx="21" cy="51" fill="#599149" r="2"/><circle cx="7" cy="50" fill="#599149" r="2"/><circle cx="9" cy="49" fill="#98deea" r="2"/><circle cx="12" cy="41" fill="#599149" r="2"/><circle cx="14" cy="40" fill="#f96464" r="2"/><circle cx="14.5" cy="39.5" fill="#fff" r=".5"/><circle cx="9.5" cy="48.5" fill="#fff" r=".5"/><rect fill="#f96464" height="16" rx="2" width="14" x="41" y="47"/><path d="m43 43h2a3 3 0 0 1 3 3v1a0 0 0 0 1 0 0h-2a3 3 0 0 1 -3-3v-1a0 0 0 0 1 0 0z" fill="#f96464"/><path d="m51 43h2a0 0 0 0 1 0 0v1a3 3 0 0 1 -3 3h-2a0 0 0 0 1 0 0v-1a3 3 0 0 1 3-3z" fill="#f96464" transform="matrix(-1 0 0 -1 101 90)"/><path d="m53 55a2 2 0 0 0 -2 2v1a2 2 0 0 1 -2 2 4 4 0 0 1 -4-4v-1a1.994 1.994 0 0 0 -1-1.723v-6.277h-1a2 2 0 0 0 -2 2v12a2 2 0 0 0 2 2h10a2 2 0 0 0 2-2v-6z" fill="#ea3f3f"/><rect fill="#f8c460" height="10" rx="2" width="14" x="29" y="53"/><path d="m38 60a6 6 0 0 1 -6-6v-1h-1a2 2 0 0 0 -2 2v6a2 2 0 0 0 2 2h10a2 2 0 0 0 2-2v-1z" fill="#faaf42"/><path d="m31 49h2a3 3 0 0 1 3 3v1a0 0 0 0 1 0 0h-2a3 3 0 0 1 -3-3v-1a0 0 0 0 1 0 0z" fill="#f8c460"/><path d="m33 50v-1h-2v1a3 3 0 0 0 3 3h2a3 3 0 0 1 -3-3z" fill="#faaf42"/><path d="m45 44v-1h-2v1a3 3 0 0 0 3 3h2a3 3 0 0 1 -3-3z" fill="#ea3f3f"/><path d="m39 49h2a0 0 0 0 1 0 0v1a3 3 0 0 1 -3 3h-2a0 0 0 0 1 0 0v-1a3 3 0 0 1 3-3z" fill="#f8c460" transform="matrix(-1 0 0 -1 77 102)"/><path d="m41 49h-2a3 3 0 0 0 -3 3v1h2v-1a3 3 0 0 1 3-3z" fill="#faaf42"/><path d="m53 43h-2a3 3 0 0 0 -3 3v1h2v-1a3 3 0 0 1 3-3z" fill="#ea3f3f"/><rect fill="#72aa65" height="8" rx="2" width="10" x="53" y="55"/><path d="m60 60a4 4 0 0 1 -4-4v-1h-1a2 2 0 0 0 -2 2v4a2 2 0 0 0 2 2h6a2 2 0 0 0 2-2v-1z" fill="#599149"/><path d="m53 51h2a3 3 0 0 1 3 3v1a0 0 0 0 1 0 0h-2a3 3 0 0 1 -3-3v-1a0 0 0 0 1 0 0z" fill="#72aa65"/><path d="m55 52v-1h-2v1a3 3 0 0 0 3 3h2a3 3 0 0 1 -3-3z" fill="#599149"/><path d="m61 51h2a0 0 0 0 1 0 0v1a3 3 0 0 1 -3 3h-2a0 0 0 0 1 0 0v-1a3 3 0 0 1 3-3z" fill="#72aa65" transform="matrix(-1 0 0 -1 121 106)"/><path d="m63 51h-2a3 3 0 0 0 -3 3v1h2v-1a3 3 0 0 1 3-3z" fill="#599149"/><path d="m26.143 7.571-2.732-.371a4 4 0 0 1 -2.381-1.242l-1.485-1.594-2.545.636 3 2-.143.571-.857 3.429 2-1 2-1 4 2z" fill="#faaf42"/><g fill="#f8c460"><path d="m26.544 13.415a74.582 74.582 0 0 1 -8.876 2.228l-1.826 2.274a68.044 68.044 0 0 0 12.043-2.831z"/><path d="m32.841 25.333a95.409 95.409 0 0 1 -22.921 4.528l-.52.729a1.938 1.938 0 0 0 -.353 1.338 97.265 97.265 0 0 0 25.013-4.894z"/><path d="m37.069 35.53a192.281 192.281 0 0 1 -32.019 6.357 2.026 2.026 0 0 0 1.677 1.713c.152.026.3.043.454.068a195.969 195.969 0 0 0 31.119-6.417z"/><path d="m12.605 54.6a295.239 295.239 0 0 0 29.016-8.42l-1.218-1.7c-11.968 3.974-24.344 7.785-34.761 9.409 2.321.289 4.642.54 6.963.711z"/></g><circle cx="23" cy="50" fill="#f96464" r="2"/><circle cx="23.5" cy="49.5" fill="#fff" r=".5"/><circle cx="18" cy="30" fill="#f8c460" r="2"/><circle cx="18.5" cy="29.5" fill="#fff" r=".5"/><path d="m47 47h2v16h-2z" fill="#72aa65"/><path d="m47 59.445v3.555h2v-3a3.955 3.955 0 0 1 -2-.555z" fill="#599149"/><path d="m35 53h2v10h-2z" fill="#72aa65"/><path d="m35 59.191v3.809h2v-3.09a5.961 5.961 0 0 1 -2-.719z" fill="#599149"/><path d="m57 55h2v8h-2z" fill="#f8c460"/><path d="m57 58.62v4.38h2v-3.141a3.974 3.974 0 0 1 -2-1.239z" fill="#faaf42"/></g></svg>