<?xml version="1.0" encoding="iso-8859-1"?>
<!-- Generator: Adobe Illustrator 19.0.0, SVG Export Plug-In . SVG Version: 6.00 Build 0)  -->
<svg version="1.1" id="Capa_1" xmlns="http://www.w3.org/2000/svg" xmlns:xlink="http://www.w3.org/1999/xlink" x="0px" y="0px"
	 viewBox="0 0 512 512" style="enable-background:new 0 0 512 512;" xml:space="preserve">
<g>
	<path style="fill:#FDB62F;" d="M151.864,182.237h-17.356v-17.356h17.356c4.79,0,8.678-3.888,8.678-8.678s-3.888-8.678-8.678-8.678
		h-5.163c-49.846,0.026-90.268-40.361-90.294-90.207c0-0.017,0-0.026,0-0.043V34.712C56.407,15.542,71.949,0,91.119,0
		s34.712,15.542,34.712,34.712c0,4.79,3.888,8.678,8.678,8.678s8.678-3.888,8.678-8.678v-8.678h17.356v8.678
		c0,14.379-11.655,26.034-26.034,26.034c-14.379,0-26.034-11.655-26.034-26.034c0-9.589-7.767-17.356-17.356-17.356
		s-17.356,7.767-17.356,17.356v22.563c0,40.257,32.638,72.895,72.895,72.895c0.017,0,0.026,0,0.043,0h5.163
		c14.379,0,26.034,11.655,26.034,26.034C177.898,170.583,166.244,182.237,151.864,182.237z"/>
	<path style="fill:#FDB62F;" d="M377.492,182.237h-17.356c-14.379,0-26.034-11.655-26.034-26.034
		c0-14.379,11.655-26.034,26.034-26.034h5.207c40.257,0,72.895-32.638,72.895-72.895l0,0V34.712c0-9.589-7.767-17.356-17.356-17.356
		c-9.589,0-17.356,7.767-17.356,17.356c0,14.379-11.654,26.034-26.034,26.034c-14.379,0-26.034-11.655-26.034-26.034v-8.678h17.356
		v8.678c0,4.79,3.888,8.678,8.678,8.678s8.678-3.888,8.678-8.678C386.169,15.542,401.712,0,420.881,0
		c19.17,0,34.712,15.542,34.712,34.712v22.563c0,49.846-40.405,90.251-90.251,90.251l0,0h-5.207c-4.79,0-8.678,3.888-8.678,8.678
		s3.888,8.678,8.678,8.678h17.356V182.237z"/>
</g>
<polygon style="fill:#B86E3C;" points="351.458,477.288 351.458,355.797 160.542,355.797 160.542,477.288 143.186,512 368.814,512 
	"/>
<path style="fill:#FDB62F;" d="M317.084,188.156l-26.372,46.149h-69.424l-26.372-46.149
	c-28.212-49.378-43.051-105.255-43.051-162.122h208.271C360.136,82.901,345.296,138.778,317.084,188.156z"/>
<path style="fill:#FFA719;" d="M308.068,26.034c0,56.867-14.839,112.744-43.051,162.122l-26.372,46.149h52.068l26.372-46.149
	c28.212-49.378,43.051-105.255,43.051-162.122H308.068z"/>
<g>
	<rect x="203.932" y="390.508" style="fill:#FDB62F;" width="104.136" height="52.068"/>
	<polygon style="fill:#FDB62F;" points="282.034,269.017 229.966,269.017 195.254,355.797 316.746,355.797 	"/>
</g>
<polygon style="fill:#FFA719;" points="282.034,269.017 247.322,269.017 282.034,355.797 316.746,355.797 "/>
<path style="fill:#FDB62F;" d="M221.288,234.305h69.424c9.589,0,17.356,7.767,17.356,17.356l0,0c0,9.589-7.767,17.356-17.356,17.356
	h-69.424c-9.589,0-17.356-7.767-17.356-17.356l0,0C203.932,242.072,211.699,234.305,221.288,234.305z"/>
<path style="fill:#FFA719;" d="M290.712,234.305h-17.356c9.589,0,17.356,7.767,17.356,17.356s-7.767,17.356-17.356,17.356h17.356
	c9.589,0,17.356-7.767,17.356-17.356S300.301,234.305,290.712,234.305z"/>
<path style="fill:#FA962A;" d="M195.254,52.068h156.203c4.79,0,8.678,3.888,8.678,8.678l0,0c0,4.79-3.888,8.678-8.678,8.678H195.254
	c-4.79,0-8.678-3.888-8.678-8.678l0,0C186.576,55.956,190.464,52.068,195.254,52.068z"/>
<g>
	<path style="fill:#FDCC6F;" d="M226.13,178.549c-9.763-14.813-17.243-31.015-22.198-48.059l16.54-5.207
		c4.434,15.343,11.125,29.939,19.855,43.312L226.13,178.549z"/>
	<path style="fill:#FDCC6F;" d="M199.767,116.146c-2.942-11.151-4.339-18.849-4.339-19.17l17.078-3.037
		c0,0.069,1.336,7.376,4.07,17.781L199.767,116.146z"/>
</g>
<path style="fill:#FDB62F;" d="M91.119,260.339L91.119,260.339c-2.968-17.799-16.913-31.744-34.712-34.712l0,0
	c17.799-2.968,31.744-16.913,34.712-34.712l0,0c2.968,17.799,16.913,31.744,34.712,34.712l0,0
	C108.032,228.595,94.087,242.54,91.119,260.339z"/>
<path style="fill:#FA962A;" d="M247.322,312.407h52.068c4.79,0,8.678,3.888,8.678,8.678l0,0c0,4.79-3.888,8.678-8.678,8.678h-52.068
	c-4.79,0-8.678-3.888-8.678-8.678l0,0C238.644,316.295,242.532,312.407,247.322,312.407z"/>
<path style="fill:#94552B;" d="M351.458,485.966H160.542c-4.79,0-8.678-3.888-8.678-8.678s3.888-8.678,8.678-8.678h190.915
	c4.79,0,8.678,3.888,8.678,8.678S356.248,485.966,351.458,485.966z"/>
<rect x="203.932" y="425.22" style="fill:#FA962A;" width="104.136" height="17.356"/>
<g>
</g>
<g>
</g>
<g>
</g>
<g>
</g>
<g>
</g>
<g>
</g>
<g>
</g>
<g>
</g>
<g>
</g>
<g>
</g>
<g>
</g>
<g>
</g>
<g>
</g>
<g>
</g>
<g>
</g>
</svg>
