<svg id="Flat_1" height="512" viewBox="0 0 64 64" width="512" xmlns="http://www.w3.org/2000/svg" data-name="Flat 1"><path d="m7 5a4 4 0 0 0 -4 4v32l31 2-2-38z" fill="#78d7e6"/><path d="m57 5a4 4 0 0 1 4 4v32l-29 2v-38z" fill="#64a0fa"/><path d="m3 41v-32a4.7555 4.7555 0 0 1 4.75-4.75h48.5a4.7555 4.7555 0 0 1 4.75 4.75v32l-1.5 1v-33a3.2538 3.2538 0 0 0 -3.25-3.25h-48.5a3.2538 3.2538 0 0 0 -3.25 3.25v33z" fill="#696e82"/><path d="m25 48h14v10h-14z" fill="#5b6172"/><path d="m3 45a4 4 0 0 0 4 4h50a4 4 0 0 0 4-4v-4h-58z" fill="#696e82"/><path d="m19 57h26v4h-26z" fill="#696e82"/><path d="m14 33h6a5 5 0 0 1 5 5v3a0 0 0 0 1 0 0h-16a0 0 0 0 1 0 0v-3a5 5 0 0 1 5-5z" fill="#f03a5a"/><path d="m21.5 27-3.5-3-5.5 3v1.5a4.5 4.5 0 0 0 4.5 4.5 4.5 4.5 0 0 0 4.5-4.5z" fill="#ffd7aa"/><path d="m17 21a4.5 4.5 0 0 0 -4.5 4.5v1.5h2.2639a3.6182 3.6182 0 0 0 3.2361-2 3.6182 3.6182 0 0 0 3.2361 2h.2639v-1.5a4.5 4.5 0 0 0 -4.5-4.5z" fill="#696e82"/><path d="m61 15h-3l-4 4v-4h-5a2 2 0 0 1 -2-2v-8a2 2 0 0 1 2-2h12a2 2 0 0 1 2 2v8a2 2 0 0 1 -2 2z" fill="#fff"/><path d="m59 7.75h-8a.75.75 0 0 1 0-1.5h8a.75.75 0 0 1 0 1.5z" fill="#696e82"/><path d="m59 11.75h-8a.75.75 0 0 1 0-1.5h8a.75.75 0 0 1 0 1.5z" fill="#696e82"/><path d="m3 15h3l4 4v-4h5a2 2 0 0 0 2-2v-8a2 2 0 0 0 -2-2h-12a2 2 0 0 0 -2 2v8a2 2 0 0 0 2 2z" fill="#fff"/><path d="m13 7.75h-8a.75.75 0 0 1 0-1.5h8a.75.75 0 0 1 0 1.5z" fill="#696e82"/><path d="m13 11.75h-8a.75.75 0 0 1 0-1.5h8a.75.75 0 0 1 0 1.5z" fill="#696e82"/><path d="m40.0518 26.3492-1.0518 11.6508h16l-1.0518-11.6508a6.9765 6.9765 0 0 0 -6.9482-6.3492 6.9765 6.9765 0 0 0 -6.9482 6.3492z" fill="#cf8e4a"/><path d="m44 33h6a5 5 0 0 1 5 5v3a0 0 0 0 1 0 0h-16a0 0 0 0 1 0 0v-3a5 5 0 0 1 5-5z" fill="#78d7e6"/><path d="m48 25a3.6182 3.6182 0 0 1 -3.2361 2h-2.2639v1.5a4.5 4.5 0 0 0 9 0v-1.5h-.2639a3.6182 3.6182 0 0 1 -3.2361-2z" fill="#ffd7aa"/></svg>